<?xml version="1.0" encoding="utf-8" standalone="no"?>
<!DOCTYPE svg PUBLIC "-//W3C//DTD SVG 1.1//EN"
  "http://www.w3.org/Graphics/SVG/1.1/DTD/svg11.dtd">
<svg xmlns:xlink="http://www.w3.org/1999/xlink" width="576pt" height="198pt" viewBox="0 0 576 198" xmlns="http://www.w3.org/2000/svg" version="1.1">
 <metadata>
  <rdf:RDF xmlns:dc="http://purl.org/dc/elements/1.1/" xmlns:cc="http://creativecommons.org/ns#" xmlns:rdf="http://www.w3.org/1999/02/22-rdf-syntax-ns#">
   <cc:Work>
    <dc:type rdf:resource="http://purl.org/dc/dcmitype/StillImage"/>
    <dc:date>2023-01-18T16:35:30.837661</dc:date>
    <dc:format>image/svg+xml</dc:format>
    <dc:creator>
     <cc:Agent>
      <dc:title>Matplotlib v3.5.1, https://matplotlib.org/</dc:title>
     </cc:Agent>
    </dc:creator>
   </cc:Work>
  </rdf:RDF>
 </metadata>
 <defs>
  <style type="text/css">*{stroke-linejoin: round; stroke-linecap: butt}</style>
 </defs>
 <g id="figure_1">
  <g id="patch_1">
   <path d="M 0 198 
L 576 198 
L 576 0 
L 0 0 
L 0 198 
z
" style="fill: none"/>
  </g>
  <g id="axes_1">
   <g id="patch_2">
    <path d="M 15.210061 156.3 
L 281.564939 156.3 
L 281.564939 23.8 
L 15.210061 23.8 
z
" style="fill: #ffffff"/>
   </g>
   <g id="Quiver_1">
    <path d="M 148.3875 153.963333 
L 151.26766 153.963333 
L 151.26766 152.631558 
L 157.660177 154.229687 
L 151.26766 155.827817 
L 151.26766 154.496042 
L 148.3875 154.496042 
L 148.3875 153.963333 
" clip-path="url(#p6ce6e56644)"/>
    <path d="M 148.3875 149.822708 
L 172.12509 149.822708 
L 172.12509 148.490933 
L 178.517607 150.089062 
L 172.12509 151.687192 
L 172.12509 150.355417 
L 148.3875 150.355417 
L 148.3875 149.822708 
" clip-path="url(#p6ce6e56644)"/>
    <path d="M 148.3875 145.682083 
L 192.043276 145.682083 
L 192.043276 144.350308 
L 198.435793 145.948437 
L 192.043276 147.546567 
L 192.043276 146.214792 
L 148.3875 146.214792 
L 148.3875 145.682083 
" clip-path="url(#p6ce6e56644)"/>
    <path d="M 148.3875 141.541458 
L 210.128703 141.541458 
L 210.128703 140.209683 
L 216.52122 141.807812 
L 210.128703 143.405942 
L 210.128703 142.074167 
L 148.3875 142.074167 
L 148.3875 141.541458 
" clip-path="url(#p6ce6e56644)"/>
    <path d="M 148.3875 137.400833 
L 225.546402 137.400833 
L 225.546402 136.069058 
L 231.938919 137.667187 
L 225.546402 139.265317 
L 225.546402 137.933542 
L 148.3875 137.933542 
L 148.3875 137.400833 
" clip-path="url(#p6ce6e56644)"/>
    <path d="M 148.3875 133.260208 
L 237.812052 133.260208 
L 237.812052 131.928433 
L 244.204569 133.526562 
L 237.812052 135.124692 
L 237.812052 133.792917 
L 148.3875 133.792917 
L 148.3875 133.260208 
" clip-path="url(#p6ce6e56644)"/>
    <path d="M 148.3875 129.119583 
L 246.72759 129.119583 
L 246.72759 127.787808 
L 253.120107 129.385937 
L 246.72759 130.984067 
L 246.72759 129.652292 
L 148.3875 129.652292 
L 148.3875 129.119583 
" clip-path="url(#p6ce6e56644)"/>
    <path d="M 148.3875 124.978958 
L 253.070353 124.978958 
L 253.070353 123.647183 
L 259.462871 125.245312 
L 253.070353 126.843442 
L 253.070353 125.511667 
L 148.3875 125.511667 
L 148.3875 124.978958 
" clip-path="url(#p6ce6e56644)"/>
    <path d="M 148.3875 121.371042 
L 125.216417 121.371042 
L 125.216417 122.702817 
L 118.8239 121.104687 
L 125.216417 119.506558 
L 125.216417 120.838333 
L 148.3875 120.838333 
L 148.3875 121.371042 
" clip-path="url(#p6ce6e56644)"/>
    <path d="M 148.3875 117.230417 
L 130.97404 117.230417 
L 130.97404 118.562192 
L 124.581523 116.964062 
L 130.97404 115.365933 
L 130.97404 116.697708 
L 148.3875 116.697708 
L 148.3875 117.230417 
" clip-path="url(#p6ce6e56644)"/>
    <path d="M 148.3875 113.089792 
L 135.883895 113.089792 
L 135.883895 114.421567 
L 129.491378 112.823437 
L 135.883895 111.225308 
L 135.883895 112.557083 
L 148.3875 112.557083 
L 148.3875 113.089792 
" clip-path="url(#p6ce6e56644)"/>
    <path d="M 148.3875 108.949167 
L 140.06598 108.949167 
L 140.06598 110.280942 
L 133.673463 108.682812 
L 140.06598 107.084683 
L 140.06598 108.416458 
L 148.3875 108.416458 
L 148.3875 108.949167 
" clip-path="url(#p6ce6e56644)"/>
    <path d="M 148.3875 104.808542 
L 143.651104 104.808542 
L 143.651104 106.140317 
L 137.258587 104.542187 
L 143.651104 102.944058 
L 143.651104 104.275833 
L 148.3875 104.275833 
L 148.3875 104.808542 
" clip-path="url(#p6ce6e56644)"/>
    <path d="M 148.3875 100.667917 
L 146.780546 100.667917 
L 146.780546 101.999692 
L 140.388029 100.401562 
L 146.780546 98.803433 
L 146.780546 100.135208 
L 148.3875 100.135208 
L 148.3875 100.667917 
" clip-path="url(#p6ce6e56644)"/>
    <path d="M 148.3875 96.476784 
L 148.3875 96.476784 
L 148.3875 97.556016 
L 143.207185 96.260937 
L 148.3875 94.965859 
L 148.3875 96.045091 
L 148.3875 96.045091 
L 148.3875 96.476784 
" clip-path="url(#p6ce6e56644)"/>
    <path d="M 148.3875 92.225609 
L 148.3875 92.225609 
L 148.3875 92.752093 
L 145.860378 92.120312 
L 148.3875 91.488532 
L 148.3875 92.015016 
L 148.3875 92.015016 
L 148.3875 92.225609 
" clip-path="url(#p6ce6e56644)"/>
    <path d="M 148.653855 87.979687 
L 148.520677 87.749017 
L 148.254323 87.749017 
L 148.121145 87.979687 
L 148.254323 88.210358 
L 148.520677 88.210358 
L 148.653855 87.979687 
L 148.520677 87.749017 
" clip-path="url(#p6ce6e56644)"/>
    <path d="M 148.3875 83.720332 
L 148.3875 83.720332 
L 148.3875 83.126681 
L 151.237025 83.839062 
L 148.3875 84.551444 
L 148.3875 83.957793 
L 148.3875 83.957793 
L 148.3875 83.720332 
" clip-path="url(#p6ce6e56644)"/>
    <path d="M 148.3875 79.454455 
L 148.3875 79.454455 
L 148.3875 78.234542 
L 154.243081 79.698437 
L 148.3875 81.162333 
L 148.3875 79.94242 
L 148.3875 79.94242 
L 148.3875 79.454455 
" clip-path="url(#p6ce6e56644)"/>
    <path d="M 148.3875 75.291458 
L 151.256335 75.291458 
L 151.256335 73.959683 
L 157.648852 75.557812 
L 151.256335 77.155942 
L 151.256335 75.824167 
L 148.3875 75.824167 
L 148.3875 75.291458 
" clip-path="url(#p6ce6e56644)"/>
    <path d="M 148.3875 71.150833 
L 155.199392 71.150833 
L 155.199392 69.819058 
L 161.591909 71.417187 
L 155.199392 73.015317 
L 155.199392 71.683542 
L 148.3875 71.683542 
L 148.3875 71.150833 
" clip-path="url(#p6ce6e56644)"/>
    <path d="M 148.3875 67.010208 
L 159.808769 67.010208 
L 159.808769 65.678433 
L 166.201286 67.276563 
L 159.808769 68.874692 
L 159.808769 67.542917 
L 148.3875 67.542917 
L 148.3875 67.010208 
" clip-path="url(#p6ce6e56644)"/>
    <path d="M 148.3875 62.869583 
L 165.200032 62.869583 
L 165.200032 61.537808 
L 171.592549 63.135938 
L 165.200032 64.734067 
L 165.200032 63.402292 
L 148.3875 63.402292 
L 148.3875 62.869583 
" clip-path="url(#p6ce6e56644)"/>
    <path d="M 148.3875 58.728958 
L 171.475053 58.728958 
L 171.475053 57.397183 
L 177.86757 58.995313 
L 171.475053 60.593442 
L 171.475053 59.261667 
L 148.3875 59.261667 
L 148.3875 58.728958 
" clip-path="url(#p6ce6e56644)"/>
    <path d="M 148.3875 55.121042 
L 41.837465 55.121042 
L 41.837465 56.452817 
L 35.444948 54.854687 
L 41.837465 53.256558 
L 41.837465 54.588333 
L 148.3875 54.588333 
L 148.3875 55.121042 
" clip-path="url(#p6ce6e56644)"/>
    <path d="M 148.3875 50.980417 
L 49.144407 50.980417 
L 49.144407 52.312192 
L 42.75189 50.714062 
L 49.144407 49.115933 
L 49.144407 50.447708 
L 148.3875 50.447708 
L 148.3875 50.980417 
" clip-path="url(#p6ce6e56644)"/>
    <path d="M 148.3875 46.839792 
L 58.571949 46.839792 
L 58.571949 48.171567 
L 52.179432 46.573437 
L 58.571949 44.975308 
L 58.571949 46.307083 
L 148.3875 46.307083 
L 148.3875 46.839792 
" clip-path="url(#p6ce6e56644)"/>
    <path d="M 148.3875 42.699167 
L 70.731718 42.699167 
L 70.731718 44.030942 
L 64.339201 42.432813 
L 70.731718 40.834683 
L 70.731718 42.166458 
L 148.3875 42.166458 
L 148.3875 42.699167 
" clip-path="url(#p6ce6e56644)"/>
    <path d="M 148.3875 38.558542 
L 85.721123 38.558542 
L 85.721123 39.890317 
L 79.328606 38.292188 
L 85.721123 36.694058 
L 85.721123 38.025833 
L 148.3875 38.025833 
L 148.3875 38.558542 
" clip-path="url(#p6ce6e56644)"/>
    <path d="M 148.3875 34.417917 
L 103.176492 34.417917 
L 103.176492 35.749692 
L 96.783975 34.151563 
L 103.176492 32.553433 
L 103.176492 33.885208 
L 148.3875 33.885208 
L 148.3875 34.417917 
" clip-path="url(#p6ce6e56644)"/>
    <path d="M 148.3875 30.277292 
L 122.503166 30.277292 
L 122.503166 31.609067 
L 116.110649 30.010938 
L 122.503166 28.412808 
L 122.503166 29.744583 
L 148.3875 29.744583 
L 148.3875 30.277292 
" clip-path="url(#p6ce6e56644)"/>
    <path d="M 148.3875 26.136667 
L 143.022518 26.136667 
L 143.022518 27.468442 
L 136.630001 25.870313 
L 143.022518 24.272183 
L 143.022518 25.603958 
L 148.3875 25.603958 
L 148.3875 26.136667 
" clip-path="url(#p6ce6e56644)"/>
   </g>
   <g id="patch_3">
    <path d="M 28.527805 71.417187 
L 30.192523 79.698437 
L 28.611041 79.698437 
L 28.611041 112.823437 
L 28.444569 112.823437 
L 28.444569 79.698437 
L 26.863087 79.698437 
z
" clip-path="url(#p6ce6e56644)" style="fill: #1f77b4; stroke: #000000; stroke-linejoin: miter"/>
   </g>
   <g id="matplotlib.axis_1">
    <g id="xtick_1">
     <g id="line2d_1">
      <defs>
       <path id="maf234b61de" d="M 0 0 
L 0 -3.5 
" style="stroke: #000000; stroke-width: 0.8"/>
      </defs>
      <g>
       <use xlink:href="#maf234b61de" x="23.533651" y="156.3" style="stroke: #000000; stroke-width: 0.8"/>
      </g>
     </g>
     <g id="line2d_2">
      <defs>
       <path id="m9be1ff38c2" d="M 0 0 
L 0 3.5 
" style="stroke: #000000; stroke-width: 0.8"/>
      </defs>
      <g>
       <use xlink:href="#m9be1ff38c2" x="23.533651" y="23.8" style="stroke: #000000; stroke-width: 0.8"/>
      </g>
     </g>
     <g id="text_1">
      <!-- −0.75 -->
      <g transform="translate(11.275526 165.87875)scale(0.08 -0.08)">
       <defs>
        <path id="DejaVuSans-2212" d="M 678 2272 
L 4684 2272 
L 4684 1741 
L 678 1741 
L 678 2272 
z
" transform="scale(0.015625)"/>
        <path id="DejaVuSans-30" d="M 2034 4250 
Q 1547 4250 1301 3770 
Q 1056 3291 1056 2328 
Q 1056 1369 1301 889 
Q 1547 409 2034 409 
Q 2525 409 2770 889 
Q 3016 1369 3016 2328 
Q 3016 3291 2770 3770 
Q 2525 4250 2034 4250 
z
M 2034 4750 
Q 2819 4750 3233 4129 
Q 3647 3509 3647 2328 
Q 3647 1150 3233 529 
Q 2819 -91 2034 -91 
Q 1250 -91 836 529 
Q 422 1150 422 2328 
Q 422 3509 836 4129 
Q 1250 4750 2034 4750 
z
" transform="scale(0.015625)"/>
        <path id="DejaVuSans-2e" d="M 684 794 
L 1344 794 
L 1344 0 
L 684 0 
L 684 794 
z
" transform="scale(0.015625)"/>
        <path id="DejaVuSans-37" d="M 525 4666 
L 3525 4666 
L 3525 4397 
L 1831 0 
L 1172 0 
L 2766 4134 
L 525 4134 
L 525 4666 
z
" transform="scale(0.015625)"/>
        <path id="DejaVuSans-35" d="M 691 4666 
L 3169 4666 
L 3169 4134 
L 1269 4134 
L 1269 2991 
Q 1406 3038 1543 3061 
Q 1681 3084 1819 3084 
Q 2600 3084 3056 2656 
Q 3513 2228 3513 1497 
Q 3513 744 3044 326 
Q 2575 -91 1722 -91 
Q 1428 -91 1123 -41 
Q 819 9 494 109 
L 494 744 
Q 775 591 1075 516 
Q 1375 441 1709 441 
Q 2250 441 2565 725 
Q 2881 1009 2881 1497 
Q 2881 1984 2565 2268 
Q 2250 2553 1709 2553 
Q 1456 2553 1204 2497 
Q 953 2441 691 2322 
L 691 4666 
z
" transform="scale(0.015625)"/>
       </defs>
       <use xlink:href="#DejaVuSans-2212"/>
       <use xlink:href="#DejaVuSans-30" x="83.789062"/>
       <use xlink:href="#DejaVuSans-2e" x="147.412109"/>
       <use xlink:href="#DejaVuSans-37" x="179.199219"/>
       <use xlink:href="#DejaVuSans-35" x="242.822266"/>
      </g>
     </g>
    </g>
    <g id="xtick_2">
     <g id="line2d_3">
      <g>
       <use xlink:href="#maf234b61de" x="65.151601" y="156.3" style="stroke: #000000; stroke-width: 0.8"/>
      </g>
     </g>
     <g id="line2d_4">
      <g>
       <use xlink:href="#m9be1ff38c2" x="65.151601" y="23.8" style="stroke: #000000; stroke-width: 0.8"/>
      </g>
     </g>
     <g id="text_2">
      <!-- −0.50 -->
      <g transform="translate(52.893476 165.87875)scale(0.08 -0.08)">
       <use xlink:href="#DejaVuSans-2212"/>
       <use xlink:href="#DejaVuSans-30" x="83.789062"/>
       <use xlink:href="#DejaVuSans-2e" x="147.412109"/>
       <use xlink:href="#DejaVuSans-35" x="179.199219"/>
       <use xlink:href="#DejaVuSans-30" x="242.822266"/>
      </g>
     </g>
    </g>
    <g id="xtick_3">
     <g id="line2d_5">
      <g>
       <use xlink:href="#maf234b61de" x="106.76955" y="156.3" style="stroke: #000000; stroke-width: 0.8"/>
      </g>
     </g>
     <g id="line2d_6">
      <g>
       <use xlink:href="#m9be1ff38c2" x="106.76955" y="23.8" style="stroke: #000000; stroke-width: 0.8"/>
      </g>
     </g>
     <g id="text_3">
      <!-- −0.25 -->
      <g transform="translate(94.511425 165.87875)scale(0.08 -0.08)">
       <defs>
        <path id="DejaVuSans-32" d="M 1228 531 
L 3431 531 
L 3431 0 
L 469 0 
L 469 531 
Q 828 903 1448 1529 
Q 2069 2156 2228 2338 
Q 2531 2678 2651 2914 
Q 2772 3150 2772 3378 
Q 2772 3750 2511 3984 
Q 2250 4219 1831 4219 
Q 1534 4219 1204 4116 
Q 875 4013 500 3803 
L 500 4441 
Q 881 4594 1212 4672 
Q 1544 4750 1819 4750 
Q 2544 4750 2975 4387 
Q 3406 4025 3406 3419 
Q 3406 3131 3298 2873 
Q 3191 2616 2906 2266 
Q 2828 2175 2409 1742 
Q 1991 1309 1228 531 
z
" transform="scale(0.015625)"/>
       </defs>
       <use xlink:href="#DejaVuSans-2212"/>
       <use xlink:href="#DejaVuSans-30" x="83.789062"/>
       <use xlink:href="#DejaVuSans-2e" x="147.412109"/>
       <use xlink:href="#DejaVuSans-32" x="179.199219"/>
       <use xlink:href="#DejaVuSans-35" x="242.822266"/>
      </g>
     </g>
    </g>
    <g id="xtick_4">
     <g id="line2d_7">
      <g>
       <use xlink:href="#maf234b61de" x="148.3875" y="156.3" style="stroke: #000000; stroke-width: 0.8"/>
      </g>
     </g>
     <g id="line2d_8">
      <g>
       <use xlink:href="#m9be1ff38c2" x="148.3875" y="23.8" style="stroke: #000000; stroke-width: 0.8"/>
      </g>
     </g>
     <g id="text_4">
      <!-- 0.00 -->
      <g transform="translate(139.48125 165.87875)scale(0.08 -0.08)">
       <use xlink:href="#DejaVuSans-30"/>
       <use xlink:href="#DejaVuSans-2e" x="63.623047"/>
       <use xlink:href="#DejaVuSans-30" x="95.410156"/>
       <use xlink:href="#DejaVuSans-30" x="159.033203"/>
      </g>
     </g>
    </g>
    <g id="xtick_5">
     <g id="line2d_9">
      <g>
       <use xlink:href="#maf234b61de" x="190.00545" y="156.3" style="stroke: #000000; stroke-width: 0.8"/>
      </g>
     </g>
     <g id="line2d_10">
      <g>
       <use xlink:href="#m9be1ff38c2" x="190.00545" y="23.8" style="stroke: #000000; stroke-width: 0.8"/>
      </g>
     </g>
     <g id="text_5">
      <!-- 0.25 -->
      <g transform="translate(181.0992 165.87875)scale(0.08 -0.08)">
       <use xlink:href="#DejaVuSans-30"/>
       <use xlink:href="#DejaVuSans-2e" x="63.623047"/>
       <use xlink:href="#DejaVuSans-32" x="95.410156"/>
       <use xlink:href="#DejaVuSans-35" x="159.033203"/>
      </g>
     </g>
    </g>
    <g id="xtick_6">
     <g id="line2d_11">
      <g>
       <use xlink:href="#maf234b61de" x="231.623399" y="156.3" style="stroke: #000000; stroke-width: 0.8"/>
      </g>
     </g>
     <g id="line2d_12">
      <g>
       <use xlink:href="#m9be1ff38c2" x="231.623399" y="23.8" style="stroke: #000000; stroke-width: 0.8"/>
      </g>
     </g>
     <g id="text_6">
      <!-- 0.50 -->
      <g transform="translate(222.717149 165.87875)scale(0.08 -0.08)">
       <use xlink:href="#DejaVuSans-30"/>
       <use xlink:href="#DejaVuSans-2e" x="63.623047"/>
       <use xlink:href="#DejaVuSans-35" x="95.410156"/>
       <use xlink:href="#DejaVuSans-30" x="159.033203"/>
      </g>
     </g>
    </g>
    <g id="xtick_7">
     <g id="line2d_13">
      <g>
       <use xlink:href="#maf234b61de" x="273.241349" y="156.3" style="stroke: #000000; stroke-width: 0.8"/>
      </g>
     </g>
     <g id="line2d_14">
      <g>
       <use xlink:href="#m9be1ff38c2" x="273.241349" y="23.8" style="stroke: #000000; stroke-width: 0.8"/>
      </g>
     </g>
     <g id="text_7">
      <!-- 0.75 -->
      <g transform="translate(264.335099 165.87875)scale(0.08 -0.08)">
       <use xlink:href="#DejaVuSans-30"/>
       <use xlink:href="#DejaVuSans-2e" x="63.623047"/>
       <use xlink:href="#DejaVuSans-37" x="95.410156"/>
       <use xlink:href="#DejaVuSans-35" x="159.033203"/>
      </g>
     </g>
    </g>
    <g id="text_8">
     <!-- $u_y(x, y = L_y)/U_y$ -->
     <g transform="translate(111.9375 179.1425)scale(0.1 -0.1)">
      <defs>
       <path id="DejaVuSans-Oblique-75" d="M 428 1388 
L 838 3500 
L 1416 3500 
L 1006 1409 
Q 975 1256 961 1147 
Q 947 1038 947 966 
Q 947 700 1109 554 
Q 1272 409 1569 409 
Q 2031 409 2368 721 
Q 2706 1034 2809 1563 
L 3194 3500 
L 3769 3500 
L 3091 0 
L 2516 0 
L 2631 550 
Q 2388 244 2052 76 
Q 1716 -91 1338 -91 
Q 878 -91 622 161 
Q 366 413 366 863 
Q 366 956 381 1097 
Q 397 1238 428 1388 
z
" transform="scale(0.015625)"/>
       <path id="DejaVuSans-Oblique-79" d="M 1588 -325 
Q 1188 -997 936 -1164 
Q 684 -1331 294 -1331 
L -159 -1331 
L -63 -850 
L 269 -850 
Q 509 -850 678 -719 
Q 847 -588 1056 -206 
L 1234 128 
L 459 3500 
L 1069 3500 
L 1650 819 
L 3256 3500 
L 3859 3500 
L 1588 -325 
z
" transform="scale(0.015625)"/>
       <path id="DejaVuSans-28" d="M 1984 4856 
Q 1566 4138 1362 3434 
Q 1159 2731 1159 2009 
Q 1159 1288 1364 580 
Q 1569 -128 1984 -844 
L 1484 -844 
Q 1016 -109 783 600 
Q 550 1309 550 2009 
Q 550 2706 781 3412 
Q 1013 4119 1484 4856 
L 1984 4856 
z
" transform="scale(0.015625)"/>
       <path id="DejaVuSans-Oblique-78" d="M 3841 3500 
L 2234 1784 
L 3219 0 
L 2559 0 
L 1819 1388 
L 531 0 
L -166 0 
L 1556 1844 
L 641 3500 
L 1300 3500 
L 1972 2234 
L 3144 3500 
L 3841 3500 
z
" transform="scale(0.015625)"/>
       <path id="DejaVuSans-2c" d="M 750 794 
L 1409 794 
L 1409 256 
L 897 -744 
L 494 -744 
L 750 256 
L 750 794 
z
" transform="scale(0.015625)"/>
       <path id="DejaVuSans-3d" d="M 678 2906 
L 4684 2906 
L 4684 2381 
L 678 2381 
L 678 2906 
z
M 678 1631 
L 4684 1631 
L 4684 1100 
L 678 1100 
L 678 1631 
z
" transform="scale(0.015625)"/>
       <path id="DejaVuSans-Oblique-4c" d="M 1075 4666 
L 1709 4666 
L 909 525 
L 3181 525 
L 3078 0 
L 172 0 
L 1075 4666 
z
" transform="scale(0.015625)"/>
       <path id="DejaVuSans-29" d="M 513 4856 
L 1013 4856 
Q 1481 4119 1714 3412 
Q 1947 2706 1947 2009 
Q 1947 1309 1714 600 
Q 1481 -109 1013 -844 
L 513 -844 
Q 928 -128 1133 580 
Q 1338 1288 1338 2009 
Q 1338 2731 1133 3434 
Q 928 4138 513 4856 
z
" transform="scale(0.015625)"/>
       <path id="DejaVuSans-2f" d="M 1625 4666 
L 2156 4666 
L 531 -594 
L 0 -594 
L 1625 4666 
z
" transform="scale(0.015625)"/>
       <path id="DejaVuSans-Oblique-55" d="M 991 4666 
L 1625 4666 
L 1075 1831 
Q 1041 1641 1027 1517 
Q 1013 1394 1013 1300 
Q 1013 869 1253 645 
Q 1494 422 1959 422 
Q 2563 422 2898 753 
Q 3234 1084 3378 1831 
L 3928 4666 
L 4563 4666 
L 4000 1753 
Q 3816 809 3300 359 
Q 2784 -91 1888 -91 
Q 1188 -91 780 261 
Q 372 613 372 1216 
Q 372 1325 387 1461 
Q 403 1597 434 1753 
L 991 4666 
z
" transform="scale(0.015625)"/>
      </defs>
      <use xlink:href="#DejaVuSans-Oblique-75" transform="translate(0 0.125)"/>
      <use xlink:href="#DejaVuSans-Oblique-79" transform="translate(63.378906 -16.28125)scale(0.7)"/>
      <use xlink:href="#DejaVuSans-28" transform="translate(107.539062 0.125)"/>
      <use xlink:href="#DejaVuSans-Oblique-78" transform="translate(146.552734 0.125)"/>
      <use xlink:href="#DejaVuSans-2c" transform="translate(205.732422 0.125)"/>
      <use xlink:href="#DejaVuSans-Oblique-79" transform="translate(257.001953 0.125)"/>
      <use xlink:href="#DejaVuSans-3d" transform="translate(335.664062 0.125)"/>
      <use xlink:href="#DejaVuSans-Oblique-4c" transform="translate(438.935547 0.125)"/>
      <use xlink:href="#DejaVuSans-Oblique-79" transform="translate(494.648438 -16.28125)scale(0.7)"/>
      <use xlink:href="#DejaVuSans-29" transform="translate(538.808594 0.125)"/>
      <use xlink:href="#DejaVuSans-2f" transform="translate(577.822266 0.125)"/>
      <use xlink:href="#DejaVuSans-Oblique-55" transform="translate(611.513672 0.125)"/>
      <use xlink:href="#DejaVuSans-Oblique-79" transform="translate(684.707031 -16.28125)scale(0.7)"/>
     </g>
    </g>
   </g>
   <g id="matplotlib.axis_2">
    <g id="ytick_1">
     <g id="line2d_15">
      <path d="M 15.210061 123.175 
L 281.564939 123.175 
" clip-path="url(#p6ce6e56644)" style="fill: none; stroke: #000000; stroke-linecap: square"/>
     </g>
     <g id="line2d_16">
      <defs>
       <path id="m08fd6eb62a" d="M 0 0 
L 3.5 0 
" style="stroke: #000000; stroke-width: 0.8"/>
      </defs>
      <g>
       <use xlink:href="#m08fd6eb62a" x="15.210061" y="123.175" style="stroke: #000000; stroke-width: 0.8"/>
      </g>
     </g>
     <g id="line2d_17">
      <defs>
       <path id="m2ed8a6a53a" d="M 0 0 
L -3.5 0 
" style="stroke: #000000; stroke-width: 0.8"/>
      </defs>
      <g>
       <use xlink:href="#m2ed8a6a53a" x="281.564939" y="123.175" style="stroke: #000000; stroke-width: 0.8"/>
      </g>
     </g>
    </g>
    <g id="ytick_2">
     <g id="line2d_18">
      <path d="M 15.210061 56.925 
L 281.564939 56.925 
" clip-path="url(#p6ce6e56644)" style="fill: none; stroke: #000000; stroke-linecap: square"/>
     </g>
     <g id="line2d_19">
      <g>
       <use xlink:href="#m08fd6eb62a" x="15.210061" y="56.925" style="stroke: #000000; stroke-width: 0.8"/>
      </g>
     </g>
     <g id="line2d_20">
      <g>
       <use xlink:href="#m2ed8a6a53a" x="281.564939" y="56.925" style="stroke: #000000; stroke-width: 0.8"/>
      </g>
     </g>
    </g>
   </g>
   <g id="patch_4">
    <path d="M 15.210061 156.3 
L 15.210061 23.8 
" style="fill: none; stroke: #000000; stroke-width: 0.8; stroke-linejoin: miter; stroke-linecap: square"/>
   </g>
   <g id="patch_5">
    <path d="M 281.564939 156.3 
L 281.564939 23.8 
" style="fill: none; stroke: #000000; stroke-width: 0.8; stroke-linejoin: miter; stroke-linecap: square"/>
   </g>
   <g id="patch_6">
    <path d="M 15.210061 156.3 
L 281.564939 156.3 
" style="fill: none; stroke: #000000; stroke-width: 0.8; stroke-linejoin: miter; stroke-linecap: square"/>
   </g>
   <g id="patch_7">
    <path d="M 15.210061 23.8 
L 281.564939 23.8 
" style="fill: none; stroke: #000000; stroke-width: 0.8; stroke-linejoin: miter; stroke-linecap: square"/>
   </g>
   <g id="text_9">
    <!-- $x$ -->
    <g transform="translate(31.857241 79.698437)scale(0.1 -0.1)">
     <use xlink:href="#DejaVuSans-Oblique-78" transform="translate(0 0.3125)"/>
    </g>
   </g>
   <g id="text_10">
    <!-- Timestep = 3200; Flow direction (raw) -->
    <g transform="translate(15.210061 17.8)scale(0.09 -0.09)">
     <defs>
      <path id="DejaVuSans-54" d="M -19 4666 
L 3928 4666 
L 3928 4134 
L 2272 4134 
L 2272 0 
L 1638 0 
L 1638 4134 
L -19 4134 
L -19 4666 
z
" transform="scale(0.015625)"/>
      <path id="DejaVuSans-69" d="M 603 3500 
L 1178 3500 
L 1178 0 
L 603 0 
L 603 3500 
z
M 603 4863 
L 1178 4863 
L 1178 4134 
L 603 4134 
L 603 4863 
z
" transform="scale(0.015625)"/>
      <path id="DejaVuSans-6d" d="M 3328 2828 
Q 3544 3216 3844 3400 
Q 4144 3584 4550 3584 
Q 5097 3584 5394 3201 
Q 5691 2819 5691 2113 
L 5691 0 
L 5113 0 
L 5113 2094 
Q 5113 2597 4934 2840 
Q 4756 3084 4391 3084 
Q 3944 3084 3684 2787 
Q 3425 2491 3425 1978 
L 3425 0 
L 2847 0 
L 2847 2094 
Q 2847 2600 2669 2842 
Q 2491 3084 2119 3084 
Q 1678 3084 1418 2786 
Q 1159 2488 1159 1978 
L 1159 0 
L 581 0 
L 581 3500 
L 1159 3500 
L 1159 2956 
Q 1356 3278 1631 3431 
Q 1906 3584 2284 3584 
Q 2666 3584 2933 3390 
Q 3200 3197 3328 2828 
z
" transform="scale(0.015625)"/>
      <path id="DejaVuSans-65" d="M 3597 1894 
L 3597 1613 
L 953 1613 
Q 991 1019 1311 708 
Q 1631 397 2203 397 
Q 2534 397 2845 478 
Q 3156 559 3463 722 
L 3463 178 
Q 3153 47 2828 -22 
Q 2503 -91 2169 -91 
Q 1331 -91 842 396 
Q 353 884 353 1716 
Q 353 2575 817 3079 
Q 1281 3584 2069 3584 
Q 2775 3584 3186 3129 
Q 3597 2675 3597 1894 
z
M 3022 2063 
Q 3016 2534 2758 2815 
Q 2500 3097 2075 3097 
Q 1594 3097 1305 2825 
Q 1016 2553 972 2059 
L 3022 2063 
z
" transform="scale(0.015625)"/>
      <path id="DejaVuSans-73" d="M 2834 3397 
L 2834 2853 
Q 2591 2978 2328 3040 
Q 2066 3103 1784 3103 
Q 1356 3103 1142 2972 
Q 928 2841 928 2578 
Q 928 2378 1081 2264 
Q 1234 2150 1697 2047 
L 1894 2003 
Q 2506 1872 2764 1633 
Q 3022 1394 3022 966 
Q 3022 478 2636 193 
Q 2250 -91 1575 -91 
Q 1294 -91 989 -36 
Q 684 19 347 128 
L 347 722 
Q 666 556 975 473 
Q 1284 391 1588 391 
Q 1994 391 2212 530 
Q 2431 669 2431 922 
Q 2431 1156 2273 1281 
Q 2116 1406 1581 1522 
L 1381 1569 
Q 847 1681 609 1914 
Q 372 2147 372 2553 
Q 372 3047 722 3315 
Q 1072 3584 1716 3584 
Q 2034 3584 2315 3537 
Q 2597 3491 2834 3397 
z
" transform="scale(0.015625)"/>
      <path id="DejaVuSans-74" d="M 1172 4494 
L 1172 3500 
L 2356 3500 
L 2356 3053 
L 1172 3053 
L 1172 1153 
Q 1172 725 1289 603 
Q 1406 481 1766 481 
L 2356 481 
L 2356 0 
L 1766 0 
Q 1100 0 847 248 
Q 594 497 594 1153 
L 594 3053 
L 172 3053 
L 172 3500 
L 594 3500 
L 594 4494 
L 1172 4494 
z
" transform="scale(0.015625)"/>
      <path id="DejaVuSans-70" d="M 1159 525 
L 1159 -1331 
L 581 -1331 
L 581 3500 
L 1159 3500 
L 1159 2969 
Q 1341 3281 1617 3432 
Q 1894 3584 2278 3584 
Q 2916 3584 3314 3078 
Q 3713 2572 3713 1747 
Q 3713 922 3314 415 
Q 2916 -91 2278 -91 
Q 1894 -91 1617 61 
Q 1341 213 1159 525 
z
M 3116 1747 
Q 3116 2381 2855 2742 
Q 2594 3103 2138 3103 
Q 1681 3103 1420 2742 
Q 1159 2381 1159 1747 
Q 1159 1113 1420 752 
Q 1681 391 2138 391 
Q 2594 391 2855 752 
Q 3116 1113 3116 1747 
z
" transform="scale(0.015625)"/>
      <path id="DejaVuSans-20" transform="scale(0.015625)"/>
      <path id="DejaVuSans-33" d="M 2597 2516 
Q 3050 2419 3304 2112 
Q 3559 1806 3559 1356 
Q 3559 666 3084 287 
Q 2609 -91 1734 -91 
Q 1441 -91 1130 -33 
Q 819 25 488 141 
L 488 750 
Q 750 597 1062 519 
Q 1375 441 1716 441 
Q 2309 441 2620 675 
Q 2931 909 2931 1356 
Q 2931 1769 2642 2001 
Q 2353 2234 1838 2234 
L 1294 2234 
L 1294 2753 
L 1863 2753 
Q 2328 2753 2575 2939 
Q 2822 3125 2822 3475 
Q 2822 3834 2567 4026 
Q 2313 4219 1838 4219 
Q 1578 4219 1281 4162 
Q 984 4106 628 3988 
L 628 4550 
Q 988 4650 1302 4700 
Q 1616 4750 1894 4750 
Q 2613 4750 3031 4423 
Q 3450 4097 3450 3541 
Q 3450 3153 3228 2886 
Q 3006 2619 2597 2516 
z
" transform="scale(0.015625)"/>
      <path id="DejaVuSans-3b" d="M 750 3309 
L 1409 3309 
L 1409 2516 
L 750 2516 
L 750 3309 
z
M 750 794 
L 1409 794 
L 1409 256 
L 897 -744 
L 494 -744 
L 750 256 
L 750 794 
z
" transform="scale(0.015625)"/>
      <path id="DejaVuSans-46" d="M 628 4666 
L 3309 4666 
L 3309 4134 
L 1259 4134 
L 1259 2759 
L 3109 2759 
L 3109 2228 
L 1259 2228 
L 1259 0 
L 628 0 
L 628 4666 
z
" transform="scale(0.015625)"/>
      <path id="DejaVuSans-6c" d="M 603 4863 
L 1178 4863 
L 1178 0 
L 603 0 
L 603 4863 
z
" transform="scale(0.015625)"/>
      <path id="DejaVuSans-6f" d="M 1959 3097 
Q 1497 3097 1228 2736 
Q 959 2375 959 1747 
Q 959 1119 1226 758 
Q 1494 397 1959 397 
Q 2419 397 2687 759 
Q 2956 1122 2956 1747 
Q 2956 2369 2687 2733 
Q 2419 3097 1959 3097 
z
M 1959 3584 
Q 2709 3584 3137 3096 
Q 3566 2609 3566 1747 
Q 3566 888 3137 398 
Q 2709 -91 1959 -91 
Q 1206 -91 779 398 
Q 353 888 353 1747 
Q 353 2609 779 3096 
Q 1206 3584 1959 3584 
z
" transform="scale(0.015625)"/>
      <path id="DejaVuSans-77" d="M 269 3500 
L 844 3500 
L 1563 769 
L 2278 3500 
L 2956 3500 
L 3675 769 
L 4391 3500 
L 4966 3500 
L 4050 0 
L 3372 0 
L 2619 2869 
L 1863 0 
L 1184 0 
L 269 3500 
z
" transform="scale(0.015625)"/>
      <path id="DejaVuSans-64" d="M 2906 2969 
L 2906 4863 
L 3481 4863 
L 3481 0 
L 2906 0 
L 2906 525 
Q 2725 213 2448 61 
Q 2172 -91 1784 -91 
Q 1150 -91 751 415 
Q 353 922 353 1747 
Q 353 2572 751 3078 
Q 1150 3584 1784 3584 
Q 2172 3584 2448 3432 
Q 2725 3281 2906 2969 
z
M 947 1747 
Q 947 1113 1208 752 
Q 1469 391 1925 391 
Q 2381 391 2643 752 
Q 2906 1113 2906 1747 
Q 2906 2381 2643 2742 
Q 2381 3103 1925 3103 
Q 1469 3103 1208 2742 
Q 947 2381 947 1747 
z
" transform="scale(0.015625)"/>
      <path id="DejaVuSans-72" d="M 2631 2963 
Q 2534 3019 2420 3045 
Q 2306 3072 2169 3072 
Q 1681 3072 1420 2755 
Q 1159 2438 1159 1844 
L 1159 0 
L 581 0 
L 581 3500 
L 1159 3500 
L 1159 2956 
Q 1341 3275 1631 3429 
Q 1922 3584 2338 3584 
Q 2397 3584 2469 3576 
Q 2541 3569 2628 3553 
L 2631 2963 
z
" transform="scale(0.015625)"/>
      <path id="DejaVuSans-63" d="M 3122 3366 
L 3122 2828 
Q 2878 2963 2633 3030 
Q 2388 3097 2138 3097 
Q 1578 3097 1268 2742 
Q 959 2388 959 1747 
Q 959 1106 1268 751 
Q 1578 397 2138 397 
Q 2388 397 2633 464 
Q 2878 531 3122 666 
L 3122 134 
Q 2881 22 2623 -34 
Q 2366 -91 2075 -91 
Q 1284 -91 818 406 
Q 353 903 353 1747 
Q 353 2603 823 3093 
Q 1294 3584 2113 3584 
Q 2378 3584 2631 3529 
Q 2884 3475 3122 3366 
z
" transform="scale(0.015625)"/>
      <path id="DejaVuSans-6e" d="M 3513 2113 
L 3513 0 
L 2938 0 
L 2938 2094 
Q 2938 2591 2744 2837 
Q 2550 3084 2163 3084 
Q 1697 3084 1428 2787 
Q 1159 2491 1159 1978 
L 1159 0 
L 581 0 
L 581 3500 
L 1159 3500 
L 1159 2956 
Q 1366 3272 1645 3428 
Q 1925 3584 2291 3584 
Q 2894 3584 3203 3211 
Q 3513 2838 3513 2113 
z
" transform="scale(0.015625)"/>
      <path id="DejaVuSans-61" d="M 2194 1759 
Q 1497 1759 1228 1600 
Q 959 1441 959 1056 
Q 959 750 1161 570 
Q 1363 391 1709 391 
Q 2188 391 2477 730 
Q 2766 1069 2766 1631 
L 2766 1759 
L 2194 1759 
z
M 3341 1997 
L 3341 0 
L 2766 0 
L 2766 531 
Q 2569 213 2275 61 
Q 1981 -91 1556 -91 
Q 1019 -91 701 211 
Q 384 513 384 1019 
Q 384 1609 779 1909 
Q 1175 2209 1959 2209 
L 2766 2209 
L 2766 2266 
Q 2766 2663 2505 2880 
Q 2244 3097 1772 3097 
Q 1472 3097 1187 3025 
Q 903 2953 641 2809 
L 641 3341 
Q 956 3463 1253 3523 
Q 1550 3584 1831 3584 
Q 2591 3584 2966 3190 
Q 3341 2797 3341 1997 
z
" transform="scale(0.015625)"/>
     </defs>
     <use xlink:href="#DejaVuSans-54"/>
     <use xlink:href="#DejaVuSans-69" x="57.958984"/>
     <use xlink:href="#DejaVuSans-6d" x="85.742188"/>
     <use xlink:href="#DejaVuSans-65" x="183.154297"/>
     <use xlink:href="#DejaVuSans-73" x="244.677734"/>
     <use xlink:href="#DejaVuSans-74" x="296.777344"/>
     <use xlink:href="#DejaVuSans-65" x="335.986328"/>
     <use xlink:href="#DejaVuSans-70" x="397.509766"/>
     <use xlink:href="#DejaVuSans-20" x="460.986328"/>
     <use xlink:href="#DejaVuSans-3d" x="492.773438"/>
     <use xlink:href="#DejaVuSans-20" x="576.5625"/>
     <use xlink:href="#DejaVuSans-33" x="608.349609"/>
     <use xlink:href="#DejaVuSans-32" x="671.972656"/>
     <use xlink:href="#DejaVuSans-30" x="735.595703"/>
     <use xlink:href="#DejaVuSans-30" x="799.21875"/>
     <use xlink:href="#DejaVuSans-3b" x="862.841797"/>
     <use xlink:href="#DejaVuSans-20" x="896.533203"/>
     <use xlink:href="#DejaVuSans-46" x="928.320312"/>
     <use xlink:href="#DejaVuSans-6c" x="985.839844"/>
     <use xlink:href="#DejaVuSans-6f" x="1013.623047"/>
     <use xlink:href="#DejaVuSans-77" x="1074.804688"/>
     <use xlink:href="#DejaVuSans-20" x="1156.591797"/>
     <use xlink:href="#DejaVuSans-64" x="1188.378906"/>
     <use xlink:href="#DejaVuSans-69" x="1251.855469"/>
     <use xlink:href="#DejaVuSans-72" x="1279.638672"/>
     <use xlink:href="#DejaVuSans-65" x="1318.501953"/>
     <use xlink:href="#DejaVuSans-63" x="1380.025391"/>
     <use xlink:href="#DejaVuSans-74" x="1435.005859"/>
     <use xlink:href="#DejaVuSans-69" x="1474.214844"/>
     <use xlink:href="#DejaVuSans-6f" x="1501.998047"/>
     <use xlink:href="#DejaVuSans-6e" x="1563.179688"/>
     <use xlink:href="#DejaVuSans-20" x="1626.558594"/>
     <use xlink:href="#DejaVuSans-28" x="1658.345703"/>
     <use xlink:href="#DejaVuSans-72" x="1697.359375"/>
     <use xlink:href="#DejaVuSans-61" x="1738.472656"/>
     <use xlink:href="#DejaVuSans-77" x="1799.751953"/>
     <use xlink:href="#DejaVuSans-29" x="1881.539062"/>
    </g>
   </g>
  </g>
  <g id="axes_2">
   <g id="patch_8">
    <path d="M 297.810061 156.3 
L 564.164939 156.3 
L 564.164939 23.8 
L 297.810061 23.8 
z
" style="fill: #ffffff"/>
   </g>
   <g id="Quiver_2">
    <path d="M 430.9875 154.496042 
L 306.67525 154.496042 
L 306.67525 155.827817 
L 300.282733 154.229687 
L 306.67525 152.631558 
L 306.67525 153.963333 
L 430.9875 153.963333 
L 430.9875 154.496042 
" clip-path="url(#p3672fa7508)"/>
    <path d="M 430.9875 150.355417 
L 327.211012 150.355417 
L 327.211012 151.687192 
L 320.818495 150.089062 
L 327.211012 148.490933 
L 327.211012 149.822708 
L 430.9875 149.822708 
L 430.9875 150.355417 
" clip-path="url(#p3672fa7508)"/>
    <path d="M 430.9875 146.214792 
L 344.859719 146.214792 
L 344.859719 147.546567 
L 338.467202 145.948437 
L 344.859719 144.350308 
L 344.859719 145.682083 
L 430.9875 145.682083 
L 430.9875 146.214792 
" clip-path="url(#p3672fa7508)"/>
    <path d="M 430.9875 142.074167 
L 359.889859 142.074167 
L 359.889859 143.405942 
L 353.497341 141.807812 
L 359.889859 140.209683 
L 359.889859 141.541458 
L 430.9875 141.541458 
L 430.9875 142.074167 
" clip-path="url(#p3672fa7508)"/>
    <path d="M 430.9875 137.933542 
L 372.715412 137.933542 
L 372.715412 139.265317 
L 366.322895 137.667187 
L 372.715412 136.069058 
L 372.715412 137.400833 
L 430.9875 137.400833 
L 430.9875 137.933542 
" clip-path="url(#p3672fa7508)"/>
    <path d="M 430.9875 133.792917 
L 383.697323 133.792917 
L 383.697323 135.124692 
L 377.304806 133.526562 
L 383.697323 131.928433 
L 383.697323 133.260208 
L 430.9875 133.260208 
L 430.9875 133.792917 
" clip-path="url(#p3672fa7508)"/>
    <path d="M 430.9875 129.652292 
L 393.092892 129.652292 
L 393.092892 130.984067 
L 386.700375 129.385937 
L 393.092892 127.787808 
L 393.092892 129.119583 
L 430.9875 129.119583 
L 430.9875 129.652292 
" clip-path="url(#p3672fa7508)"/>
    <path d="M 430.9875 125.511667 
L 401.076446 125.511667 
L 401.076446 126.843442 
L 394.683929 125.245312 
L 401.076446 123.647183 
L 401.076446 124.978958 
L 430.9875 124.978958 
L 430.9875 125.511667 
" clip-path="url(#p3672fa7508)"/>
    <path d="M 430.9875 121.371042 
L 407.816417 121.371042 
L 407.816417 122.702817 
L 401.4239 121.104687 
L 407.816417 119.506558 
L 407.816417 120.838333 
L 430.9875 120.838333 
L 430.9875 121.371042 
" clip-path="url(#p3672fa7508)"/>
    <path d="M 430.9875 117.230417 
L 413.57404 117.230417 
L 413.57404 118.562192 
L 407.181523 116.964062 
L 413.57404 115.365933 
L 413.57404 116.697708 
L 430.9875 116.697708 
L 430.9875 117.230417 
" clip-path="url(#p3672fa7508)"/>
    <path d="M 430.9875 113.089792 
L 418.483896 113.089792 
L 418.483896 114.421567 
L 412.091379 112.823437 
L 418.483896 111.225308 
L 418.483896 112.557083 
L 430.9875 112.557083 
L 430.9875 113.089792 
" clip-path="url(#p3672fa7508)"/>
    <path d="M 430.9875 108.949167 
L 422.665981 108.949167 
L 422.665981 110.280942 
L 416.273464 108.682812 
L 422.665981 107.084683 
L 422.665981 108.416458 
L 430.9875 108.416458 
L 430.9875 108.949167 
" clip-path="url(#p3672fa7508)"/>
    <path d="M 430.9875 104.808542 
L 426.251104 104.808542 
L 426.251104 106.140317 
L 419.858587 104.542187 
L 426.251104 102.944058 
L 426.251104 104.275833 
L 430.9875 104.275833 
L 430.9875 104.808542 
" clip-path="url(#p3672fa7508)"/>
    <path d="M 430.9875 100.667917 
L 429.380544 100.667917 
L 429.380544 101.999692 
L 422.988027 100.401562 
L 429.380544 98.803433 
L 429.380544 100.135208 
L 430.9875 100.135208 
L 430.9875 100.667917 
" clip-path="url(#p3672fa7508)"/>
    <path d="M 430.9875 96.476784 
L 430.9875 96.476784 
L 430.9875 97.556017 
L 425.807184 96.260937 
L 430.9875 94.965858 
L 430.9875 96.045091 
L 430.9875 96.045091 
L 430.9875 96.476784 
" clip-path="url(#p3672fa7508)"/>
    <path d="M 430.9875 92.225609 
L 430.9875 92.225609 
L 430.9875 92.752093 
L 428.460378 92.120312 
L 430.9875 91.488532 
L 430.9875 92.015016 
L 430.9875 92.015016 
L 430.9875 92.225609 
" clip-path="url(#p3672fa7508)"/>
    <path d="M 431.253855 87.979687 
L 431.120677 87.749017 
L 430.854323 87.749017 
L 430.721145 87.979687 
L 430.854323 88.210358 
L 431.120677 88.210358 
L 431.253855 87.979687 
L 431.120677 87.749017 
" clip-path="url(#p3672fa7508)"/>
    <path d="M 430.9875 83.720332 
L 430.9875 83.720332 
L 430.9875 83.126681 
L 433.837024 83.839062 
L 430.9875 84.551444 
L 430.9875 83.957793 
L 430.9875 83.957793 
L 430.9875 83.720332 
" clip-path="url(#p3672fa7508)"/>
    <path d="M 430.9875 79.454455 
L 430.9875 79.454455 
L 430.9875 78.234542 
L 436.843082 79.698437 
L 430.9875 81.162333 
L 430.9875 79.94242 
L 430.9875 79.94242 
L 430.9875 79.454455 
" clip-path="url(#p3672fa7508)"/>
    <path d="M 430.9875 75.291458 
L 433.856335 75.291458 
L 433.856335 73.959683 
L 440.248852 75.557812 
L 433.856335 77.155942 
L 433.856335 75.824167 
L 430.9875 75.824167 
L 430.9875 75.291458 
" clip-path="url(#p3672fa7508)"/>
    <path d="M 430.9875 71.150833 
L 437.799393 71.150833 
L 437.799393 69.819058 
L 444.19191 71.417187 
L 437.799393 73.015317 
L 437.799393 71.683542 
L 430.9875 71.683542 
L 430.9875 71.150833 
" clip-path="url(#p3672fa7508)"/>
    <path d="M 430.9875 67.010208 
L 442.408767 67.010208 
L 442.408767 65.678433 
L 448.801284 67.276563 
L 442.408767 68.874692 
L 442.408767 67.542917 
L 430.9875 67.542917 
L 430.9875 67.010208 
" clip-path="url(#p3672fa7508)"/>
    <path d="M 430.9875 62.869583 
L 447.800033 62.869583 
L 447.800033 61.537808 
L 454.19255 63.135938 
L 447.800033 64.734067 
L 447.800033 63.402292 
L 430.9875 63.402292 
L 430.9875 62.869583 
" clip-path="url(#p3672fa7508)"/>
    <path d="M 430.9875 58.728958 
L 454.075054 58.728958 
L 454.075054 57.397183 
L 460.467571 58.995313 
L 454.075054 60.593442 
L 454.075054 59.261667 
L 430.9875 59.261667 
L 430.9875 58.728958 
" clip-path="url(#p3672fa7508)"/>
    <path d="M 430.9875 54.588333 
L 461.34017 54.588333 
L 461.34017 53.256558 
L 467.732687 54.854688 
L 461.34017 56.452817 
L 461.34017 55.121042 
L 430.9875 55.121042 
L 430.9875 54.588333 
" clip-path="url(#p3672fa7508)"/>
    <path d="M 430.9875 50.447708 
L 469.801965 50.447708 
L 469.801965 49.115933 
L 476.194482 50.714063 
L 469.801965 52.312192 
L 469.801965 50.980417 
L 430.9875 50.980417 
L 430.9875 50.447708 
" clip-path="url(#p3672fa7508)"/>
    <path d="M 430.9875 46.307083 
L 479.566867 46.307083 
L 479.566867 44.975308 
L 485.959385 46.573438 
L 479.566867 48.171567 
L 479.566867 46.839792 
L 430.9875 46.839792 
L 430.9875 46.307083 
" clip-path="url(#p3672fa7508)"/>
    <path d="M 430.9875 42.166458 
L 490.706494 42.166458 
L 490.706494 40.834683 
L 497.099011 42.432813 
L 490.706494 44.030942 
L 490.706494 42.699167 
L 430.9875 42.699167 
L 430.9875 42.166458 
" clip-path="url(#p3672fa7508)"/>
    <path d="M 430.9875 38.025833 
L 503.288067 38.025833 
L 503.288067 36.694058 
L 509.680584 38.292188 
L 503.288067 39.890317 
L 503.288067 38.558542 
L 430.9875 38.558542 
L 430.9875 38.025833 
" clip-path="url(#p3672fa7508)"/>
    <path d="M 430.9875 33.885208 
L 517.349307 33.885208 
L 517.349307 32.553433 
L 523.741824 34.151563 
L 517.349307 35.749692 
L 517.349307 34.417917 
L 430.9875 34.417917 
L 430.9875 33.885208 
" clip-path="url(#p3672fa7508)"/>
    <path d="M 430.9875 29.744583 
L 532.880726 29.744583 
L 532.880726 28.412808 
L 539.273243 30.010938 
L 532.880726 31.609067 
L 532.880726 30.277292 
L 430.9875 30.277292 
L 430.9875 29.744583 
" clip-path="url(#p3672fa7508)"/>
    <path d="M 430.9875 25.603958 
L 549.885254 25.603958 
L 549.885254 24.272183 
L 556.277772 25.870313 
L 549.885254 27.468442 
L 549.885254 26.136667 
L 430.9875 26.136667 
L 430.9875 25.603958 
" clip-path="url(#p3672fa7508)"/>
   </g>
   <g id="matplotlib.axis_3">
    <g id="xtick_8">
     <g id="line2d_21">
      <g>
       <use xlink:href="#maf234b61de" x="306.133651" y="156.3" style="stroke: #000000; stroke-width: 0.8"/>
      </g>
     </g>
     <g id="line2d_22">
      <g>
       <use xlink:href="#m9be1ff38c2" x="306.133651" y="23.8" style="stroke: #000000; stroke-width: 0.8"/>
      </g>
     </g>
     <g id="text_11">
      <!-- −0.75 -->
      <g transform="translate(293.875526 165.87875)scale(0.08 -0.08)">
       <use xlink:href="#DejaVuSans-2212"/>
       <use xlink:href="#DejaVuSans-30" x="83.789062"/>
       <use xlink:href="#DejaVuSans-2e" x="147.412109"/>
       <use xlink:href="#DejaVuSans-37" x="179.199219"/>
       <use xlink:href="#DejaVuSans-35" x="242.822266"/>
      </g>
     </g>
    </g>
    <g id="xtick_9">
     <g id="line2d_23">
      <g>
       <use xlink:href="#maf234b61de" x="347.751601" y="156.3" style="stroke: #000000; stroke-width: 0.8"/>
      </g>
     </g>
     <g id="line2d_24">
      <g>
       <use xlink:href="#m9be1ff38c2" x="347.751601" y="23.8" style="stroke: #000000; stroke-width: 0.8"/>
      </g>
     </g>
     <g id="text_12">
      <!-- −0.50 -->
      <g transform="translate(335.493476 165.87875)scale(0.08 -0.08)">
       <use xlink:href="#DejaVuSans-2212"/>
       <use xlink:href="#DejaVuSans-30" x="83.789062"/>
       <use xlink:href="#DejaVuSans-2e" x="147.412109"/>
       <use xlink:href="#DejaVuSans-35" x="179.199219"/>
       <use xlink:href="#DejaVuSans-30" x="242.822266"/>
      </g>
     </g>
    </g>
    <g id="xtick_10">
     <g id="line2d_25">
      <g>
       <use xlink:href="#maf234b61de" x="389.36955" y="156.3" style="stroke: #000000; stroke-width: 0.8"/>
      </g>
     </g>
     <g id="line2d_26">
      <g>
       <use xlink:href="#m9be1ff38c2" x="389.36955" y="23.8" style="stroke: #000000; stroke-width: 0.8"/>
      </g>
     </g>
     <g id="text_13">
      <!-- −0.25 -->
      <g transform="translate(377.111425 165.87875)scale(0.08 -0.08)">
       <use xlink:href="#DejaVuSans-2212"/>
       <use xlink:href="#DejaVuSans-30" x="83.789062"/>
       <use xlink:href="#DejaVuSans-2e" x="147.412109"/>
       <use xlink:href="#DejaVuSans-32" x="179.199219"/>
       <use xlink:href="#DejaVuSans-35" x="242.822266"/>
      </g>
     </g>
    </g>
    <g id="xtick_11">
     <g id="line2d_27">
      <g>
       <use xlink:href="#maf234b61de" x="430.9875" y="156.3" style="stroke: #000000; stroke-width: 0.8"/>
      </g>
     </g>
     <g id="line2d_28">
      <g>
       <use xlink:href="#m9be1ff38c2" x="430.9875" y="23.8" style="stroke: #000000; stroke-width: 0.8"/>
      </g>
     </g>
     <g id="text_14">
      <!-- 0.00 -->
      <g transform="translate(422.08125 165.87875)scale(0.08 -0.08)">
       <use xlink:href="#DejaVuSans-30"/>
       <use xlink:href="#DejaVuSans-2e" x="63.623047"/>
       <use xlink:href="#DejaVuSans-30" x="95.410156"/>
       <use xlink:href="#DejaVuSans-30" x="159.033203"/>
      </g>
     </g>
    </g>
    <g id="xtick_12">
     <g id="line2d_29">
      <g>
       <use xlink:href="#maf234b61de" x="472.60545" y="156.3" style="stroke: #000000; stroke-width: 0.8"/>
      </g>
     </g>
     <g id="line2d_30">
      <g>
       <use xlink:href="#m9be1ff38c2" x="472.60545" y="23.8" style="stroke: #000000; stroke-width: 0.8"/>
      </g>
     </g>
     <g id="text_15">
      <!-- 0.25 -->
      <g transform="translate(463.6992 165.87875)scale(0.08 -0.08)">
       <use xlink:href="#DejaVuSans-30"/>
       <use xlink:href="#DejaVuSans-2e" x="63.623047"/>
       <use xlink:href="#DejaVuSans-32" x="95.410156"/>
       <use xlink:href="#DejaVuSans-35" x="159.033203"/>
      </g>
     </g>
    </g>
    <g id="xtick_13">
     <g id="line2d_31">
      <g>
       <use xlink:href="#maf234b61de" x="514.223399" y="156.3" style="stroke: #000000; stroke-width: 0.8"/>
      </g>
     </g>
     <g id="line2d_32">
      <g>
       <use xlink:href="#m9be1ff38c2" x="514.223399" y="23.8" style="stroke: #000000; stroke-width: 0.8"/>
      </g>
     </g>
     <g id="text_16">
      <!-- 0.50 -->
      <g transform="translate(505.317149 165.87875)scale(0.08 -0.08)">
       <use xlink:href="#DejaVuSans-30"/>
       <use xlink:href="#DejaVuSans-2e" x="63.623047"/>
       <use xlink:href="#DejaVuSans-35" x="95.410156"/>
       <use xlink:href="#DejaVuSans-30" x="159.033203"/>
      </g>
     </g>
    </g>
    <g id="xtick_14">
     <g id="line2d_33">
      <g>
       <use xlink:href="#maf234b61de" x="555.841349" y="156.3" style="stroke: #000000; stroke-width: 0.8"/>
      </g>
     </g>
     <g id="line2d_34">
      <g>
       <use xlink:href="#m9be1ff38c2" x="555.841349" y="23.8" style="stroke: #000000; stroke-width: 0.8"/>
      </g>
     </g>
     <g id="text_17">
      <!-- 0.75 -->
      <g transform="translate(546.935099 165.87875)scale(0.08 -0.08)">
       <use xlink:href="#DejaVuSans-30"/>
       <use xlink:href="#DejaVuSans-2e" x="63.623047"/>
       <use xlink:href="#DejaVuSans-37" x="95.410156"/>
       <use xlink:href="#DejaVuSans-35" x="159.033203"/>
      </g>
     </g>
    </g>
    <g id="text_18">
     <!-- $u_y(x, y = L_y)/U_y$ -->
     <g transform="translate(394.5375 179.1425)scale(0.1 -0.1)">
      <use xlink:href="#DejaVuSans-Oblique-75" transform="translate(0 0.125)"/>
      <use xlink:href="#DejaVuSans-Oblique-79" transform="translate(63.378906 -16.28125)scale(0.7)"/>
      <use xlink:href="#DejaVuSans-28" transform="translate(107.539062 0.125)"/>
      <use xlink:href="#DejaVuSans-Oblique-78" transform="translate(146.552734 0.125)"/>
      <use xlink:href="#DejaVuSans-2c" transform="translate(205.732422 0.125)"/>
      <use xlink:href="#DejaVuSans-Oblique-79" transform="translate(257.001953 0.125)"/>
      <use xlink:href="#DejaVuSans-3d" transform="translate(335.664062 0.125)"/>
      <use xlink:href="#DejaVuSans-Oblique-4c" transform="translate(438.935547 0.125)"/>
      <use xlink:href="#DejaVuSans-Oblique-79" transform="translate(494.648438 -16.28125)scale(0.7)"/>
      <use xlink:href="#DejaVuSans-29" transform="translate(538.808594 0.125)"/>
      <use xlink:href="#DejaVuSans-2f" transform="translate(577.822266 0.125)"/>
      <use xlink:href="#DejaVuSans-Oblique-55" transform="translate(611.513672 0.125)"/>
      <use xlink:href="#DejaVuSans-Oblique-79" transform="translate(684.707031 -16.28125)scale(0.7)"/>
     </g>
    </g>
   </g>
   <g id="matplotlib.axis_4">
    <g id="ytick_3">
     <g id="line2d_35">
      <path d="M 297.810061 123.175 
L 564.164939 123.175 
" clip-path="url(#p3672fa7508)" style="fill: none; stroke: #000000; stroke-linecap: square"/>
     </g>
     <g id="line2d_36">
      <g>
       <use xlink:href="#m08fd6eb62a" x="297.810061" y="123.175" style="stroke: #000000; stroke-width: 0.8"/>
      </g>
     </g>
     <g id="line2d_37">
      <g>
       <use xlink:href="#m2ed8a6a53a" x="564.164939" y="123.175" style="stroke: #000000; stroke-width: 0.8"/>
      </g>
     </g>
    </g>
    <g id="ytick_4">
     <g id="line2d_38">
      <path d="M 297.810061 56.925 
L 564.164939 56.925 
" clip-path="url(#p3672fa7508)" style="fill: none; stroke: #000000; stroke-linecap: square"/>
     </g>
     <g id="line2d_39">
      <g>
       <use xlink:href="#m08fd6eb62a" x="297.810061" y="56.925" style="stroke: #000000; stroke-width: 0.8"/>
      </g>
     </g>
     <g id="line2d_40">
      <g>
       <use xlink:href="#m2ed8a6a53a" x="564.164939" y="56.925" style="stroke: #000000; stroke-width: 0.8"/>
      </g>
     </g>
    </g>
   </g>
   <g id="patch_9">
    <path d="M 297.810061 156.3 
L 297.810061 23.8 
" style="fill: none; stroke: #000000; stroke-width: 0.8; stroke-linejoin: miter; stroke-linecap: square"/>
   </g>
   <g id="patch_10">
    <path d="M 564.164939 156.3 
L 564.164939 23.8 
" style="fill: none; stroke: #000000; stroke-width: 0.8; stroke-linejoin: miter; stroke-linecap: square"/>
   </g>
   <g id="patch_11">
    <path d="M 297.810061 156.3 
L 564.164939 156.3 
" style="fill: none; stroke: #000000; stroke-width: 0.8; stroke-linejoin: miter; stroke-linecap: square"/>
   </g>
   <g id="patch_12">
    <path d="M 297.810061 23.8 
L 564.164939 23.8 
" style="fill: none; stroke: #000000; stroke-width: 0.8; stroke-linejoin: miter; stroke-linecap: square"/>
   </g>
   <g id="text_19">
    <!-- Timestep = 3200; Flow direction (unrolled) -->
    <g transform="translate(297.810061 17.8)scale(0.09 -0.09)">
     <defs>
      <path id="DejaVuSans-75" d="M 544 1381 
L 544 3500 
L 1119 3500 
L 1119 1403 
Q 1119 906 1312 657 
Q 1506 409 1894 409 
Q 2359 409 2629 706 
Q 2900 1003 2900 1516 
L 2900 3500 
L 3475 3500 
L 3475 0 
L 2900 0 
L 2900 538 
Q 2691 219 2414 64 
Q 2138 -91 1772 -91 
Q 1169 -91 856 284 
Q 544 659 544 1381 
z
M 1991 3584 
L 1991 3584 
z
" transform="scale(0.015625)"/>
     </defs>
     <use xlink:href="#DejaVuSans-54"/>
     <use xlink:href="#DejaVuSans-69" x="57.958984"/>
     <use xlink:href="#DejaVuSans-6d" x="85.742188"/>
     <use xlink:href="#DejaVuSans-65" x="183.154297"/>
     <use xlink:href="#DejaVuSans-73" x="244.677734"/>
     <use xlink:href="#DejaVuSans-74" x="296.777344"/>
     <use xlink:href="#DejaVuSans-65" x="335.986328"/>
     <use xlink:href="#DejaVuSans-70" x="397.509766"/>
     <use xlink:href="#DejaVuSans-20" x="460.986328"/>
     <use xlink:href="#DejaVuSans-3d" x="492.773438"/>
     <use xlink:href="#DejaVuSans-20" x="576.5625"/>
     <use xlink:href="#DejaVuSans-33" x="608.349609"/>
     <use xlink:href="#DejaVuSans-32" x="671.972656"/>
     <use xlink:href="#DejaVuSans-30" x="735.595703"/>
     <use xlink:href="#DejaVuSans-30" x="799.21875"/>
     <use xlink:href="#DejaVuSans-3b" x="862.841797"/>
     <use xlink:href="#DejaVuSans-20" x="896.533203"/>
     <use xlink:href="#DejaVuSans-46" x="928.320312"/>
     <use xlink:href="#DejaVuSans-6c" x="985.839844"/>
     <use xlink:href="#DejaVuSans-6f" x="1013.623047"/>
     <use xlink:href="#DejaVuSans-77" x="1074.804688"/>
     <use xlink:href="#DejaVuSans-20" x="1156.591797"/>
     <use xlink:href="#DejaVuSans-64" x="1188.378906"/>
     <use xlink:href="#DejaVuSans-69" x="1251.855469"/>
     <use xlink:href="#DejaVuSans-72" x="1279.638672"/>
     <use xlink:href="#DejaVuSans-65" x="1318.501953"/>
     <use xlink:href="#DejaVuSans-63" x="1380.025391"/>
     <use xlink:href="#DejaVuSans-74" x="1435.005859"/>
     <use xlink:href="#DejaVuSans-69" x="1474.214844"/>
     <use xlink:href="#DejaVuSans-6f" x="1501.998047"/>
     <use xlink:href="#DejaVuSans-6e" x="1563.179688"/>
     <use xlink:href="#DejaVuSans-20" x="1626.558594"/>
     <use xlink:href="#DejaVuSans-28" x="1658.345703"/>
     <use xlink:href="#DejaVuSans-75" x="1697.359375"/>
     <use xlink:href="#DejaVuSans-6e" x="1760.738281"/>
     <use xlink:href="#DejaVuSans-72" x="1824.117188"/>
     <use xlink:href="#DejaVuSans-6f" x="1862.980469"/>
     <use xlink:href="#DejaVuSans-6c" x="1924.162109"/>
     <use xlink:href="#DejaVuSans-6c" x="1951.945312"/>
     <use xlink:href="#DejaVuSans-65" x="1979.728516"/>
     <use xlink:href="#DejaVuSans-64" x="2041.251953"/>
     <use xlink:href="#DejaVuSans-29" x="2104.728516"/>
    </g>
   </g>
  </g>
 </g>
 <defs>
  <clipPath id="p6ce6e56644">
   <rect x="15.210061" y="23.8" width="266.354878" height="132.5"/>
  </clipPath>
  <clipPath id="p3672fa7508">
   <rect x="297.810061" y="23.8" width="266.354878" height="132.5"/>
  </clipPath>
 </defs>
</svg>
