<?xml version="1.0" encoding="utf-8" standalone="no"?>
<!DOCTYPE svg PUBLIC "-//W3C//DTD SVG 1.1//EN"
  "http://www.w3.org/Graphics/SVG/1.1/DTD/svg11.dtd">
<svg xmlns:xlink="http://www.w3.org/1999/xlink" width="432pt" height="288pt" viewBox="0 0 432 288" xmlns="http://www.w3.org/2000/svg" version="1.1">
 <metadata>
  <rdf:RDF xmlns:dc="http://purl.org/dc/elements/1.1/" xmlns:cc="http://creativecommons.org/ns#" xmlns:rdf="http://www.w3.org/1999/02/22-rdf-syntax-ns#">
   <cc:Work>
    <dc:type rdf:resource="http://purl.org/dc/dcmitype/StillImage"/>
    <dc:date>2023-06-30T17:07:56.420578</dc:date>
    <dc:format>image/svg+xml</dc:format>
    <dc:creator>
     <cc:Agent>
      <dc:title>Matplotlib v3.5.1, https://matplotlib.org/</dc:title>
     </cc:Agent>
    </dc:creator>
   </cc:Work>
  </rdf:RDF>
 </metadata>
 <defs>
  <style type="text/css">*{stroke-linejoin: round; stroke-linecap: butt}</style>
 </defs>
 <g id="figure_1">
  <g id="patch_1">
   <path d="M 0 288 
L 432 288 
L 432 0 
L 0 0 
L 0 288 
z
" style="fill: none"/>
  </g>
  <g id="axes_1">
   <g id="patch_2">
    <path d="M 54 252 
L 388.8 252 
L 388.8 34.56 
L 54 34.56 
z
" style="fill: #ffffff"/>
   </g>
   <g id="matplotlib.axis_1">
    <g id="xtick_1">
     <g id="line2d_1">
      <defs>
       <path id="mf5145534dc" d="M 0 0 
L 0 -3.5 
" style="stroke: #000000; stroke-width: 0.8"/>
      </defs>
      <g>
       <use xlink:href="#mf5145534dc" x="97.658718" y="252" style="stroke: #000000; stroke-width: 0.8"/>
      </g>
     </g>
     <g id="line2d_2">
      <defs>
       <path id="mf9e6627fa7" d="M 0 0 
L 0 3.5 
" style="stroke: #000000; stroke-width: 0.8"/>
      </defs>
      <g>
       <use xlink:href="#mf9e6627fa7" x="97.658718" y="34.56" style="stroke: #000000; stroke-width: 0.8"/>
      </g>
     </g>
     <g id="text_1">
      <!-- $\mathdefault{−0.4}$ -->
      <g transform="translate(85.530653 263.80218)scale(0.12 -0.12)">
       <defs>
        <path id="CMSY10-0" d="M 4218 1472 
C 4326 1472 4442 1472 4442 1600 
C 4442 1728 4326 1728 4218 1728 
L 755 1728 
C 646 1728 531 1728 531 1600 
C 531 1472 646 1472 755 1472 
L 4218 1472 
z
" transform="scale(0.015625)"/>
        <path id="CMR17-30" d="M 2688 2038 
C 2688 2430 2682 3099 2413 3613 
C 2176 4063 1798 4224 1466 4224 
C 1158 4224 768 4082 525 3620 
C 269 3137 243 2539 243 2038 
C 243 1671 250 1112 448 623 
C 723 -39 1216 -128 1466 -128 
C 1760 -128 2208 -7 2470 604 
C 2662 1048 2688 1568 2688 2038 
z
M 1466 -26 
C 1056 -26 813 328 723 816 
C 653 1196 653 1749 653 2109 
C 653 2604 653 3015 736 3407 
C 858 3954 1216 4121 1466 4121 
C 1728 4121 2067 3947 2189 3420 
C 2272 3054 2278 2623 2278 2109 
C 2278 1691 2278 1176 2202 797 
C 2067 96 1690 -26 1466 -26 
z
" transform="scale(0.015625)"/>
        <path id="CMMI12-3a" d="M 1178 307 
C 1178 492 1024 620 870 620 
C 685 620 557 467 557 313 
C 557 128 710 0 864 0 
C 1050 0 1178 153 1178 307 
z
" transform="scale(0.015625)"/>
        <path id="CMR17-34" d="M 2150 4147 
C 2150 4281 2144 4288 2029 4288 
L 128 1254 
L 128 1088 
L 1779 1088 
L 1779 460 
C 1779 230 1766 166 1318 166 
L 1197 166 
L 1197 0 
C 1402 12 1747 12 1965 12 
C 2182 12 2528 12 2733 0 
L 2733 166 
L 2611 166 
C 2163 166 2150 230 2150 460 
L 2150 1088 
L 2803 1088 
L 2803 1254 
L 2150 1254 
L 2150 4147 
z
M 1798 3723 
L 1798 1254 
L 256 1254 
L 1798 3723 
z
" transform="scale(0.015625)"/>
       </defs>
       <use xlink:href="#CMSY10-0" transform="scale(0.996264)"/>
       <use xlink:href="#CMR17-30" transform="translate(77.487468 0)scale(0.996264)"/>
       <use xlink:href="#CMMI12-3a" transform="translate(123.177945 0)scale(0.996264)"/>
       <use xlink:href="#CMR17-34" transform="translate(150.275122 0)scale(0.996264)"/>
      </g>
     </g>
    </g>
    <g id="xtick_2">
     <g id="line2d_3">
      <g>
       <use xlink:href="#mf5145534dc" x="159.529359" y="252" style="stroke: #000000; stroke-width: 0.8"/>
      </g>
     </g>
     <g id="line2d_4">
      <g>
       <use xlink:href="#mf9e6627fa7" x="159.529359" y="34.56" style="stroke: #000000; stroke-width: 0.8"/>
      </g>
     </g>
     <g id="text_2">
      <!-- $\mathdefault{−0.2}$ -->
      <g transform="translate(147.401294 263.80218)scale(0.12 -0.12)">
       <defs>
        <path id="CMR17-32" d="M 2669 990 
L 2554 990 
C 2490 537 2438 460 2413 422 
C 2381 371 1920 371 1830 371 
L 602 371 
C 832 620 1280 1073 1824 1596 
C 2214 1966 2669 2400 2669 3033 
C 2669 3788 2067 4224 1395 4224 
C 691 4224 262 3603 262 3027 
C 262 2777 448 2745 525 2745 
C 589 2745 781 2783 781 3007 
C 781 3206 614 3264 525 3264 
C 486 3264 448 3257 422 3244 
C 544 3788 915 4057 1306 4057 
C 1862 4057 2227 3616 2227 3033 
C 2227 2477 1901 1998 1536 1583 
L 262 147 
L 262 0 
L 2515 0 
L 2669 990 
z
" transform="scale(0.015625)"/>
       </defs>
       <use xlink:href="#CMSY10-0" transform="scale(0.996264)"/>
       <use xlink:href="#CMR17-30" transform="translate(77.487468 0)scale(0.996264)"/>
       <use xlink:href="#CMMI12-3a" transform="translate(123.177945 0)scale(0.996264)"/>
       <use xlink:href="#CMR17-32" transform="translate(150.275122 0)scale(0.996264)"/>
      </g>
     </g>
    </g>
    <g id="xtick_3">
     <g id="line2d_5">
      <g>
       <use xlink:href="#mf5145534dc" x="221.4" y="252" style="stroke: #000000; stroke-width: 0.8"/>
      </g>
     </g>
     <g id="line2d_6">
      <g>
       <use xlink:href="#mf9e6627fa7" x="221.4" y="34.56" style="stroke: #000000; stroke-width: 0.8"/>
      </g>
     </g>
     <g id="text_3">
      <!-- $\mathdefault{0.0}$ -->
      <g transform="translate(213.921179 263.80218)scale(0.12 -0.12)">
       <use xlink:href="#CMR17-30" transform="scale(0.996264)"/>
       <use xlink:href="#CMMI12-3a" transform="translate(45.690477 0)scale(0.996264)"/>
       <use xlink:href="#CMR17-30" transform="translate(72.787654 0)scale(0.996264)"/>
      </g>
     </g>
    </g>
    <g id="xtick_4">
     <g id="line2d_7">
      <g>
       <use xlink:href="#mf5145534dc" x="283.270641" y="252" style="stroke: #000000; stroke-width: 0.8"/>
      </g>
     </g>
     <g id="line2d_8">
      <g>
       <use xlink:href="#mf9e6627fa7" x="283.270641" y="34.56" style="stroke: #000000; stroke-width: 0.8"/>
      </g>
     </g>
     <g id="text_4">
      <!-- $\mathdefault{0.2}$ -->
      <g transform="translate(275.79182 263.80218)scale(0.12 -0.12)">
       <use xlink:href="#CMR17-30" transform="scale(0.996264)"/>
       <use xlink:href="#CMMI12-3a" transform="translate(45.690477 0)scale(0.996264)"/>
       <use xlink:href="#CMR17-32" transform="translate(72.787654 0)scale(0.996264)"/>
      </g>
     </g>
    </g>
    <g id="xtick_5">
     <g id="line2d_9">
      <g>
       <use xlink:href="#mf5145534dc" x="345.141282" y="252" style="stroke: #000000; stroke-width: 0.8"/>
      </g>
     </g>
     <g id="line2d_10">
      <g>
       <use xlink:href="#mf9e6627fa7" x="345.141282" y="34.56" style="stroke: #000000; stroke-width: 0.8"/>
      </g>
     </g>
     <g id="text_5">
      <!-- $\mathdefault{0.4}$ -->
      <g transform="translate(337.662461 263.80218)scale(0.12 -0.12)">
       <use xlink:href="#CMR17-30" transform="scale(0.996264)"/>
       <use xlink:href="#CMMI12-3a" transform="translate(45.690477 0)scale(0.996264)"/>
       <use xlink:href="#CMR17-34" transform="translate(72.787654 0)scale(0.996264)"/>
      </g>
     </g>
    </g>
    <g id="text_6">
     <!-- $(x - x_c)/L_x$ -->
     <g transform="translate(181.655844 282.081944)scale(0.16 -0.16)">
      <defs>
       <path id="CMR17-28" d="M 1958 -1562 
C 1958 -1556 1958 -1543 1939 -1524 
C 1645 -1223 858 -403 858 1596 
C 858 3595 1632 4408 1946 4729 
C 1946 4735 1958 4748 1958 4767 
C 1958 4787 1939 4800 1914 4800 
C 1843 4800 1299 4325 986 3620 
C 666 2909 576 2218 576 1603 
C 576 1141 621 360 1005 -467 
C 1312 -1133 1837 -1600 1914 -1600 
C 1946 -1600 1958 -1588 1958 -1562 
z
" transform="scale(0.015625)"/>
       <path id="CMMI12-78" d="M 3034 2624 
C 2829 2585 2752 2431 2752 2310 
C 2752 2156 2874 2105 2963 2105 
C 3155 2105 3290 2271 3290 2444 
C 3290 2694 2982 2816 2714 2816 
C 2323 2816 2106 2451 2048 2329 
C 1901 2790 1504 2816 1389 2816 
C 736 2816 390 1993 390 1849 
C 390 1823 416 1790 461 1790 
C 512 1790 525 1829 538 1855 
C 755 2572 1184 2687 1370 2687 
C 1658 2687 1715 2438 1715 2284 
C 1715 2143 1677 1993 1600 1678 
L 1382 778 
C 1286 390 1101 64 762 64 
C 730 64 570 64 435 126 
C 666 166 717 358 717 435 
C 717 563 621 640 499 640 
C 346 640 179 505 179 300 
C 179 57 480 -64 755 -64 
C 1062 -64 1280 153 1414 415 
C 1517 64 1837 -64 2074 -64 
C 2726 -64 3072 751 3072 896 
C 3072 929 3046 955 3008 955 
C 2950 955 2944 922 2925 870 
C 2752 300 2381 64 2093 64 
C 1869 64 1747 204 1747 467 
C 1747 607 1773 712 1875 1146 
L 2099 2039 
C 2195 2425 2413 2687 2707 2687 
C 2720 2687 2899 2687 3034 2624 
z
" transform="scale(0.015625)"/>
       <path id="CMMI12-63" d="M 2502 2432 
C 2381 2432 2323 2432 2234 2355 
C 2195 2323 2125 2227 2125 2124 
C 2125 1996 2221 1919 2342 1919 
C 2496 1919 2669 2047 2669 2303 
C 2669 2591 2374 2816 1933 2816 
C 1094 2816 256 1932 256 1011 
C 256 446 602 -64 1254 -64 
C 2125 -64 2675 622 2675 706 
C 2675 745 2637 777 2611 777 
C 2592 777 2586 771 2528 712 
C 2118 161 1510 64 1267 64 
C 826 64 685 453 685 777 
C 685 1004 794 1634 1024 2073 
C 1190 2374 1536 2687 1939 2687 
C 2022 2687 2374 2676 2502 2432 
z
" transform="scale(0.015625)"/>
       <path id="CMR17-29" d="M 1683 1596 
C 1683 2057 1638 2839 1254 3665 
C 947 4332 422 4800 346 4800 
C 326 4800 301 4793 301 4761 
C 301 4748 307 4742 314 4729 
C 621 4408 1402 3595 1402 1603 
C 1402 -396 627 -1210 314 -1530 
C 307 -1543 301 -1549 301 -1562 
C 301 -1594 326 -1600 346 -1600 
C 416 -1600 960 -1127 1274 -422 
C 1594 289 1683 981 1683 1596 
z
" transform="scale(0.015625)"/>
       <path id="CMMI12-3d" d="M 2746 4563 
C 2746 4569 2784 4665 2784 4678 
C 2784 4755 2720 4800 2669 4800 
C 2637 4800 2579 4800 2528 4659 
L 384 -1364 
C 384 -1370 346 -1466 346 -1479 
C 346 -1556 410 -1600 461 -1600 
C 499 -1600 557 -1594 602 -1460 
L 2746 4563 
z
" transform="scale(0.015625)"/>
       <path id="CMMI12-4c" d="M 2349 3860 
C 2406 4102 2426 4166 2989 4166 
C 3162 4166 3206 4166 3206 4287 
C 3206 4352 3136 4352 3110 4352 
C 2982 4352 2835 4339 2707 4339 
L 1850 4339 
C 1728 4339 1587 4352 1466 4352 
C 1414 4352 1344 4352 1344 4230 
C 1344 4166 1402 4166 1498 4166 
C 1888 4166 1888 4115 1888 4045 
C 1888 4032 1888 3994 1862 3898 
L 998 472 
C 941 249 928 185 480 185 
C 358 185 294 185 294 70 
C 294 0 333 0 461 0 
L 3328 0 
C 3469 0 3475 6 3520 121 
L 4013 1478 
C 4026 1510 4038 1548 4038 1567 
C 4038 1605 4006 1631 3974 1631 
C 3968 1631 3936 1631 3923 1605 
C 3910 1599 3910 1586 3859 1465 
C 3654 905 3366 185 2285 185 
L 1670 185 
C 1581 185 1568 185 1530 191 
C 1459 198 1453 211 1453 262 
C 1453 306 1466 344 1478 402 
L 2349 3860 
z
" transform="scale(0.015625)"/>
      </defs>
      <use xlink:href="#CMR17-28" transform="scale(0.996264)"/>
      <use xlink:href="#CMMI12-78" transform="translate(35.280768 0)scale(0.996264)"/>
      <use xlink:href="#CMSY10-0" transform="translate(112.854034 0)scale(0.996264)"/>
      <use xlink:href="#CMMI12-78" transform="translate(212.480709 0)scale(0.996264)"/>
      <use xlink:href="#CMMI12-63" transform="translate(267.914768 -14.943915)scale(0.697382)"/>
      <use xlink:href="#CMR17-29" transform="translate(297.801032 0)scale(0.996264)"/>
      <use xlink:href="#CMMI12-3d" transform="translate(333.0818 0)scale(0.996264)"/>
      <use xlink:href="#CMMI12-4c" transform="translate(381.856718 0)scale(0.996264)"/>
      <use xlink:href="#CMMI12-78" transform="translate(448.227594 -14.943915)scale(0.697382)"/>
     </g>
    </g>
   </g>
   <g id="matplotlib.axis_2">
    <g id="ytick_1">
     <g id="line2d_11">
      <defs>
       <path id="m75f168b023" d="M 0 0 
L 3.5 0 
" style="stroke: #000000; stroke-width: 0.8"/>
      </defs>
      <g>
       <use xlink:href="#m75f168b023" x="54" y="211.362095" style="stroke: #000000; stroke-width: 0.8"/>
      </g>
     </g>
     <g id="line2d_12">
      <defs>
       <path id="m2f8cf1e3fc" d="M 0 0 
L -3.5 0 
" style="stroke: #000000; stroke-width: 0.8"/>
      </defs>
      <g>
       <use xlink:href="#m2f8cf1e3fc" x="388.8" y="211.362095" style="stroke: #000000; stroke-width: 0.8"/>
      </g>
     </g>
     <g id="text_7">
      <!-- $\mathdefault{0.2}$ -->
      <g transform="translate(35.542358 215.513185)scale(0.12 -0.12)">
       <use xlink:href="#CMR17-30" transform="scale(0.996264)"/>
       <use xlink:href="#CMMI12-3a" transform="translate(45.690477 0)scale(0.996264)"/>
       <use xlink:href="#CMR17-32" transform="translate(72.787654 0)scale(0.996264)"/>
      </g>
     </g>
    </g>
    <g id="ytick_2">
     <g id="line2d_13">
      <g>
       <use xlink:href="#m75f168b023" x="54" y="169.734879" style="stroke: #000000; stroke-width: 0.8"/>
      </g>
     </g>
     <g id="line2d_14">
      <g>
       <use xlink:href="#m2f8cf1e3fc" x="388.8" y="169.734879" style="stroke: #000000; stroke-width: 0.8"/>
      </g>
     </g>
     <g id="text_8">
      <!-- $\mathdefault{0.4}$ -->
      <g transform="translate(35.542358 173.885968)scale(0.12 -0.12)">
       <use xlink:href="#CMR17-30" transform="scale(0.996264)"/>
       <use xlink:href="#CMMI12-3a" transform="translate(45.690477 0)scale(0.996264)"/>
       <use xlink:href="#CMR17-34" transform="translate(72.787654 0)scale(0.996264)"/>
      </g>
     </g>
    </g>
    <g id="ytick_3">
     <g id="line2d_15">
      <g>
       <use xlink:href="#m75f168b023" x="54" y="128.107662" style="stroke: #000000; stroke-width: 0.8"/>
      </g>
     </g>
     <g id="line2d_16">
      <g>
       <use xlink:href="#m2f8cf1e3fc" x="388.8" y="128.107662" style="stroke: #000000; stroke-width: 0.8"/>
      </g>
     </g>
     <g id="text_9">
      <!-- $\mathdefault{0.6}$ -->
      <g transform="translate(35.542358 132.258752)scale(0.12 -0.12)">
       <defs>
        <path id="CMR17-36" d="M 678 2198 
C 678 3712 1395 4076 1811 4076 
C 1946 4076 2272 4049 2400 3782 
C 2298 3782 2106 3782 2106 3558 
C 2106 3385 2246 3328 2336 3328 
C 2394 3328 2566 3353 2566 3571 
C 2566 3987 2246 4224 1805 4224 
C 1043 4224 243 3411 243 2011 
C 243 257 966 -128 1478 -128 
C 2099 -128 2688 431 2688 1295 
C 2688 2101 2170 2688 1517 2688 
C 1126 2688 838 2430 678 1979 
L 678 2198 
z
M 1478 25 
C 691 25 691 1212 691 1450 
C 691 1914 909 2585 1504 2585 
C 1613 2585 1926 2585 2138 2140 
C 2253 1889 2253 1624 2253 1302 
C 2253 954 2253 696 2118 438 
C 1978 173 1773 25 1478 25 
z
" transform="scale(0.015625)"/>
       </defs>
       <use xlink:href="#CMR17-30" transform="scale(0.996264)"/>
       <use xlink:href="#CMMI12-3a" transform="translate(45.690477 0)scale(0.996264)"/>
       <use xlink:href="#CMR17-36" transform="translate(72.787654 0)scale(0.996264)"/>
      </g>
     </g>
    </g>
    <g id="ytick_4">
     <g id="line2d_17">
      <g>
       <use xlink:href="#m75f168b023" x="54" y="86.480445" style="stroke: #000000; stroke-width: 0.8"/>
      </g>
     </g>
     <g id="line2d_18">
      <g>
       <use xlink:href="#m2f8cf1e3fc" x="388.8" y="86.480445" style="stroke: #000000; stroke-width: 0.8"/>
      </g>
     </g>
     <g id="text_10">
      <!-- $\mathdefault{0.8}$ -->
      <g transform="translate(35.542358 90.631535)scale(0.12 -0.12)">
       <defs>
        <path id="CMR17-38" d="M 1741 2289 
C 2144 2494 2554 2803 2554 3298 
C 2554 3884 1990 4224 1472 4224 
C 890 4224 378 3800 378 3215 
C 378 3054 416 2777 666 2533 
C 730 2469 998 2276 1171 2154 
C 883 2006 211 1652 211 945 
C 211 282 838 -128 1459 -128 
C 2144 -128 2720 366 2720 1022 
C 2720 1607 2330 1877 2074 2051 
L 1741 2289 
z
M 902 2855 
C 851 2887 595 3086 595 3388 
C 595 3781 998 4076 1459 4076 
C 1965 4076 2336 3716 2336 3298 
C 2336 2700 1670 2359 1638 2359 
C 1632 2359 1626 2359 1574 2398 
L 902 2855 
z
M 2080 1536 
C 2176 1466 2483 1253 2483 861 
C 2483 385 2010 25 1472 25 
C 890 25 448 443 448 951 
C 448 1459 838 1884 1280 2083 
L 2080 1536 
z
" transform="scale(0.015625)"/>
       </defs>
       <use xlink:href="#CMR17-30" transform="scale(0.996264)"/>
       <use xlink:href="#CMMI12-3a" transform="translate(45.690477 0)scale(0.996264)"/>
       <use xlink:href="#CMR17-38" transform="translate(72.787654 0)scale(0.996264)"/>
      </g>
     </g>
    </g>
    <g id="ytick_5">
     <g id="line2d_19">
      <g>
       <use xlink:href="#m75f168b023" x="54" y="44.853228" style="stroke: #000000; stroke-width: 0.8"/>
      </g>
     </g>
     <g id="line2d_20">
      <g>
       <use xlink:href="#m2f8cf1e3fc" x="388.8" y="44.853228" style="stroke: #000000; stroke-width: 0.8"/>
      </g>
     </g>
     <g id="text_11">
      <!-- $\mathdefault{1.0}$ -->
      <g transform="translate(35.542358 49.004318)scale(0.12 -0.12)">
       <defs>
        <path id="CMR17-31" d="M 1702 4083 
C 1702 4217 1696 4224 1606 4224 
C 1357 3927 979 3833 621 3820 
C 602 3820 570 3820 563 3808 
C 557 3795 557 3782 557 3648 
C 755 3648 1088 3686 1344 3839 
L 1344 467 
C 1344 243 1331 166 781 166 
L 589 166 
L 589 0 
C 896 6 1216 12 1523 12 
C 1830 12 2150 6 2458 0 
L 2458 166 
L 2266 166 
C 1715 166 1702 236 1702 467 
L 1702 4083 
z
" transform="scale(0.015625)"/>
       </defs>
       <use xlink:href="#CMR17-31" transform="scale(0.996264)"/>
       <use xlink:href="#CMMI12-3a" transform="translate(45.690477 0)scale(0.996264)"/>
       <use xlink:href="#CMR17-30" transform="translate(72.787654 0)scale(0.996264)"/>
      </g>
     </g>
    </g>
    <g id="text_12">
     <!-- $u_y(x) / u_y(x_c)$ -->
     <g transform="translate(26.981702 186.106758)rotate(-90)scale(0.16 -0.16)">
      <defs>
       <path id="CMMI12-75" d="M 2182 370 
C 2266 12 2573 -64 2726 -64 
C 2931 -64 3085 70 3187 287 
C 3296 517 3379 893 3379 913 
C 3379 944 3354 970 3315 970 
C 3258 970 3251 938 3226 842 
C 3110 402 2995 64 2739 64 
C 2547 64 2547 274 2547 357 
C 2547 504 2566 568 2630 836 
C 2675 1008 2720 1181 2758 1359 
L 3021 2400 
C 3066 2560 3066 2572 3066 2591 
C 3066 2687 2989 2752 2893 2752 
C 2707 2752 2662 2591 2624 2432 
C 2560 2183 2214 810 2170 587 
C 2163 587 1914 64 1446 64 
C 1114 64 1050 351 1050 587 
C 1050 951 1229 1462 1395 1890 
C 1472 2094 1504 2177 1504 2305 
C 1504 2579 1306 2816 998 2816 
C 410 2816 173 1890 173 1838 
C 173 1813 198 1781 243 1781 
C 301 1781 307 1807 333 1896 
C 486 2445 736 2687 979 2687 
C 1043 2687 1146 2681 1146 2477 
C 1146 2311 1075 2126 979 1883 
C 698 1123 666 881 666 689 
C 666 38 1158 -64 1421 -64 
C 1830 -64 2054 217 2182 370 
z
" transform="scale(0.015625)"/>
       <path id="CMMI12-79" d="M 1683 -673 
C 1510 -921 1261 -1152 947 -1152 
C 870 -1152 563 -1139 467 -826 
C 486 -833 518 -833 531 -833 
C 723 -833 851 -666 851 -519 
C 851 -372 730 -320 634 -320 
C 531 -320 307 -397 307 -711 
C 307 -1050 582 -1280 947 -1280 
C 1587 -1280 2234 -673 2413 -7 
L 3040 2483 
C 3046 2515 3059 2553 3059 2591 
C 3059 2687 2982 2752 2886 2752 
C 2829 2752 2694 2726 2643 2534 
L 2170 657 
C 2138 542 2138 530 2086 459 
C 1958 281 1747 64 1440 64 
C 1082 64 1050 415 1050 587 
C 1050 951 1222 1443 1395 1902 
C 1466 2087 1504 2177 1504 2305 
C 1504 2573 1312 2816 998 2816 
C 410 2816 173 1890 173 1838 
C 173 1813 198 1781 243 1781 
C 301 1781 307 1807 333 1896 
C 486 2432 730 2687 979 2687 
C 1037 2687 1146 2687 1146 2477 
C 1146 2311 1075 2126 979 1883 
C 666 1047 666 836 666 683 
C 666 76 1101 -64 1421 -64 
C 1606 -64 1837 -7 2061 230 
L 2067 223 
C 1971 -141 1907 -359 1683 -673 
z
" transform="scale(0.015625)"/>
      </defs>
      <use xlink:href="#CMMI12-75" transform="scale(0.996264)"/>
      <use xlink:href="#CMMI12-79" transform="translate(55.52033 -14.943915)scale(0.697382)"/>
      <use xlink:href="#CMR17-28" transform="translate(91.815436 0)scale(0.996264)"/>
      <use xlink:href="#CMMI12-78" transform="translate(127.096204 0)scale(0.996264)"/>
      <use xlink:href="#CMR17-29" transform="translate(182.530264 0)scale(0.996264)"/>
      <use xlink:href="#CMMI12-3d" transform="translate(217.811032 0)scale(0.996264)"/>
      <use xlink:href="#CMMI12-75" transform="translate(266.58595 0)scale(0.996264)"/>
      <use xlink:href="#CMMI12-79" transform="translate(322.10628 -14.943915)scale(0.697382)"/>
      <use xlink:href="#CMR17-28" transform="translate(358.401387 0)scale(0.996264)"/>
      <use xlink:href="#CMMI12-78" transform="translate(393.682154 0)scale(0.996264)"/>
      <use xlink:href="#CMMI12-63" transform="translate(449.116214 -14.943915)scale(0.697382)"/>
      <use xlink:href="#CMR17-29" transform="translate(479.002477 0)scale(0.996264)"/>
     </g>
    </g>
   </g>
   <g id="line2d_21">
    <path d="M 69.218182 241.790286 
L 74.20775 221.648717 
L 79.197317 203.968816 
L 84.186885 188.269478 
L 89.176453 174.203316 
L 94.166021 161.511383 
L 99.155589 149.995585 
L 104.145156 139.501086 
L 109.134724 129.904654 
L 114.124292 121.106696 
L 119.11386 113.025663 
L 124.103428 105.594025 
L 129.092996 98.755318 
L 134.082563 92.461937 
L 139.072131 86.673464 
L 144.061699 81.355377 
L 149.051267 76.478047 
L 154.040835 72.015947 
L 159.030402 67.947019 
L 164.01997 64.252176 
L 169.009538 60.91489 
L 173.999106 57.92086 
L 178.988674 55.257746 
L 183.978241 52.914944 
L 188.967809 50.883408 
L 193.957377 49.155499 
L 198.946945 47.724872 
L 203.936513 46.586369 
L 208.92608 45.735953 
L 213.915648 45.170643 
L 218.905216 44.888476 
L 223.894784 44.888476 
L 228.884352 45.170643 
L 233.87392 45.735953 
L 238.863487 46.586369 
L 243.853055 47.724872 
L 248.842623 49.155499 
L 253.832191 50.883408 
L 258.821759 52.914944 
L 263.811326 55.257746 
L 268.800894 57.92086 
L 273.790462 60.91489 
L 278.78003 64.252176 
L 283.769598 67.947019 
L 288.759165 72.015947 
L 293.748733 76.478047 
L 298.738301 81.355377 
L 303.727869 86.673464 
L 308.717437 92.461937 
L 313.707004 98.755318 
L 318.696572 105.594025 
L 323.68614 113.025663 
L 328.675708 121.106696 
L 333.665276 129.904654 
L 338.654844 139.501086 
L 343.644411 149.995585 
L 348.633979 161.511383 
L 353.623547 174.203316 
L 358.613115 188.269478 
L 363.602683 203.968816 
L 368.59225 221.648717 
L 373.581818 241.790286 
" clip-path="url(#p7014f4c78c)" style="fill: none; stroke-dasharray: 1.5,2.475; stroke-dashoffset: 0; stroke: #000000; stroke-width: 1.5"/>
   </g>
   <g id="line2d_22">
    <defs>
     <path id="m035f1f856b" d="M 0 3 
C 0.795609 3 1.55874 2.683901 2.12132 2.12132 
C 2.683901 1.55874 3 0.795609 3 0 
C 3 -0.795609 2.683901 -1.55874 2.12132 -2.12132 
C 1.55874 -2.683901 0.795609 -3 0 -3 
C -0.795609 -3 -1.55874 -2.683901 -2.12132 -2.12132 
C -2.683901 -1.55874 -3 -0.795609 -3 0 
C -3 0.795609 -2.683901 1.55874 -2.12132 2.12132 
C -1.55874 2.683901 -0.795609 3 0 3 
z
" style="stroke: #1f77b4"/>
    </defs>
    <g clip-path="url(#p7014f4c78c)">
     <use xlink:href="#m035f1f856b" x="69.218182" y="241.832136" style="fill-opacity: 0; stroke: #1f77b4"/>
     <use xlink:href="#m035f1f856b" x="74.20775" y="221.608072" style="fill-opacity: 0; stroke: #1f77b4"/>
     <use xlink:href="#m035f1f856b" x="79.197317" y="203.864797" style="fill-opacity: 0; stroke: #1f77b4"/>
     <use xlink:href="#m035f1f856b" x="84.186885" y="188.115254" style="fill-opacity: 0; stroke: #1f77b4"/>
     <use xlink:href="#m035f1f856b" x="89.176453" y="174.008346" style="fill-opacity: 0; stroke: #1f77b4"/>
     <use xlink:href="#m035f1f856b" x="94.166021" y="161.282697" style="fill-opacity: 0; stroke: #1f77b4"/>
     <use xlink:href="#m035f1f856b" x="99.155589" y="149.738557" style="fill-opacity: 0; stroke: #1f77b4"/>
     <use xlink:href="#m035f1f856b" x="104.145156" y="139.219923" style="fill-opacity: 0; stroke: #1f77b4"/>
     <use xlink:href="#m035f1f856b" x="109.134724" y="129.602717" style="fill-opacity: 0; stroke: #1f77b4"/>
     <use xlink:href="#m035f1f856b" x="114.124292" y="120.786718" style="fill-opacity: 0; stroke: #1f77b4"/>
     <use xlink:href="#m035f1f856b" x="119.11386" y="112.689903" style="fill-opacity: 0; stroke: #1f77b4"/>
     <use xlink:href="#m035f1f856b" x="124.103428" y="105.244373" style="fill-opacity: 0; stroke: #1f77b4"/>
     <use xlink:href="#m035f1f856b" x="129.092996" y="98.393377" style="fill-opacity: 0; stroke: #1f77b4"/>
     <use xlink:href="#m035f1f856b" x="134.082563" y="92.089086" style="fill-opacity: 0; stroke: #1f77b4"/>
     <use xlink:href="#m035f1f856b" x="139.072131" y="86.290897" style="fill-opacity: 0; stroke: #1f77b4"/>
     <use xlink:href="#m035f1f856b" x="144.061699" y="80.964141" style="fill-opacity: 0; stroke: #1f77b4"/>
     <use xlink:href="#m035f1f856b" x="149.051267" y="76.079068" style="fill-opacity: 0; stroke: #1f77b4"/>
     <use xlink:href="#m035f1f856b" x="154.040835" y="71.61005" style="fill-opacity: 0; stroke: #1f77b4"/>
     <use xlink:href="#m035f1f856b" x="159.030402" y="67.534949" style="fill-opacity: 0; stroke: #1f77b4"/>
     <use xlink:href="#m035f1f856b" x="164.01997" y="63.834607" style="fill-opacity: 0; stroke: #1f77b4"/>
     <use xlink:href="#m035f1f856b" x="169.009538" y="60.492439" style="fill-opacity: 0; stroke: #1f77b4"/>
     <use xlink:href="#m035f1f856b" x="173.999106" y="57.494096" style="fill-opacity: 0; stroke: #1f77b4"/>
     <use xlink:href="#m035f1f856b" x="178.988674" y="54.827197" style="fill-opacity: 0; stroke: #1f77b4"/>
     <use xlink:href="#m035f1f856b" x="183.978241" y="52.481105" style="fill-opacity: 0; stroke: #1f77b4"/>
     <use xlink:href="#m035f1f856b" x="188.967809" y="50.446745" style="fill-opacity: 0; stroke: #1f77b4"/>
     <use xlink:href="#m035f1f856b" x="193.957377" y="48.716457" style="fill-opacity: 0; stroke: #1f77b4"/>
     <use xlink:href="#m035f1f856b" x="198.946945" y="47.283873" style="fill-opacity: 0; stroke: #1f77b4"/>
     <use xlink:href="#m035f1f856b" x="203.936513" y="46.143823" style="fill-opacity: 0; stroke: #1f77b4"/>
     <use xlink:href="#m035f1f856b" x="208.92608" y="45.292256" style="fill-opacity: 0; stroke: #1f77b4"/>
     <use xlink:href="#m035f1f856b" x="213.915648" y="44.726183" style="fill-opacity: 0; stroke: #1f77b4"/>
     <use xlink:href="#m035f1f856b" x="218.905216" y="44.443636" style="fill-opacity: 0; stroke: #1f77b4"/>
     <use xlink:href="#m035f1f856b" x="223.894784" y="44.443636" style="fill-opacity: 0; stroke: #1f77b4"/>
     <use xlink:href="#m035f1f856b" x="228.884352" y="44.726183" style="fill-opacity: 0; stroke: #1f77b4"/>
     <use xlink:href="#m035f1f856b" x="233.87392" y="45.292256" style="fill-opacity: 0; stroke: #1f77b4"/>
     <use xlink:href="#m035f1f856b" x="238.863487" y="46.143822" style="fill-opacity: 0; stroke: #1f77b4"/>
     <use xlink:href="#m035f1f856b" x="243.853055" y="47.283873" style="fill-opacity: 0; stroke: #1f77b4"/>
     <use xlink:href="#m035f1f856b" x="248.842623" y="48.716457" style="fill-opacity: 0; stroke: #1f77b4"/>
     <use xlink:href="#m035f1f856b" x="253.832191" y="50.446745" style="fill-opacity: 0; stroke: #1f77b4"/>
     <use xlink:href="#m035f1f856b" x="258.821759" y="52.481105" style="fill-opacity: 0; stroke: #1f77b4"/>
     <use xlink:href="#m035f1f856b" x="263.811326" y="54.827197" style="fill-opacity: 0; stroke: #1f77b4"/>
     <use xlink:href="#m035f1f856b" x="268.800894" y="57.494095" style="fill-opacity: 0; stroke: #1f77b4"/>
     <use xlink:href="#m035f1f856b" x="273.790462" y="60.492438" style="fill-opacity: 0; stroke: #1f77b4"/>
     <use xlink:href="#m035f1f856b" x="278.78003" y="63.834606" style="fill-opacity: 0; stroke: #1f77b4"/>
     <use xlink:href="#m035f1f856b" x="283.769598" y="67.534948" style="fill-opacity: 0; stroke: #1f77b4"/>
     <use xlink:href="#m035f1f856b" x="288.759165" y="71.610049" style="fill-opacity: 0; stroke: #1f77b4"/>
     <use xlink:href="#m035f1f856b" x="293.748733" y="76.079067" style="fill-opacity: 0; stroke: #1f77b4"/>
     <use xlink:href="#m035f1f856b" x="298.738301" y="80.964141" style="fill-opacity: 0; stroke: #1f77b4"/>
     <use xlink:href="#m035f1f856b" x="303.727869" y="86.290897" style="fill-opacity: 0; stroke: #1f77b4"/>
     <use xlink:href="#m035f1f856b" x="308.717437" y="92.089085" style="fill-opacity: 0; stroke: #1f77b4"/>
     <use xlink:href="#m035f1f856b" x="313.707004" y="98.393377" style="fill-opacity: 0; stroke: #1f77b4"/>
     <use xlink:href="#m035f1f856b" x="318.696572" y="105.244372" style="fill-opacity: 0; stroke: #1f77b4"/>
     <use xlink:href="#m035f1f856b" x="323.68614" y="112.689902" style="fill-opacity: 0; stroke: #1f77b4"/>
     <use xlink:href="#m035f1f856b" x="328.675708" y="120.786718" style="fill-opacity: 0; stroke: #1f77b4"/>
     <use xlink:href="#m035f1f856b" x="333.665276" y="129.602716" style="fill-opacity: 0; stroke: #1f77b4"/>
     <use xlink:href="#m035f1f856b" x="338.654844" y="139.219922" style="fill-opacity: 0; stroke: #1f77b4"/>
     <use xlink:href="#m035f1f856b" x="343.644411" y="149.738557" style="fill-opacity: 0; stroke: #1f77b4"/>
     <use xlink:href="#m035f1f856b" x="348.633979" y="161.282696" style="fill-opacity: 0; stroke: #1f77b4"/>
     <use xlink:href="#m035f1f856b" x="353.623547" y="174.008345" style="fill-opacity: 0; stroke: #1f77b4"/>
     <use xlink:href="#m035f1f856b" x="358.613115" y="188.115254" style="fill-opacity: 0; stroke: #1f77b4"/>
     <use xlink:href="#m035f1f856b" x="363.602683" y="203.864797" style="fill-opacity: 0; stroke: #1f77b4"/>
     <use xlink:href="#m035f1f856b" x="368.59225" y="221.608071" style="fill-opacity: 0; stroke: #1f77b4"/>
     <use xlink:href="#m035f1f856b" x="373.581818" y="241.832135" style="fill-opacity: 0; stroke: #1f77b4"/>
    </g>
   </g>
   <g id="line2d_23">
    <defs>
     <path id="mc95d50bbcb" d="M 0 -3 
L -3 3 
L 3 3 
z
" style="stroke: #ff7f0e; stroke-linejoin: miter"/>
    </defs>
    <g clip-path="url(#p7014f4c78c)">
     <use xlink:href="#mc95d50bbcb" x="69.218182" y="242.116364" style="fill-opacity: 0; stroke: #ff7f0e; stroke-linejoin: miter"/>
     <use xlink:href="#mc95d50bbcb" x="74.20775" y="221.835474" style="fill-opacity: 0; stroke: #ff7f0e; stroke-linejoin: miter"/>
     <use xlink:href="#mc95d50bbcb" x="79.197317" y="204.053986" style="fill-opacity: 0; stroke: #ff7f0e; stroke-linejoin: miter"/>
     <use xlink:href="#mc95d50bbcb" x="84.186885" y="188.278007" style="fill-opacity: 0; stroke: #ff7f0e; stroke-linejoin: miter"/>
     <use xlink:href="#mc95d50bbcb" x="89.176453" y="174.152467" style="fill-opacity: 0; stroke: #ff7f0e; stroke-linejoin: miter"/>
     <use xlink:href="#mc95d50bbcb" x="94.166021" y="161.413549" style="fill-opacity: 0; stroke: #ff7f0e; stroke-linejoin: miter"/>
     <use xlink:href="#mc95d50bbcb" x="99.155589" y="149.859935" style="fill-opacity: 0; stroke: #ff7f0e; stroke-linejoin: miter"/>
     <use xlink:href="#mc95d50bbcb" x="104.145156" y="139.334575" style="fill-opacity: 0; stroke: #ff7f0e; stroke-linejoin: miter"/>
     <use xlink:href="#mc95d50bbcb" x="109.134724" y="129.712673" style="fill-opacity: 0; stroke: #ff7f0e; stroke-linejoin: miter"/>
     <use xlink:href="#mc95d50bbcb" x="114.124292" y="120.893497" style="fill-opacity: 0; stroke: #ff7f0e; stroke-linejoin: miter"/>
     <use xlink:href="#mc95d50bbcb" x="119.11386" y="112.794652" style="fill-opacity: 0; stroke: #ff7f0e; stroke-linejoin: miter"/>
     <use xlink:href="#mc95d50bbcb" x="124.103428" y="105.347968" style="fill-opacity: 0; stroke: #ff7f0e; stroke-linejoin: miter"/>
     <use xlink:href="#mc95d50bbcb" x="129.092996" y="98.496485" style="fill-opacity: 0; stroke: #ff7f0e; stroke-linejoin: miter"/>
     <use xlink:href="#mc95d50bbcb" x="134.082563" y="92.192214" style="fill-opacity: 0; stroke: #ff7f0e; stroke-linejoin: miter"/>
     <use xlink:href="#mc95d50bbcb" x="139.072131" y="86.394427" style="fill-opacity: 0; stroke: #ff7f0e; stroke-linejoin: miter"/>
     <use xlink:href="#mc95d50bbcb" x="144.061699" y="81.068355" style="fill-opacity: 0; stroke: #ff7f0e; stroke-linejoin: miter"/>
     <use xlink:href="#mc95d50bbcb" x="149.051267" y="76.18417" style="fill-opacity: 0; stroke: #ff7f0e; stroke-linejoin: miter"/>
     <use xlink:href="#mc95d50bbcb" x="154.040835" y="71.716178" style="fill-opacity: 0; stroke: #ff7f0e; stroke-linejoin: miter"/>
     <use xlink:href="#mc95d50bbcb" x="159.030402" y="67.642189" style="fill-opacity: 0; stroke: #ff7f0e; stroke-linejoin: miter"/>
     <use xlink:href="#mc95d50bbcb" x="164.01997" y="63.943001" style="fill-opacity: 0; stroke: #ff7f0e; stroke-linejoin: miter"/>
     <use xlink:href="#mc95d50bbcb" x="169.009538" y="60.601991" style="fill-opacity: 0; stroke: #ff7f0e; stroke-linejoin: miter"/>
     <use xlink:href="#mc95d50bbcb" x="173.999106" y="57.604782" style="fill-opacity: 0; stroke: #ff7f0e; stroke-linejoin: miter"/>
     <use xlink:href="#mc95d50bbcb" x="178.988674" y="54.938965" style="fill-opacity: 0; stroke: #ff7f0e; stroke-linejoin: miter"/>
     <use xlink:href="#mc95d50bbcb" x="183.978241" y="52.593882" style="fill-opacity: 0; stroke: #ff7f0e; stroke-linejoin: miter"/>
     <use xlink:href="#mc95d50bbcb" x="188.967809" y="50.56044" style="fill-opacity: 0; stroke: #ff7f0e; stroke-linejoin: miter"/>
     <use xlink:href="#mc95d50bbcb" x="193.957377" y="48.830965" style="fill-opacity: 0; stroke: #ff7f0e; stroke-linejoin: miter"/>
     <use xlink:href="#mc95d50bbcb" x="198.946945" y="47.399076" style="fill-opacity: 0; stroke: #ff7f0e; stroke-linejoin: miter"/>
     <use xlink:href="#mc95d50bbcb" x="203.936513" y="46.259593" style="fill-opacity: 0; stroke: #ff7f0e; stroke-linejoin: miter"/>
     <use xlink:href="#mc95d50bbcb" x="208.92608" y="45.408458" style="fill-opacity: 0; stroke: #ff7f0e; stroke-linejoin: miter"/>
     <use xlink:href="#mc95d50bbcb" x="213.915648" y="44.842677" style="fill-opacity: 0; stroke: #ff7f0e; stroke-linejoin: miter"/>
     <use xlink:href="#mc95d50bbcb" x="218.905216" y="44.560276" style="fill-opacity: 0; stroke: #ff7f0e; stroke-linejoin: miter"/>
     <use xlink:href="#mc95d50bbcb" x="223.894784" y="44.560276" style="fill-opacity: 0; stroke: #ff7f0e; stroke-linejoin: miter"/>
     <use xlink:href="#mc95d50bbcb" x="228.884352" y="44.842677" style="fill-opacity: 0; stroke: #ff7f0e; stroke-linejoin: miter"/>
     <use xlink:href="#mc95d50bbcb" x="233.87392" y="45.408458" style="fill-opacity: 0; stroke: #ff7f0e; stroke-linejoin: miter"/>
     <use xlink:href="#mc95d50bbcb" x="238.863487" y="46.259593" style="fill-opacity: 0; stroke: #ff7f0e; stroke-linejoin: miter"/>
     <use xlink:href="#mc95d50bbcb" x="243.853055" y="47.399076" style="fill-opacity: 0; stroke: #ff7f0e; stroke-linejoin: miter"/>
     <use xlink:href="#mc95d50bbcb" x="248.842623" y="48.830965" style="fill-opacity: 0; stroke: #ff7f0e; stroke-linejoin: miter"/>
     <use xlink:href="#mc95d50bbcb" x="253.832191" y="50.56044" style="fill-opacity: 0; stroke: #ff7f0e; stroke-linejoin: miter"/>
     <use xlink:href="#mc95d50bbcb" x="258.821759" y="52.593882" style="fill-opacity: 0; stroke: #ff7f0e; stroke-linejoin: miter"/>
     <use xlink:href="#mc95d50bbcb" x="263.811326" y="54.938965" style="fill-opacity: 0; stroke: #ff7f0e; stroke-linejoin: miter"/>
     <use xlink:href="#mc95d50bbcb" x="268.800894" y="57.604782" style="fill-opacity: 0; stroke: #ff7f0e; stroke-linejoin: miter"/>
     <use xlink:href="#mc95d50bbcb" x="273.790462" y="60.601991" style="fill-opacity: 0; stroke: #ff7f0e; stroke-linejoin: miter"/>
     <use xlink:href="#mc95d50bbcb" x="278.78003" y="63.943001" style="fill-opacity: 0; stroke: #ff7f0e; stroke-linejoin: miter"/>
     <use xlink:href="#mc95d50bbcb" x="283.769598" y="67.642189" style="fill-opacity: 0; stroke: #ff7f0e; stroke-linejoin: miter"/>
     <use xlink:href="#mc95d50bbcb" x="288.759165" y="71.716178" style="fill-opacity: 0; stroke: #ff7f0e; stroke-linejoin: miter"/>
     <use xlink:href="#mc95d50bbcb" x="293.748733" y="76.18417" style="fill-opacity: 0; stroke: #ff7f0e; stroke-linejoin: miter"/>
     <use xlink:href="#mc95d50bbcb" x="298.738301" y="81.068355" style="fill-opacity: 0; stroke: #ff7f0e; stroke-linejoin: miter"/>
     <use xlink:href="#mc95d50bbcb" x="303.727869" y="86.394427" style="fill-opacity: 0; stroke: #ff7f0e; stroke-linejoin: miter"/>
     <use xlink:href="#mc95d50bbcb" x="308.717437" y="92.192214" style="fill-opacity: 0; stroke: #ff7f0e; stroke-linejoin: miter"/>
     <use xlink:href="#mc95d50bbcb" x="313.707004" y="98.496485" style="fill-opacity: 0; stroke: #ff7f0e; stroke-linejoin: miter"/>
     <use xlink:href="#mc95d50bbcb" x="318.696572" y="105.347968" style="fill-opacity: 0; stroke: #ff7f0e; stroke-linejoin: miter"/>
     <use xlink:href="#mc95d50bbcb" x="323.68614" y="112.794652" style="fill-opacity: 0; stroke: #ff7f0e; stroke-linejoin: miter"/>
     <use xlink:href="#mc95d50bbcb" x="328.675708" y="120.893497" style="fill-opacity: 0; stroke: #ff7f0e; stroke-linejoin: miter"/>
     <use xlink:href="#mc95d50bbcb" x="333.665276" y="129.712673" style="fill-opacity: 0; stroke: #ff7f0e; stroke-linejoin: miter"/>
     <use xlink:href="#mc95d50bbcb" x="338.654844" y="139.334575" style="fill-opacity: 0; stroke: #ff7f0e; stroke-linejoin: miter"/>
     <use xlink:href="#mc95d50bbcb" x="343.644411" y="149.859935" style="fill-opacity: 0; stroke: #ff7f0e; stroke-linejoin: miter"/>
     <use xlink:href="#mc95d50bbcb" x="348.633979" y="161.413549" style="fill-opacity: 0; stroke: #ff7f0e; stroke-linejoin: miter"/>
     <use xlink:href="#mc95d50bbcb" x="353.623547" y="174.152467" style="fill-opacity: 0; stroke: #ff7f0e; stroke-linejoin: miter"/>
     <use xlink:href="#mc95d50bbcb" x="358.613115" y="188.278007" style="fill-opacity: 0; stroke: #ff7f0e; stroke-linejoin: miter"/>
     <use xlink:href="#mc95d50bbcb" x="363.602683" y="204.053986" style="fill-opacity: 0; stroke: #ff7f0e; stroke-linejoin: miter"/>
     <use xlink:href="#mc95d50bbcb" x="368.59225" y="221.835474" style="fill-opacity: 0; stroke: #ff7f0e; stroke-linejoin: miter"/>
     <use xlink:href="#mc95d50bbcb" x="373.581818" y="242.116364" style="fill-opacity: 0; stroke: #ff7f0e; stroke-linejoin: miter"/>
    </g>
   </g>
   <g id="patch_3">
    <path d="M 54 252 
L 54 34.56 
" style="fill: none; stroke: #000000; stroke-width: 0.8; stroke-linejoin: miter; stroke-linecap: square"/>
   </g>
   <g id="patch_4">
    <path d="M 388.8 252 
L 388.8 34.56 
" style="fill: none; stroke: #000000; stroke-width: 0.8; stroke-linejoin: miter; stroke-linecap: square"/>
   </g>
   <g id="patch_5">
    <path d="M 54 252 
L 388.8 252 
" style="fill: none; stroke: #000000; stroke-width: 0.8; stroke-linejoin: miter; stroke-linecap: square"/>
   </g>
   <g id="patch_6">
    <path d="M 54 34.56 
L 388.8 34.56 
" style="fill: none; stroke: #000000; stroke-width: 0.8; stroke-linejoin: miter; stroke-linecap: square"/>
   </g>
   <g id="text_13">
    <!-- Electro-osmotic flow -->
    <g transform="translate(54 28.56)scale(0.16 -0.16)">
     <defs>
      <path id="CMSS17-45" d="M 1958 435 
C 1446 435 1216 435 1101 428 
L 1101 2105 
L 3085 2105 
L 3085 2496 
L 1101 2496 
L 1101 3993 
L 1926 3993 
C 2003 3993 2080 3987 2157 3987 
L 3251 3987 
L 3251 4403 
L 563 4403 
L 563 0 
L 3334 0 
L 3334 441 
L 1958 435 
z
" transform="scale(0.015625)"/>
      <path id="CMSS17-6c" d="M 947 4416 
L 474 4416 
L 474 0 
L 947 0 
L 947 4416 
z
" transform="scale(0.015625)"/>
      <path id="CMSS17-65" d="M 2502 1375 
C 2502 1587 2490 2001 2285 2347 
C 2061 2713 1696 2816 1421 2816 
C 755 2816 192 2184 192 1363 
C 192 579 774 -64 1510 -64 
C 1798 -64 2150 19 2470 249 
C 2470 275 2458 414 2451 421 
C 2451 433 2432 629 2432 655 
C 2125 408 1773 326 1517 326 
C 1107 326 666 667 646 1375 
L 2502 1375 
z
M 698 1728 
C 781 2086 1062 2425 1421 2425 
C 1517 2425 1965 2412 2080 1728 
L 698 1728 
z
" transform="scale(0.015625)"/>
      <path id="CMSS17-63" d="M 2464 2540 
C 2464 2585 2170 2713 2093 2739 
C 1882 2816 1613 2816 1542 2816 
C 710 2816 211 2092 211 1363 
C 211 595 768 -64 1517 -64 
C 1946 -64 2253 76 2502 243 
L 2464 665 
C 2189 454 1869 339 1523 339 
C 1024 339 698 774 698 1369 
C 698 1830 909 2412 1549 2412 
C 1901 2412 2099 2342 2394 2143 
L 2464 2540 
z
" transform="scale(0.015625)"/>
      <path id="CMSS17-74" d="M 1069 2380 
L 1901 2380 
L 1901 2752 
L 1069 2752 
L 1069 3520 
L 614 3520 
L 614 2752 
L 109 2752 
L 109 2380 
L 602 2380 
L 602 751 
C 602 384 685 -64 1107 -64 
C 1427 -64 1722 25 2003 172 
L 1901 551 
C 1747 416 1562 339 1363 339 
C 1082 339 1069 699 1069 860 
L 1069 2380 
z
" transform="scale(0.015625)"/>
      <path id="CMSS17-72" d="M 954 1369 
C 954 1974 1395 2379 1958 2392 
L 1958 2816 
C 1549 2809 1165 2604 934 2270 
L 934 2783 
L 480 2783 
L 480 0 
L 954 0 
L 954 1369 
z
" transform="scale(0.015625)"/>
      <path id="CMSS17-6f" d="M 2829 1356 
C 2829 2175 2221 2816 1504 2816 
C 768 2816 173 2156 173 1356 
C 173 544 787 -64 1498 -64 
C 2227 -64 2829 563 2829 1356 
z
M 1504 339 
C 1050 339 659 710 659 1407 
C 659 2150 1114 2425 1498 2425 
C 1914 2425 2342 2124 2342 1407 
C 2342 684 1926 339 1504 339 
z
" transform="scale(0.015625)"/>
      <path id="CMSS17-2d" d="M 1664 1216 
L 1664 1587 
L 64 1587 
L 64 1216 
L 1664 1216 
z
" transform="scale(0.015625)"/>
      <path id="CMSS17-73" d="M 2061 2623 
C 1683 2803 1389 2816 1197 2816 
C 742 2816 198 2655 198 2009 
C 198 1363 902 1222 1094 1183 
C 1389 1126 1715 1062 1715 742 
C 1715 339 1254 339 1171 339 
C 915 339 563 409 243 639 
L 166 211 
C 531 0 883 -64 1178 -64 
C 1965 -64 2163 416 2163 780 
C 2163 1094 1984 1305 1862 1401 
C 1651 1567 1574 1587 1050 1695 
C 960 1708 646 1779 646 2067 
C 646 2431 1050 2431 1139 2431 
C 1555 2431 1811 2303 1984 2207 
L 2061 2623 
z
" transform="scale(0.015625)"/>
      <path id="CMSS17-6d" d="M 4288 1878 
C 4288 2309 4179 2816 3462 2816 
C 2982 2816 2694 2515 2566 2328 
C 2451 2668 2182 2816 1798 2816 
C 1363 2816 1088 2566 941 2386 
L 941 2783 
L 474 2783 
L 474 0 
L 960 0 
L 960 1556 
C 960 1936 1101 2425 1555 2425 
C 2138 2425 2138 2013 2138 1826 
L 2138 0 
L 2624 0 
L 2624 1556 
C 2624 1936 2765 2425 3219 2425 
C 3802 2425 3802 2013 3802 1826 
L 3802 0 
L 4288 0 
L 4288 1878 
z
" transform="scale(0.015625)"/>
      <path id="CMSS17-69" d="M 979 4224 
L 442 4224 
L 442 3686 
L 979 3686 
L 979 4224 
z
M 947 2752 
L 474 2752 
L 474 0 
L 947 0 
L 947 2752 
z
" transform="scale(0.015625)"/>
      <path id="CMSS17-d" d="M 1075 2380 
L 1773 2380 
L 1773 2752 
L 1062 2752 
L 1062 3582 
C 1062 3918 1216 4089 1421 4089 
C 1594 4089 1754 4019 1773 4007 
L 1773 4428 
C 1722 4441 1574 4480 1421 4480 
C 941 4480 602 3994 602 3379 
L 602 2752 
L 160 2752 
L 160 2380 
L 602 2380 
L 602 0 
L 1075 0 
L 1075 2380 
z
M 2733 4428 
L 2259 4428 
L 2259 0 
L 2733 0 
L 2733 4428 
z
" transform="scale(0.015625)"/>
      <path id="CMSS17-77" d="M 4013 2752 
L 3526 2752 
L 3187 1600 
C 3117 1356 2918 684 2893 371 
L 2886 371 
C 2874 563 2765 1024 2586 1632 
L 2259 2752 
L 1818 2752 
L 1498 1657 
C 1338 1100 1216 627 1203 371 
L 1197 371 
C 1171 748 909 1632 870 1772 
L 582 2752 
L 83 2752 
L 915 0 
L 1402 0 
C 1734 1100 1990 1952 2010 2380 
C 2022 2169 2131 1715 2195 1491 
L 2618 0 
L 3181 0 
L 4013 2752 
z
" transform="scale(0.015625)"/>
     </defs>
     <use xlink:href="#CMSS17-45" transform="scale(0.996264)"/>
     <use xlink:href="#CMSS17-6c" transform="translate(55.892013 0)scale(0.996264)"/>
     <use xlink:href="#CMSS17-65" transform="translate(78.072736 0)scale(0.996264)"/>
     <use xlink:href="#CMSS17-63" transform="translate(119.711558 0)scale(0.996264)"/>
     <use xlink:href="#CMSS17-74" transform="translate(161.35038 0)scale(0.996264)"/>
     <use xlink:href="#CMSS17-72" transform="translate(195.181947 0)scale(0.996264)"/>
     <use xlink:href="#CMSS17-6f" transform="translate(227.09172 0)scale(0.996264)"/>
     <use xlink:href="#CMSS17-2d" transform="translate(273.935343 0)scale(0.996264)"/>
     <use xlink:href="#CMSS17-6f" transform="translate(305.164456 0)scale(0.996264)"/>
     <use xlink:href="#CMSS17-73" transform="translate(352.008079 0)scale(0.996264)"/>
     <use xlink:href="#CMSS17-6d" transform="translate(387.921621 0)scale(0.996264)"/>
     <use xlink:href="#CMSS17-6f" transform="translate(462.150876 0)scale(0.996264)"/>
     <use xlink:href="#CMSS17-74" transform="translate(508.994499 0)scale(0.996264)"/>
     <use xlink:href="#CMSS17-69" transform="translate(542.826066 0)scale(0.996264)"/>
     <use xlink:href="#CMSS17-63" transform="translate(565.006789 0)scale(0.996264)"/>
     <use xlink:href="#CMSS17-d" transform="translate(637.874724 0)scale(0.996264)"/>
     <use xlink:href="#CMSS17-6f" transform="translate(688.001461 0)scale(0.996264)"/>
     <use xlink:href="#CMSS17-77" transform="translate(732.242631 0)scale(0.996264)"/>
    </g>
   </g>
   <g id="legend_1">
    <g id="patch_7">
     <path d="M 174.055829 245 
L 268.744171 245 
Q 271.544171 245 271.544171 242.2 
L 271.544171 185.063915 
Q 271.544171 182.263915 268.744171 182.263915 
L 174.055829 182.263915 
Q 171.255829 182.263915 171.255829 185.063915 
L 171.255829 242.2 
Q 171.255829 245 174.055829 245 
z
" style="fill: #ffffff; opacity: 0.8; stroke: #cccccc; stroke-linejoin: miter"/>
    </g>
    <g id="line2d_24">
     <path d="M 176.855829 192.763915 
L 190.855829 192.763915 
L 204.855829 192.763915 
" style="fill: none; stroke-dasharray: 1.5,2.475; stroke-dashoffset: 0; stroke: #000000; stroke-width: 1.5"/>
    </g>
    <g id="text_14">
     <!-- theory -->
     <g transform="translate(216.055829 197.663915)scale(0.14 -0.14)">
      <defs>
       <path id="CMSS17-68" d="M 2618 1878 
C 2618 2283 2522 2816 1798 2816 
C 1395 2816 1133 2617 947 2399 
L 947 4416 
L 474 4416 
L 474 0 
L 960 0 
L 960 1556 
C 960 1962 1114 2425 1549 2425 
C 2112 2425 2131 2045 2131 1826 
L 2131 0 
L 2618 0 
L 2618 1878 
z
" transform="scale(0.015625)"/>
       <path id="CMSS17-79" d="M 2675 2752 
L 2176 2752 
C 1632 1293 1446 701 1434 383 
L 1427 383 
C 1408 695 1126 1459 902 2006 
L 602 2752 
L 83 2752 
L 1216 14 
C 1146 -177 1043 -464 1011 -527 
C 870 -884 774 -884 672 -884 
C 646 -884 442 -877 211 -807 
L 250 -1229 
C 410 -1261 570 -1280 685 -1280 
C 845 -1280 1165 -1280 1459 -495 
L 2675 2752 
z
" transform="scale(0.015625)"/>
      </defs>
      <use xlink:href="#CMSS17-74" transform="scale(0.996264)"/>
      <use xlink:href="#CMSS17-68" transform="translate(33.831567 0)scale(0.996264)"/>
      <use xlink:href="#CMSS17-65" transform="translate(82.03651 0)scale(0.996264)"/>
      <use xlink:href="#CMSS17-6f" transform="translate(123.675332 0)scale(0.996264)"/>
      <use xlink:href="#CMSS17-72" transform="translate(167.916501 0)scale(0.996264)"/>
      <use xlink:href="#CMSS17-79" transform="translate(199.826274 0)scale(0.996264)"/>
     </g>
    </g>
    <g id="line2d_25">
     <g>
      <use xlink:href="#m035f1f856b" x="190.855829" y="212.275943" style="fill-opacity: 0; stroke: #1f77b4"/>
     </g>
    </g>
    <g id="text_15">
     <!-- $\eta = 0.1$ -->
     <g transform="translate(216.055829 217.175943)scale(0.14 -0.14)">
      <defs>
       <path id="CMMI12-11" d="M 3040 1768 
C 3072 1896 3091 1973 3091 2145 
C 3091 2528 2867 2816 2381 2816 
C 1811 2816 1510 2413 1395 2253 
C 1376 2617 1114 2816 832 2816 
C 646 2816 499 2726 378 2483 
C 262 2253 173 1864 173 1838 
C 173 1813 198 1781 243 1781 
C 294 1781 301 1787 339 1934 
C 435 2311 557 2687 813 2687 
C 960 2687 1011 2586 1011 2394 
C 1011 2253 947 2004 902 1807 
L 723 1117 
C 698 996 627 708 595 593 
C 550 427 480 127 480 95 
C 480 6 550 -64 646 -64 
C 723 -64 813 -26 864 70 
C 877 102 934 325 966 453 
L 1107 1028 
L 1318 1870 
C 1331 1909 1491 2228 1728 2432 
C 1894 2586 2112 2687 2362 2687 
C 2618 2687 2707 2496 2707 2241 
C 2707 2056 2682 1953 2650 1832 
L 1907 -1085 
C 1901 -1116 1888 -1154 1888 -1191 
C 1888 -1287 1965 -1351 2061 -1351 
C 2118 -1351 2253 -1325 2304 -1135 
L 3040 1768 
z
" transform="scale(0.015625)"/>
       <path id="CMR17-3d" d="M 4115 2048 
C 4211 2048 4307 2048 4307 2156 
C 4307 2272 4198 2272 4090 2272 
L 512 2272 
C 403 2272 294 2272 294 2156 
C 294 2048 390 2048 486 2048 
L 4115 2048 
z
M 4090 927 
C 4198 927 4307 927 4307 1043 
C 4307 1152 4211 1152 4115 1152 
L 486 1152 
C 390 1152 294 1152 294 1043 
C 294 927 403 927 512 927 
L 4090 927 
z
" transform="scale(0.015625)"/>
      </defs>
      <use xlink:href="#CMMI12-11" transform="scale(0.996264)"/>
      <use xlink:href="#CMR17-3d" transform="translate(79.377824 0)scale(0.996264)"/>
      <use xlink:href="#CMR17-30" transform="translate(178.766622 0)scale(0.996264)"/>
      <use xlink:href="#CMMI12-3a" transform="translate(224.457099 0)scale(0.996264)"/>
      <use xlink:href="#CMR17-31" transform="translate(251.554276 0)scale(0.996264)"/>
     </g>
    </g>
    <g id="line2d_26">
     <g>
      <use xlink:href="#mc95d50bbcb" x="190.855829" y="231.787972" style="fill-opacity: 0; stroke: #ff7f0e; stroke-linejoin: miter"/>
     </g>
    </g>
    <g id="text_16">
     <!-- $\eta = 0.01$ -->
     <g transform="translate(216.055829 236.687972)scale(0.14 -0.14)">
      <use xlink:href="#CMMI12-11" transform="scale(0.996264)"/>
      <use xlink:href="#CMR17-3d" transform="translate(79.377824 0)scale(0.996264)"/>
      <use xlink:href="#CMR17-30" transform="translate(178.766622 0)scale(0.996264)"/>
      <use xlink:href="#CMMI12-3a" transform="translate(224.457099 0)scale(0.996264)"/>
      <use xlink:href="#CMR17-30" transform="translate(251.554276 0)scale(0.996264)"/>
      <use xlink:href="#CMR17-31" transform="translate(297.244753 0)scale(0.996264)"/>
     </g>
    </g>
   </g>
  </g>
 </g>
 <defs>
  <clipPath id="p7014f4c78c">
   <rect x="54" y="34.56" width="334.8" height="217.44"/>
  </clipPath>
 </defs>
</svg>
