<?xml version="1.0" encoding="utf-8" standalone="no"?>
<!DOCTYPE svg PUBLIC "-//W3C//DTD SVG 1.1//EN"
  "http://www.w3.org/Graphics/SVG/1.1/DTD/svg11.dtd">
<svg xmlns:xlink="http://www.w3.org/1999/xlink" width="576pt" height="270pt" viewBox="0 0 576 270" xmlns="http://www.w3.org/2000/svg" version="1.1">
 <metadata>
  <rdf:RDF xmlns:dc="http://purl.org/dc/elements/1.1/" xmlns:cc="http://creativecommons.org/ns#" xmlns:rdf="http://www.w3.org/1999/02/22-rdf-syntax-ns#">
   <cc:Work>
    <dc:type rdf:resource="http://purl.org/dc/dcmitype/StillImage"/>
    <dc:date>2023-06-06T12:13:59.771364</dc:date>
    <dc:format>image/svg+xml</dc:format>
    <dc:creator>
     <cc:Agent>
      <dc:title>Matplotlib v3.5.1, https://matplotlib.org/</dc:title>
     </cc:Agent>
    </dc:creator>
   </cc:Work>
  </rdf:RDF>
 </metadata>
 <defs>
  <style type="text/css">*{stroke-linejoin: round; stroke-linecap: butt}</style>
 </defs>
 <g id="figure_1">
  <g id="patch_1">
   <path d="M 0 270 
L 576 270 
L 576 0 
L 0 0 
L 0 270 
z
" style="fill: none"/>
  </g>
  <g id="axes_1">
   <g id="patch_2">
    <path d="M 57.6 216 
L 307.668293 216 
L 307.668293 40.5 
L 57.6 40.5 
z
" style="fill: #ffffff"/>
   </g>
   <g id="matplotlib.axis_1">
    <g id="xtick_1">
     <g id="line2d_1">
      <defs>
       <path id="m3720e740ba" d="M 0 0 
L 0 -3.5 
" style="stroke: #000000; stroke-width: 0.8"/>
      </defs>
      <g>
       <use xlink:href="#m3720e740ba" x="68.966741" y="216" style="stroke: #000000; stroke-width: 0.8"/>
      </g>
     </g>
     <g id="line2d_2">
      <defs>
       <path id="m6e4015dee7" d="M 0 0 
L 0 3.5 
" style="stroke: #000000; stroke-width: 0.8"/>
      </defs>
      <g>
       <use xlink:href="#m6e4015dee7" x="68.966741" y="40.5" style="stroke: #000000; stroke-width: 0.8"/>
      </g>
     </g>
     <g id="text_1">
      <!-- $\mathdefault{0}$ -->
      <g transform="translate(66.040245 227.80218)scale(0.12 -0.12)">
       <defs>
        <path id="CMR17-30" d="M 2688 2038 
C 2688 2430 2682 3099 2413 3613 
C 2176 4063 1798 4224 1466 4224 
C 1158 4224 768 4082 525 3620 
C 269 3137 243 2539 243 2038 
C 243 1671 250 1112 448 623 
C 723 -39 1216 -128 1466 -128 
C 1760 -128 2208 -7 2470 604 
C 2662 1048 2688 1568 2688 2038 
z
M 1466 -26 
C 1056 -26 813 328 723 816 
C 653 1196 653 1749 653 2109 
C 653 2604 653 3015 736 3407 
C 858 3954 1216 4121 1466 4121 
C 1728 4121 2067 3947 2189 3420 
C 2272 3054 2278 2623 2278 2109 
C 2278 1691 2278 1176 2202 797 
C 2067 96 1690 -26 1466 -26 
z
" transform="scale(0.015625)"/>
       </defs>
       <use xlink:href="#CMR17-30" transform="scale(0.996264)"/>
      </g>
     </g>
    </g>
    <g id="xtick_2">
     <g id="line2d_3">
      <g>
       <use xlink:href="#m3720e740ba" x="121.064302" y="216" style="stroke: #000000; stroke-width: 0.8"/>
      </g>
     </g>
     <g id="line2d_4">
      <g>
       <use xlink:href="#m6e4015dee7" x="121.064302" y="40.5" style="stroke: #000000; stroke-width: 0.8"/>
      </g>
     </g>
     <g id="text_2">
      <!-- $\mathdefault{2}$ -->
      <g transform="translate(118.137806 227.80218)scale(0.12 -0.12)">
       <defs>
        <path id="CMR17-32" d="M 2669 990 
L 2554 990 
C 2490 537 2438 460 2413 422 
C 2381 371 1920 371 1830 371 
L 602 371 
C 832 620 1280 1073 1824 1596 
C 2214 1966 2669 2400 2669 3033 
C 2669 3788 2067 4224 1395 4224 
C 691 4224 262 3603 262 3027 
C 262 2777 448 2745 525 2745 
C 589 2745 781 2783 781 3007 
C 781 3206 614 3264 525 3264 
C 486 3264 448 3257 422 3244 
C 544 3788 915 4057 1306 4057 
C 1862 4057 2227 3616 2227 3033 
C 2227 2477 1901 1998 1536 1583 
L 262 147 
L 262 0 
L 2515 0 
L 2669 990 
z
" transform="scale(0.015625)"/>
       </defs>
       <use xlink:href="#CMR17-32" transform="scale(0.996264)"/>
      </g>
     </g>
    </g>
    <g id="xtick_3">
     <g id="line2d_5">
      <g>
       <use xlink:href="#m3720e740ba" x="173.161863" y="216" style="stroke: #000000; stroke-width: 0.8"/>
      </g>
     </g>
     <g id="line2d_6">
      <g>
       <use xlink:href="#m6e4015dee7" x="173.161863" y="40.5" style="stroke: #000000; stroke-width: 0.8"/>
      </g>
     </g>
     <g id="text_3">
      <!-- $\mathdefault{4}$ -->
      <g transform="translate(170.235367 227.80218)scale(0.12 -0.12)">
       <defs>
        <path id="CMR17-34" d="M 2150 4147 
C 2150 4281 2144 4288 2029 4288 
L 128 1254 
L 128 1088 
L 1779 1088 
L 1779 460 
C 1779 230 1766 166 1318 166 
L 1197 166 
L 1197 0 
C 1402 12 1747 12 1965 12 
C 2182 12 2528 12 2733 0 
L 2733 166 
L 2611 166 
C 2163 166 2150 230 2150 460 
L 2150 1088 
L 2803 1088 
L 2803 1254 
L 2150 1254 
L 2150 4147 
z
M 1798 3723 
L 1798 1254 
L 256 1254 
L 1798 3723 
z
" transform="scale(0.015625)"/>
       </defs>
       <use xlink:href="#CMR17-34" transform="scale(0.996264)"/>
      </g>
     </g>
    </g>
    <g id="xtick_4">
     <g id="line2d_7">
      <g>
       <use xlink:href="#m3720e740ba" x="225.259424" y="216" style="stroke: #000000; stroke-width: 0.8"/>
      </g>
     </g>
     <g id="line2d_8">
      <g>
       <use xlink:href="#m6e4015dee7" x="225.259424" y="40.5" style="stroke: #000000; stroke-width: 0.8"/>
      </g>
     </g>
     <g id="text_4">
      <!-- $\mathdefault{6}$ -->
      <g transform="translate(222.332928 227.80218)scale(0.12 -0.12)">
       <defs>
        <path id="CMR17-36" d="M 678 2198 
C 678 3712 1395 4076 1811 4076 
C 1946 4076 2272 4049 2400 3782 
C 2298 3782 2106 3782 2106 3558 
C 2106 3385 2246 3328 2336 3328 
C 2394 3328 2566 3353 2566 3571 
C 2566 3987 2246 4224 1805 4224 
C 1043 4224 243 3411 243 2011 
C 243 257 966 -128 1478 -128 
C 2099 -128 2688 431 2688 1295 
C 2688 2101 2170 2688 1517 2688 
C 1126 2688 838 2430 678 1979 
L 678 2198 
z
M 1478 25 
C 691 25 691 1212 691 1450 
C 691 1914 909 2585 1504 2585 
C 1613 2585 1926 2585 2138 2140 
C 2253 1889 2253 1624 2253 1302 
C 2253 954 2253 696 2118 438 
C 1978 173 1773 25 1478 25 
z
" transform="scale(0.015625)"/>
       </defs>
       <use xlink:href="#CMR17-36" transform="scale(0.996264)"/>
      </g>
     </g>
    </g>
    <g id="xtick_5">
     <g id="line2d_9">
      <g>
       <use xlink:href="#m3720e740ba" x="277.356984" y="216" style="stroke: #000000; stroke-width: 0.8"/>
      </g>
     </g>
     <g id="line2d_10">
      <g>
       <use xlink:href="#m6e4015dee7" x="277.356984" y="40.5" style="stroke: #000000; stroke-width: 0.8"/>
      </g>
     </g>
     <g id="text_5">
      <!-- $\mathdefault{8}$ -->
      <g transform="translate(274.430489 227.80218)scale(0.12 -0.12)">
       <defs>
        <path id="CMR17-38" d="M 1741 2289 
C 2144 2494 2554 2803 2554 3298 
C 2554 3884 1990 4224 1472 4224 
C 890 4224 378 3800 378 3215 
C 378 3054 416 2777 666 2533 
C 730 2469 998 2276 1171 2154 
C 883 2006 211 1652 211 945 
C 211 282 838 -128 1459 -128 
C 2144 -128 2720 366 2720 1022 
C 2720 1607 2330 1877 2074 2051 
L 1741 2289 
z
M 902 2855 
C 851 2887 595 3086 595 3388 
C 595 3781 998 4076 1459 4076 
C 1965 4076 2336 3716 2336 3298 
C 2336 2700 1670 2359 1638 2359 
C 1632 2359 1626 2359 1574 2398 
L 902 2855 
z
M 2080 1536 
C 2176 1466 2483 1253 2483 861 
C 2483 385 2010 25 1472 25 
C 890 25 448 443 448 951 
C 448 1459 838 1884 1280 2083 
L 2080 1536 
z
" transform="scale(0.015625)"/>
       </defs>
       <use xlink:href="#CMR17-38" transform="scale(0.996264)"/>
      </g>
     </g>
    </g>
    <g id="text_6">
     <!-- $t/\tau_e$ -->
     <g transform="translate(169.927182 246.081944)scale(0.16 -0.16)">
      <defs>
       <path id="CMMI12-74" d="M 1286 2566 
L 1875 2566 
C 1997 2566 2061 2566 2061 2681 
C 2061 2752 2022 2752 1894 2752 
L 1331 2752 
L 1568 3664 
C 1594 3752 1594 3764 1594 3808 
C 1594 3910 1510 3968 1427 3968 
C 1376 3968 1229 3948 1178 3746 
L 928 2752 
L 326 2752 
C 198 2752 141 2752 141 2630 
C 141 2566 186 2566 307 2566 
L 877 2566 
L 454 881 
C 403 657 384 593 384 510 
C 384 210 595 -64 954 -64 
C 1600 -64 1946 868 1946 913 
C 1946 951 1920 970 1882 970 
C 1869 970 1843 970 1830 944 
C 1824 938 1818 932 1773 830 
C 1638 510 1344 64 973 64 
C 781 64 768 223 768 364 
C 768 370 768 491 787 568 
L 1286 2566 
z
" transform="scale(0.015625)"/>
       <path id="CMMI12-3d" d="M 2746 4563 
C 2746 4569 2784 4665 2784 4678 
C 2784 4755 2720 4800 2669 4800 
C 2637 4800 2579 4800 2528 4659 
L 384 -1364 
C 384 -1370 346 -1466 346 -1479 
C 346 -1556 410 -1600 461 -1600 
C 499 -1600 557 -1594 602 -1460 
L 2746 4563 
z
" transform="scale(0.015625)"/>
       <path id="CMMI12-1c" d="M 1837 2406 
L 2899 2406 
C 2982 2406 3194 2406 3194 2611 
C 3194 2752 3072 2752 2957 2752 
L 1197 2752 
C 1050 2752 832 2752 538 2438 
C 371 2253 166 1916 166 1878 
C 166 1839 198 1827 237 1827 
C 282 1827 288 1846 320 1884 
C 653 2406 986 2406 1146 2406 
L 1677 2406 
L 1011 223 
C 979 127 979 114 979 95 
C 979 25 1024 -64 1152 -64 
C 1350 -64 1382 108 1402 204 
L 1837 2406 
z
" transform="scale(0.015625)"/>
       <path id="CMMI12-65" d="M 1146 1472 
C 1318 1472 1754 1484 2061 1600 
C 2547 1786 2592 2160 2592 2275 
C 2592 2559 2349 2816 1926 2816 
C 1254 2816 288 2205 288 1066 
C 288 400 672 -64 1254 -64 
C 2125 -64 2675 609 2675 691 
C 2675 729 2637 761 2611 761 
C 2592 761 2586 755 2528 698 
C 2118 159 1510 64 1267 64 
C 902 64 710 349 710 818 
C 710 907 710 1066 806 1472 
L 1146 1472 
z
M 838 1600 
C 1114 2591 1722 2687 1926 2687 
C 2208 2687 2400 2520 2400 2275 
C 2400 1600 1376 1600 1107 1600 
L 838 1600 
z
" transform="scale(0.015625)"/>
      </defs>
      <use xlink:href="#CMMI12-74" transform="scale(0.996264)"/>
      <use xlink:href="#CMMI12-3d" transform="translate(35.22633 0)scale(0.996264)"/>
      <use xlink:href="#CMMI12-1c" transform="translate(84.001249 0)scale(0.996264)"/>
      <use xlink:href="#CMMI12-65" transform="translate(126.36509 -14.943915)scale(0.697382)"/>
     </g>
    </g>
   </g>
   <g id="matplotlib.axis_2">
    <g id="ytick_1">
     <g id="line2d_11">
      <defs>
       <path id="mbd8eb56dbd" d="M 0 0 
L 3.5 0 
" style="stroke: #000000; stroke-width: 0.8"/>
      </defs>
      <g>
       <use xlink:href="#mbd8eb56dbd" x="57.6" y="208.022727" style="stroke: #000000; stroke-width: 0.8"/>
      </g>
     </g>
     <g id="line2d_12">
      <defs>
       <path id="mbb9dee1b3a" d="M 0 0 
L -3.5 0 
" style="stroke: #000000; stroke-width: 0.8"/>
      </defs>
      <g>
       <use xlink:href="#mbb9dee1b3a" x="307.668293" y="208.022727" style="stroke: #000000; stroke-width: 0.8"/>
      </g>
     </g>
     <g id="text_7">
      <!-- $\mathdefault{0.0}$ -->
      <g transform="translate(39.142358 212.173817)scale(0.12 -0.12)">
       <defs>
        <path id="CMMI12-3a" d="M 1178 307 
C 1178 492 1024 620 870 620 
C 685 620 557 467 557 313 
C 557 128 710 0 864 0 
C 1050 0 1178 153 1178 307 
z
" transform="scale(0.015625)"/>
       </defs>
       <use xlink:href="#CMR17-30" transform="scale(0.996264)"/>
       <use xlink:href="#CMMI12-3a" transform="translate(45.690477 0)scale(0.996264)"/>
       <use xlink:href="#CMR17-30" transform="translate(72.787654 0)scale(0.996264)"/>
      </g>
     </g>
    </g>
    <g id="ytick_2">
     <g id="line2d_13">
      <g>
       <use xlink:href="#mbd8eb56dbd" x="57.6" y="176.42441" style="stroke: #000000; stroke-width: 0.8"/>
      </g>
     </g>
     <g id="line2d_14">
      <g>
       <use xlink:href="#mbb9dee1b3a" x="307.668293" y="176.42441" style="stroke: #000000; stroke-width: 0.8"/>
      </g>
     </g>
     <g id="text_8">
      <!-- $\mathdefault{0.2}$ -->
      <g transform="translate(39.142358 180.5755)scale(0.12 -0.12)">
       <use xlink:href="#CMR17-30" transform="scale(0.996264)"/>
       <use xlink:href="#CMMI12-3a" transform="translate(45.690477 0)scale(0.996264)"/>
       <use xlink:href="#CMR17-32" transform="translate(72.787654 0)scale(0.996264)"/>
      </g>
     </g>
    </g>
    <g id="ytick_3">
     <g id="line2d_15">
      <g>
       <use xlink:href="#mbd8eb56dbd" x="57.6" y="144.826093" style="stroke: #000000; stroke-width: 0.8"/>
      </g>
     </g>
     <g id="line2d_16">
      <g>
       <use xlink:href="#mbb9dee1b3a" x="307.668293" y="144.826093" style="stroke: #000000; stroke-width: 0.8"/>
      </g>
     </g>
     <g id="text_9">
      <!-- $\mathdefault{0.4}$ -->
      <g transform="translate(39.142358 148.977183)scale(0.12 -0.12)">
       <use xlink:href="#CMR17-30" transform="scale(0.996264)"/>
       <use xlink:href="#CMMI12-3a" transform="translate(45.690477 0)scale(0.996264)"/>
       <use xlink:href="#CMR17-34" transform="translate(72.787654 0)scale(0.996264)"/>
      </g>
     </g>
    </g>
    <g id="ytick_4">
     <g id="line2d_17">
      <g>
       <use xlink:href="#mbd8eb56dbd" x="57.6" y="113.227776" style="stroke: #000000; stroke-width: 0.8"/>
      </g>
     </g>
     <g id="line2d_18">
      <g>
       <use xlink:href="#mbb9dee1b3a" x="307.668293" y="113.227776" style="stroke: #000000; stroke-width: 0.8"/>
      </g>
     </g>
     <g id="text_10">
      <!-- $\mathdefault{0.6}$ -->
      <g transform="translate(39.142358 117.378866)scale(0.12 -0.12)">
       <use xlink:href="#CMR17-30" transform="scale(0.996264)"/>
       <use xlink:href="#CMMI12-3a" transform="translate(45.690477 0)scale(0.996264)"/>
       <use xlink:href="#CMR17-36" transform="translate(72.787654 0)scale(0.996264)"/>
      </g>
     </g>
    </g>
    <g id="ytick_5">
     <g id="line2d_19">
      <g>
       <use xlink:href="#mbd8eb56dbd" x="57.6" y="81.629458" style="stroke: #000000; stroke-width: 0.8"/>
      </g>
     </g>
     <g id="line2d_20">
      <g>
       <use xlink:href="#mbb9dee1b3a" x="307.668293" y="81.629458" style="stroke: #000000; stroke-width: 0.8"/>
      </g>
     </g>
     <g id="text_11">
      <!-- $\mathdefault{0.8}$ -->
      <g transform="translate(39.142358 85.780548)scale(0.12 -0.12)">
       <use xlink:href="#CMR17-30" transform="scale(0.996264)"/>
       <use xlink:href="#CMMI12-3a" transform="translate(45.690477 0)scale(0.996264)"/>
       <use xlink:href="#CMR17-38" transform="translate(72.787654 0)scale(0.996264)"/>
      </g>
     </g>
    </g>
    <g id="ytick_6">
     <g id="line2d_21">
      <g>
       <use xlink:href="#mbd8eb56dbd" x="57.6" y="50.031141" style="stroke: #000000; stroke-width: 0.8"/>
      </g>
     </g>
     <g id="line2d_22">
      <g>
       <use xlink:href="#mbb9dee1b3a" x="307.668293" y="50.031141" style="stroke: #000000; stroke-width: 0.8"/>
      </g>
     </g>
     <g id="text_12">
      <!-- $\mathdefault{1.0}$ -->
      <g transform="translate(39.142358 54.182231)scale(0.12 -0.12)">
       <defs>
        <path id="CMR17-31" d="M 1702 4083 
C 1702 4217 1696 4224 1606 4224 
C 1357 3927 979 3833 621 3820 
C 602 3820 570 3820 563 3808 
C 557 3795 557 3782 557 3648 
C 755 3648 1088 3686 1344 3839 
L 1344 467 
C 1344 243 1331 166 781 166 
L 589 166 
L 589 0 
C 896 6 1216 12 1523 12 
C 1830 12 2150 6 2458 0 
L 2458 166 
L 2266 166 
C 1715 166 1702 236 1702 467 
L 1702 4083 
z
" transform="scale(0.015625)"/>
       </defs>
       <use xlink:href="#CMR17-31" transform="scale(0.996264)"/>
       <use xlink:href="#CMMI12-3a" transform="translate(45.690477 0)scale(0.996264)"/>
       <use xlink:href="#CMR17-30" transform="translate(72.787654 0)scale(0.996264)"/>
      </g>
     </g>
    </g>
    <g id="text_13">
     <!-- $\psi(t)/\psi_s$ -->
     <g transform="translate(31.157302 154.088036)rotate(-90)scale(0.16 -0.16)">
      <defs>
       <path id="CMMI12-20" d="M 3008 4262 
C 3008 4268 3034 4351 3034 4358 
C 3034 4416 2982 4416 2963 4416 
C 2906 4416 2899 4383 2874 4287 
L 1818 76 
C 1286 140 1088 408 1088 791 
C 1088 932 1088 1079 1389 1870 
C 1472 2100 1504 2183 1504 2298 
C 1504 2586 1299 2816 998 2816 
C 410 2816 173 1890 173 1839 
C 173 1813 198 1781 243 1781 
C 301 1781 307 1807 333 1896 
C 486 2451 742 2687 979 2687 
C 1037 2687 1146 2681 1146 2477 
C 1146 2451 1146 2311 1037 2030 
C 691 1123 691 983 691 836 
C 691 223 1203 -13 1779 -58 
C 1728 -252 1683 -452 1632 -646 
C 1530 -1021 1485 -1197 1485 -1223 
C 1485 -1280 1536 -1280 1555 -1280 
C 1568 -1280 1594 -1280 1606 -1255 
C 1632 -1229 1894 -177 1920 -64 
C 2157 -64 2662 -64 3238 530 
C 3450 759 3642 1053 3750 1328 
C 3814 1494 3968 2062 3968 2388 
C 3968 2771 3776 2816 3712 2816 
C 3558 2816 3418 2662 3418 2534 
C 3418 2458 3462 2413 3488 2388 
C 3546 2330 3718 2158 3718 1826 
C 3718 1596 3590 1123 3181 664 
C 2643 64 2150 64 1958 64 
L 3008 4262 
z
" transform="scale(0.015625)"/>
       <path id="CMR17-28" d="M 1958 -1562 
C 1958 -1556 1958 -1543 1939 -1524 
C 1645 -1223 858 -403 858 1596 
C 858 3595 1632 4408 1946 4729 
C 1946 4735 1958 4748 1958 4767 
C 1958 4787 1939 4800 1914 4800 
C 1843 4800 1299 4325 986 3620 
C 666 2909 576 2218 576 1603 
C 576 1141 621 360 1005 -467 
C 1312 -1133 1837 -1600 1914 -1600 
C 1946 -1600 1958 -1588 1958 -1562 
z
" transform="scale(0.015625)"/>
       <path id="CMR17-29" d="M 1683 1596 
C 1683 2057 1638 2839 1254 3665 
C 947 4332 422 4800 346 4800 
C 326 4800 301 4793 301 4761 
C 301 4748 307 4742 314 4729 
C 621 4408 1402 3595 1402 1603 
C 1402 -396 627 -1210 314 -1530 
C 307 -1543 301 -1549 301 -1562 
C 301 -1594 326 -1600 346 -1600 
C 416 -1600 960 -1127 1274 -422 
C 1594 289 1683 981 1683 1596 
z
" transform="scale(0.015625)"/>
       <path id="CMMI12-73" d="M 1459 1290 
C 1568 1271 1741 1233 1779 1227 
C 1862 1201 2150 1099 2150 793 
C 2150 595 1971 64 1229 64 
C 1094 64 614 83 486 447 
C 742 414 870 614 870 755 
C 870 889 781 960 653 960 
C 512 960 326 851 326 563 
C 326 176 710 -64 1222 -64 
C 2195 -64 2483 665 2483 998 
C 2483 1093 2483 1271 2278 1475 
C 2118 1627 1965 1659 1619 1729 
C 1446 1767 1171 1824 1171 2111 
C 1171 2239 1286 2687 1894 2687 
C 2163 2687 2426 2589 2490 2368 
C 2208 2368 2195 2124 2195 2118 
C 2195 1983 2317 1945 2374 1945 
C 2464 1945 2643 2015 2643 2284 
C 2643 2546 2400 2816 1901 2816 
C 1062 2816 838 2169 838 1907 
C 838 1424 1312 1322 1459 1290 
z
" transform="scale(0.015625)"/>
      </defs>
      <use xlink:href="#CMMI12-20" transform="scale(0.996264)"/>
      <use xlink:href="#CMR17-28" transform="translate(66.99348 0)scale(0.996264)"/>
      <use xlink:href="#CMMI12-74" transform="translate(102.274247 0)scale(0.996264)"/>
      <use xlink:href="#CMR17-29" transform="translate(137.500578 0)scale(0.996264)"/>
      <use xlink:href="#CMMI12-3d" transform="translate(172.781345 0)scale(0.996264)"/>
      <use xlink:href="#CMMI12-20" transform="translate(221.556264 0)scale(0.996264)"/>
      <use xlink:href="#CMMI12-73" transform="translate(284.975151 -14.943915)scale(0.697382)"/>
     </g>
    </g>
   </g>
   <g id="line2d_23">
    <path d="M 68.966741 208.022727 
L 78.439024 159.858033 
L 87.911308 126.376638 
L 97.383592 103.10225 
L 106.855876 86.9232 
L 116.32816 75.676432 
L 125.800443 67.858309 
L 135.272727 62.423589 
L 144.745011 58.645676 
L 154.217295 56.019483 
L 163.689579 54.193901 
L 173.161863 52.924858 
L 182.634146 52.042691 
L 192.10643 51.429458 
L 201.578714 51.003172 
L 211.050998 50.706843 
L 220.523282 50.500851 
L 229.995565 50.357657 
L 239.467849 50.258117 
L 248.940133 50.188922 
L 258.412417 50.140822 
L 267.884701 50.107385 
L 277.356984 50.084142 
L 286.829268 50.067984 
L 296.301552 50.056752 
" clip-path="url(#pb18fcf54f1)" style="fill: none; stroke-dasharray: 1.5,2.475; stroke-dashoffset: 0; stroke: #000000; stroke-width: 1.5"/>
   </g>
   <g id="line2d_24">
    <defs>
     <path id="m6acf49cb18" d="M -3 3 
L 3 -3 
M -3 -3 
L 3 3 
" style="stroke: #1f77b4"/>
    </defs>
    <g clip-path="url(#pb18fcf54f1)">
     <use xlink:href="#m6acf49cb18" x="68.966741" y="208.022727" style="fill-opacity: 0; stroke: #1f77b4"/>
     <use xlink:href="#m6acf49cb18" x="78.439024" y="159.543221" style="fill-opacity: 0; stroke: #1f77b4"/>
     <use xlink:href="#m6acf49cb18" x="87.911308" y="125.652089" style="fill-opacity: 0; stroke: #1f77b4"/>
     <use xlink:href="#m6acf49cb18" x="97.383592" y="102.102812" style="fill-opacity: 0; stroke: #1f77b4"/>
     <use xlink:href="#m6acf49cb18" x="106.855876" y="85.759733" style="fill-opacity: 0; stroke: #1f77b4"/>
     <use xlink:href="#m6acf49cb18" x="116.32816" y="74.482828" style="fill-opacity: 0; stroke: #1f77b4"/>
     <use xlink:href="#m6acf49cb18" x="125.800443" y="66.821203" style="fill-opacity: 0; stroke: #1f77b4"/>
     <use xlink:href="#m6acf49cb18" x="135.272727" y="61.779879" style="fill-opacity: 0; stroke: #1f77b4"/>
     <use xlink:href="#m6acf49cb18" x="144.745011" y="58.660664" style="fill-opacity: 0; stroke: #1f77b4"/>
     <use xlink:href="#m6acf49cb18" x="154.217295" y="56.962362" style="fill-opacity: 0; stroke: #1f77b4"/>
     <use xlink:href="#m6acf49cb18" x="163.689579" y="56.319166" style="fill-opacity: 0; stroke: #1f77b4"/>
     <use xlink:href="#m6acf49cb18" x="173.161863" y="56.461303" style="fill-opacity: 0; stroke: #1f77b4"/>
     <use xlink:href="#m6acf49cb18" x="182.634146" y="57.188569" style="fill-opacity: 0; stroke: #1f77b4"/>
     <use xlink:href="#m6acf49cb18" x="192.10643" y="58.351752" style="fill-opacity: 0; stroke: #1f77b4"/>
     <use xlink:href="#m6acf49cb18" x="201.578714" y="59.839225" style="fill-opacity: 0; stroke: #1f77b4"/>
     <use xlink:href="#m6acf49cb18" x="211.050998" y="61.567153" style="fill-opacity: 0; stroke: #1f77b4"/>
     <use xlink:href="#m6acf49cb18" x="220.523282" y="63.472275" style="fill-opacity: 0; stroke: #1f77b4"/>
     <use xlink:href="#m6acf49cb18" x="229.995565" y="65.506613" style="fill-opacity: 0; stroke: #1f77b4"/>
     <use xlink:href="#m6acf49cb18" x="239.467849" y="67.633558" style="fill-opacity: 0; stroke: #1f77b4"/>
     <use xlink:href="#m6acf49cb18" x="248.940133" y="69.82501" style="fill-opacity: 0; stroke: #1f77b4"/>
     <use xlink:href="#m6acf49cb18" x="258.412417" y="72.059266" style="fill-opacity: 0; stroke: #1f77b4"/>
     <use xlink:href="#m6acf49cb18" x="267.884701" y="74.319457" style="fill-opacity: 0; stroke: #1f77b4"/>
     <use xlink:href="#m6acf49cb18" x="277.356984" y="76.592412" style="fill-opacity: 0; stroke: #1f77b4"/>
     <use xlink:href="#m6acf49cb18" x="286.829268" y="78.86778" style="fill-opacity: 0; stroke: #1f77b4"/>
     <use xlink:href="#m6acf49cb18" x="296.301552" y="81.137415" style="fill-opacity: 0; stroke: #1f77b4"/>
    </g>
   </g>
   <g id="line2d_25">
    <path d="M 68.966741 208.022727 
L 78.439024 159.858033 
L 87.911308 126.376638 
L 97.383592 103.10225 
L 106.855876 86.9232 
L 116.32816 75.676432 
L 125.800443 67.858309 
L 135.272727 62.423589 
L 144.745011 58.645676 
L 154.217295 56.019483 
L 163.689579 54.193901 
L 173.161863 52.924858 
L 182.634146 52.042691 
L 192.10643 51.429458 
L 201.578714 51.003172 
L 211.050998 50.706843 
L 220.523282 50.500851 
L 229.995565 50.357657 
L 239.467849 50.258117 
L 248.940133 50.188922 
L 258.412417 50.140822 
L 267.884701 50.107385 
L 277.356984 50.084142 
L 286.829268 50.067984 
L 296.301552 50.056752 
" clip-path="url(#pb18fcf54f1)" style="fill: none; stroke-dasharray: 1.5,2.475; stroke-dashoffset: 0; stroke: #000000; stroke-width: 1.5"/>
   </g>
   <g id="line2d_26">
    <defs>
     <path id="mda4ed67d1e" d="M 0 3 
C 0.795609 3 1.55874 2.683901 2.12132 2.12132 
C 2.683901 1.55874 3 0.795609 3 0 
C 3 -0.795609 2.683901 -1.55874 2.12132 -2.12132 
C 1.55874 -2.683901 0.795609 -3 0 -3 
C -0.795609 -3 -1.55874 -2.683901 -2.12132 -2.12132 
C -2.683901 -1.55874 -3 -0.795609 -3 0 
C -3 0.795609 -2.683901 1.55874 -2.12132 2.12132 
C -1.55874 2.683901 -0.795609 3 0 3 
z
" style="stroke: #ff7f0e"/>
    </defs>
    <g clip-path="url(#pb18fcf54f1)">
     <use xlink:href="#mda4ed67d1e" x="68.966741" y="208.022727" style="fill-opacity: 0; stroke: #ff7f0e"/>
     <use xlink:href="#mda4ed67d1e" x="78.439024" y="159.543218" style="fill-opacity: 0; stroke: #ff7f0e"/>
     <use xlink:href="#mda4ed67d1e" x="87.911308" y="125.652049" style="fill-opacity: 0; stroke: #ff7f0e"/>
     <use xlink:href="#mda4ed67d1e" x="97.383592" y="102.10044" style="fill-opacity: 0; stroke: #ff7f0e"/>
     <use xlink:href="#mda4ed67d1e" x="106.855876" y="85.733922" style="fill-opacity: 0; stroke: #ff7f0e"/>
     <use xlink:href="#mda4ed67d1e" x="116.32816" y="74.360431" style="fill-opacity: 0; stroke: #ff7f0e"/>
     <use xlink:href="#mda4ed67d1e" x="125.800443" y="66.456685" style="fill-opacity: 0; stroke: #ff7f0e"/>
     <use xlink:href="#mda4ed67d1e" x="135.272727" y="60.964133" style="fill-opacity: 0; stroke: #ff7f0e"/>
     <use xlink:href="#mda4ed67d1e" x="144.745011" y="57.147184" style="fill-opacity: 0; stroke: #ff7f0e"/>
     <use xlink:href="#mda4ed67d1e" x="154.217295" y="54.494687" style="fill-opacity: 0; stroke: #ff7f0e"/>
     <use xlink:href="#mda4ed67d1e" x="163.689579" y="52.651487" style="fill-opacity: 0; stroke: #ff7f0e"/>
     <use xlink:href="#mda4ed67d1e" x="173.161863" y="51.3709" style="fill-opacity: 0; stroke: #ff7f0e"/>
     <use xlink:href="#mda4ed67d1e" x="182.634146" y="50.481666" style="fill-opacity: 0; stroke: #ff7f0e"/>
     <use xlink:href="#mda4ed67d1e" x="192.10643" y="49.865037" style="fill-opacity: 0; stroke: #ff7f0e"/>
     <use xlink:href="#mda4ed67d1e" x="201.578714" y="49.438797" style="fill-opacity: 0; stroke: #ff7f0e"/>
     <use xlink:href="#mda4ed67d1e" x="211.050998" y="49.146176" style="fill-opacity: 0; stroke: #ff7f0e"/>
     <use xlink:href="#mda4ed67d1e" x="220.523282" y="48.948124" style="fill-opacity: 0; stroke: #ff7f0e"/>
     <use xlink:href="#mda4ed67d1e" x="229.995565" y="48.817923" style="fill-opacity: 0; stroke: #ff7f0e"/>
     <use xlink:href="#mda4ed67d1e" x="239.467849" y="48.73741" style="fill-opacity: 0; stroke: #ff7f0e"/>
     <use xlink:href="#mda4ed67d1e" x="248.940133" y="48.694372" style="fill-opacity: 0; stroke: #ff7f0e"/>
     <use xlink:href="#mda4ed67d1e" x="258.412417" y="48.680691" style="fill-opacity: 0; stroke: #ff7f0e"/>
     <use xlink:href="#mda4ed67d1e" x="267.884701" y="48.691066" style="fill-opacity: 0; stroke: #ff7f0e"/>
     <use xlink:href="#mda4ed67d1e" x="277.356984" y="48.722114" style="fill-opacity: 0; stroke: #ff7f0e"/>
     <use xlink:href="#mda4ed67d1e" x="286.829268" y="48.771744" style="fill-opacity: 0; stroke: #ff7f0e"/>
     <use xlink:href="#mda4ed67d1e" x="296.301552" y="48.838725" style="fill-opacity: 0; stroke: #ff7f0e"/>
    </g>
   </g>
   <g id="line2d_27">
    <path d="M 68.966741 208.022727 
L 78.439024 159.858033 
L 87.911308 126.376638 
L 97.383592 103.10225 
L 106.855876 86.9232 
L 116.32816 75.676432 
L 125.800443 67.858309 
L 135.272727 62.423589 
L 144.745011 58.645676 
L 154.217295 56.019483 
L 163.689579 54.193901 
L 173.161863 52.924858 
L 182.634146 52.042691 
L 192.10643 51.429458 
L 201.578714 51.003172 
L 211.050998 50.706843 
L 220.523282 50.500851 
L 229.995565 50.357657 
L 239.467849 50.258117 
L 248.940133 50.188922 
L 258.412417 50.140822 
L 267.884701 50.107385 
L 277.356984 50.084142 
L 286.829268 50.067984 
L 296.301552 50.056752 
" clip-path="url(#pb18fcf54f1)" style="fill: none; stroke-dasharray: 1.5,2.475; stroke-dashoffset: 0; stroke: #000000; stroke-width: 1.5"/>
   </g>
   <g id="line2d_28">
    <defs>
     <path id="maded3ffeda" d="M -0 3 
L 3 -3 
L -3 -3 
z
" style="stroke: #2ca02c; stroke-linejoin: miter"/>
    </defs>
    <g clip-path="url(#pb18fcf54f1)">
     <use xlink:href="#maded3ffeda" x="68.966741" y="208.022727" style="fill-opacity: 0; stroke: #2ca02c; stroke-linejoin: miter"/>
     <use xlink:href="#maded3ffeda" x="78.439024" y="159.543228" style="fill-opacity: 0; stroke: #2ca02c; stroke-linejoin: miter"/>
     <use xlink:href="#maded3ffeda" x="87.911308" y="125.652057" style="fill-opacity: 0; stroke: #2ca02c; stroke-linejoin: miter"/>
     <use xlink:href="#maded3ffeda" x="97.383592" y="102.100438" style="fill-opacity: 0; stroke: #2ca02c; stroke-linejoin: miter"/>
     <use xlink:href="#maded3ffeda" x="106.855876" y="85.733923" style="fill-opacity: 0; stroke: #2ca02c; stroke-linejoin: miter"/>
     <use xlink:href="#maded3ffeda" x="116.32816" y="74.360428" style="fill-opacity: 0; stroke: #2ca02c; stroke-linejoin: miter"/>
     <use xlink:href="#maded3ffeda" x="125.800443" y="66.456682" style="fill-opacity: 0; stroke: #2ca02c; stroke-linejoin: miter"/>
     <use xlink:href="#maded3ffeda" x="135.272727" y="60.964129" style="fill-opacity: 0; stroke: #2ca02c; stroke-linejoin: miter"/>
     <use xlink:href="#maded3ffeda" x="144.745011" y="57.14717" style="fill-opacity: 0; stroke: #2ca02c; stroke-linejoin: miter"/>
     <use xlink:href="#maded3ffeda" x="154.217295" y="54.494616" style="fill-opacity: 0; stroke: #2ca02c; stroke-linejoin: miter"/>
     <use xlink:href="#maded3ffeda" x="163.689579" y="52.651251" style="fill-opacity: 0; stroke: #2ca02c; stroke-linejoin: miter"/>
     <use xlink:href="#maded3ffeda" x="173.161863" y="51.370214" style="fill-opacity: 0; stroke: #2ca02c; stroke-linejoin: miter"/>
     <use xlink:href="#maded3ffeda" x="182.634146" y="50.479954" style="fill-opacity: 0; stroke: #2ca02c; stroke-linejoin: miter"/>
     <use xlink:href="#maded3ffeda" x="192.10643" y="49.861261" style="fill-opacity: 0; stroke: #2ca02c; stroke-linejoin: miter"/>
     <use xlink:href="#maded3ffeda" x="201.578714" y="49.431291" style="fill-opacity: 0; stroke: #2ca02c; stroke-linejoin: miter"/>
     <use xlink:href="#maded3ffeda" x="211.050998" y="49.132471" style="fill-opacity: 0; stroke: #2ca02c; stroke-linejoin: miter"/>
     <use xlink:href="#maded3ffeda" x="220.523282" y="48.924783" style="fill-opacity: 0; stroke: #2ca02c; stroke-linejoin: miter"/>
     <use xlink:href="#maded3ffeda" x="229.995565" y="48.780455" style="fill-opacity: 0; stroke: #2ca02c; stroke-linejoin: miter"/>
     <use xlink:href="#maded3ffeda" x="239.467849" y="48.680147" style="fill-opacity: 0; stroke: #2ca02c; stroke-linejoin: miter"/>
     <use xlink:href="#maded3ffeda" x="248.940133" y="48.610429" style="fill-opacity: 0; stroke: #2ca02c; stroke-linejoin: miter"/>
     <use xlink:href="#maded3ffeda" x="258.412417" y="48.561967" style="fill-opacity: 0; stroke: #2ca02c; stroke-linejoin: miter"/>
     <use xlink:href="#maded3ffeda" x="267.884701" y="48.528283" style="fill-opacity: 0; stroke: #2ca02c; stroke-linejoin: miter"/>
     <use xlink:href="#maded3ffeda" x="277.356984" y="48.504868" style="fill-opacity: 0; stroke: #2ca02c; stroke-linejoin: miter"/>
     <use xlink:href="#maded3ffeda" x="286.829268" y="48.488591" style="fill-opacity: 0; stroke: #2ca02c; stroke-linejoin: miter"/>
     <use xlink:href="#maded3ffeda" x="296.301552" y="48.477273" style="fill-opacity: 0; stroke: #2ca02c; stroke-linejoin: miter"/>
    </g>
   </g>
   <g id="patch_3">
    <path d="M 57.6 216 
L 57.6 40.5 
" style="fill: none; stroke: #000000; stroke-width: 0.8; stroke-linejoin: miter; stroke-linecap: square"/>
   </g>
   <g id="patch_4">
    <path d="M 307.668293 216 
L 307.668293 40.5 
" style="fill: none; stroke: #000000; stroke-width: 0.8; stroke-linejoin: miter; stroke-linecap: square"/>
   </g>
   <g id="patch_5">
    <path d="M 57.6 216 
L 307.668293 216 
" style="fill: none; stroke: #000000; stroke-width: 0.8; stroke-linejoin: miter; stroke-linecap: square"/>
   </g>
   <g id="patch_6">
    <path d="M 57.6 40.5 
L 307.668293 40.5 
" style="fill: none; stroke: #000000; stroke-width: 0.8; stroke-linejoin: miter; stroke-linecap: square"/>
   </g>
   <g id="text_14">
    <!-- Short time -->
    <g transform="translate(57.6 34.5)scale(0.16 -0.16)">
     <defs>
      <path id="CMSS17-53" d="M 2797 4230 
C 2515 4396 2208 4544 1690 4544 
C 864 4544 333 3934 333 3309 
C 333 3064 403 2787 653 2504 
C 902 2220 1184 2143 1542 2053 
C 1690 2014 1939 1943 1984 1924 
C 2342 1782 2515 1454 2515 1144 
C 2515 738 2202 307 1645 307 
C 1453 307 890 339 358 829 
L 269 320 
C 794 -64 1363 -128 1651 -128 
C 2438 -128 3002 494 3002 1202 
C 3002 1460 2925 1789 2656 2092 
C 2394 2381 2163 2446 1638 2588 
C 1338 2665 1146 2717 986 2916 
C 877 3058 819 3193 819 3367 
C 819 3728 1126 4121 1690 4121 
C 1971 4121 2336 4063 2707 3715 
L 2797 4230 
z
" transform="scale(0.015625)"/>
      <path id="CMSS17-68" d="M 2618 1878 
C 2618 2283 2522 2816 1798 2816 
C 1395 2816 1133 2617 947 2399 
L 947 4416 
L 474 4416 
L 474 0 
L 960 0 
L 960 1556 
C 960 1962 1114 2425 1549 2425 
C 2112 2425 2131 2045 2131 1826 
L 2131 0 
L 2618 0 
L 2618 1878 
z
" transform="scale(0.015625)"/>
      <path id="CMSS17-6f" d="M 2829 1356 
C 2829 2175 2221 2816 1504 2816 
C 768 2816 173 2156 173 1356 
C 173 544 787 -64 1498 -64 
C 2227 -64 2829 563 2829 1356 
z
M 1504 339 
C 1050 339 659 710 659 1407 
C 659 2150 1114 2425 1498 2425 
C 1914 2425 2342 2124 2342 1407 
C 2342 684 1926 339 1504 339 
z
" transform="scale(0.015625)"/>
      <path id="CMSS17-72" d="M 954 1369 
C 954 1974 1395 2379 1958 2392 
L 1958 2816 
C 1549 2809 1165 2604 934 2270 
L 934 2783 
L 480 2783 
L 480 0 
L 954 0 
L 954 1369 
z
" transform="scale(0.015625)"/>
      <path id="CMSS17-74" d="M 1069 2380 
L 1901 2380 
L 1901 2752 
L 1069 2752 
L 1069 3520 
L 614 3520 
L 614 2752 
L 109 2752 
L 109 2380 
L 602 2380 
L 602 751 
C 602 384 685 -64 1107 -64 
C 1427 -64 1722 25 2003 172 
L 1901 551 
C 1747 416 1562 339 1363 339 
C 1082 339 1069 699 1069 860 
L 1069 2380 
z
" transform="scale(0.015625)"/>
      <path id="CMSS17-69" d="M 979 4224 
L 442 4224 
L 442 3686 
L 979 3686 
L 979 4224 
z
M 947 2752 
L 474 2752 
L 474 0 
L 947 0 
L 947 2752 
z
" transform="scale(0.015625)"/>
      <path id="CMSS17-6d" d="M 4288 1878 
C 4288 2309 4179 2816 3462 2816 
C 2982 2816 2694 2515 2566 2328 
C 2451 2668 2182 2816 1798 2816 
C 1363 2816 1088 2566 941 2386 
L 941 2783 
L 474 2783 
L 474 0 
L 960 0 
L 960 1556 
C 960 1936 1101 2425 1555 2425 
C 2138 2425 2138 2013 2138 1826 
L 2138 0 
L 2624 0 
L 2624 1556 
C 2624 1936 2765 2425 3219 2425 
C 3802 2425 3802 2013 3802 1826 
L 3802 0 
L 4288 0 
L 4288 1878 
z
" transform="scale(0.015625)"/>
      <path id="CMSS17-65" d="M 2502 1375 
C 2502 1587 2490 2001 2285 2347 
C 2061 2713 1696 2816 1421 2816 
C 755 2816 192 2184 192 1363 
C 192 579 774 -64 1510 -64 
C 1798 -64 2150 19 2470 249 
C 2470 275 2458 414 2451 421 
C 2451 433 2432 629 2432 655 
C 2125 408 1773 326 1517 326 
C 1107 326 666 667 646 1375 
L 2502 1375 
z
M 698 1728 
C 781 2086 1062 2425 1421 2425 
C 1517 2425 1965 2412 2080 1728 
L 698 1728 
z
" transform="scale(0.015625)"/>
     </defs>
     <use xlink:href="#CMSS17-53" transform="scale(0.996264)"/>
     <use xlink:href="#CMSS17-68" transform="translate(52.048516 0)scale(0.996264)"/>
     <use xlink:href="#CMSS17-6f" transform="translate(100.253459 0)scale(0.996264)"/>
     <use xlink:href="#CMSS17-72" transform="translate(144.494629 0)scale(0.996264)"/>
     <use xlink:href="#CMSS17-74" transform="translate(176.404401 0)scale(0.996264)"/>
     <use xlink:href="#CMSS17-74" transform="translate(241.465081 0)scale(0.996264)"/>
     <use xlink:href="#CMSS17-69" transform="translate(275.296648 0)scale(0.996264)"/>
     <use xlink:href="#CMSS17-6d" transform="translate(297.477371 0)scale(0.996264)"/>
     <use xlink:href="#CMSS17-65" transform="translate(371.706625 0)scale(0.996264)"/>
    </g>
   </g>
  </g>
  <g id="axes_2">
   <g id="patch_7">
    <path d="M 320.171707 216 
L 570.24 216 
L 570.24 40.5 
L 320.171707 40.5 
z
" style="fill: #ffffff"/>
   </g>
   <g id="matplotlib.axis_3">
    <g id="xtick_6">
     <g id="line2d_29">
      <g>
       <use xlink:href="#m3720e740ba" x="331.538448" y="216" style="stroke: #000000; stroke-width: 0.8"/>
      </g>
     </g>
     <g id="line2d_30">
      <g>
       <use xlink:href="#m6e4015dee7" x="331.538448" y="40.5" style="stroke: #000000; stroke-width: 0.8"/>
      </g>
     </g>
     <g id="text_15">
      <!-- $\mathdefault{0}$ -->
      <g transform="translate(328.611953 227.80218)scale(0.12 -0.12)">
       <use xlink:href="#CMR17-30" transform="scale(0.996264)"/>
      </g>
     </g>
    </g>
    <g id="xtick_7">
     <g id="line2d_31">
      <g>
       <use xlink:href="#m3720e740ba" x="378.741238" y="216" style="stroke: #000000; stroke-width: 0.8"/>
      </g>
     </g>
     <g id="line2d_32">
      <g>
       <use xlink:href="#m6e4015dee7" x="378.741238" y="40.5" style="stroke: #000000; stroke-width: 0.8"/>
      </g>
     </g>
     <g id="text_16">
      <!-- $\mathdefault{2}$ -->
      <g transform="translate(375.814743 227.80218)scale(0.12 -0.12)">
       <use xlink:href="#CMR17-32" transform="scale(0.996264)"/>
      </g>
     </g>
    </g>
    <g id="xtick_8">
     <g id="line2d_33">
      <g>
       <use xlink:href="#m3720e740ba" x="425.944028" y="216" style="stroke: #000000; stroke-width: 0.8"/>
      </g>
     </g>
     <g id="line2d_34">
      <g>
       <use xlink:href="#m6e4015dee7" x="425.944028" y="40.5" style="stroke: #000000; stroke-width: 0.8"/>
      </g>
     </g>
     <g id="text_17">
      <!-- $\mathdefault{4}$ -->
      <g transform="translate(423.017533 227.80218)scale(0.12 -0.12)">
       <use xlink:href="#CMR17-34" transform="scale(0.996264)"/>
      </g>
     </g>
    </g>
    <g id="xtick_9">
     <g id="line2d_35">
      <g>
       <use xlink:href="#m3720e740ba" x="473.146818" y="216" style="stroke: #000000; stroke-width: 0.8"/>
      </g>
     </g>
     <g id="line2d_36">
      <g>
       <use xlink:href="#m6e4015dee7" x="473.146818" y="40.5" style="stroke: #000000; stroke-width: 0.8"/>
      </g>
     </g>
     <g id="text_18">
      <!-- $\mathdefault{6}$ -->
      <g transform="translate(470.220323 227.80218)scale(0.12 -0.12)">
       <use xlink:href="#CMR17-36" transform="scale(0.996264)"/>
      </g>
     </g>
    </g>
    <g id="xtick_10">
     <g id="line2d_37">
      <g>
       <use xlink:href="#m3720e740ba" x="520.349608" y="216" style="stroke: #000000; stroke-width: 0.8"/>
      </g>
     </g>
     <g id="line2d_38">
      <g>
       <use xlink:href="#m6e4015dee7" x="520.349608" y="40.5" style="stroke: #000000; stroke-width: 0.8"/>
      </g>
     </g>
     <g id="text_19">
      <!-- $\mathdefault{8}$ -->
      <g transform="translate(517.423113 227.80218)scale(0.12 -0.12)">
       <use xlink:href="#CMR17-38" transform="scale(0.996264)"/>
      </g>
     </g>
    </g>
    <g id="xtick_11">
     <g id="line2d_39">
      <g>
       <use xlink:href="#m3720e740ba" x="567.552398" y="216" style="stroke: #000000; stroke-width: 0.8"/>
      </g>
     </g>
     <g id="line2d_40">
      <g>
       <use xlink:href="#m6e4015dee7" x="567.552398" y="40.5" style="stroke: #000000; stroke-width: 0.8"/>
      </g>
     </g>
     <g id="text_20">
      <!-- $\mathdefault{10}$ -->
      <g transform="translate(561.699408 227.80218)scale(0.12 -0.12)">
       <use xlink:href="#CMR17-31" transform="scale(0.996264)"/>
       <use xlink:href="#CMR17-30" transform="translate(45.690477 0)scale(0.996264)"/>
      </g>
     </g>
    </g>
    <g id="text_21">
     <!-- $t / \tau_d$ -->
     <g transform="translate(432.192816 246.081944)scale(0.16 -0.16)">
      <defs>
       <path id="CMMI12-64" d="M 3219 4255 
C 3226 4281 3238 4319 3238 4351 
C 3238 4416 3174 4416 3162 4416 
C 3155 4416 2842 4390 2810 4383 
C 2701 4377 2605 4364 2490 4358 
C 2330 4345 2285 4339 2285 4223 
C 2285 4159 2336 4159 2426 4159 
C 2739 4159 2746 4103 2746 4040 
C 2746 4002 2733 3951 2726 3932 
L 2336 2394 
C 2266 2560 2093 2816 1760 2816 
C 1037 2816 256 1883 256 938 
C 256 306 627 -64 1062 -64 
C 1414 -64 1715 210 1894 421 
C 1958 44 2259 -64 2451 -64 
C 2643 -64 2797 51 2912 281 
C 3014 498 3104 887 3104 913 
C 3104 945 3078 970 3040 970 
C 2982 970 2976 938 2950 842 
C 2854 466 2733 64 2470 64 
C 2285 64 2272 230 2272 357 
C 2272 383 2272 517 2317 696 
L 3219 4255 
z
M 1926 759 
C 1894 651 1894 638 1805 517 
C 1664 338 1382 64 1082 64 
C 819 64 672 300 672 676 
C 672 1028 870 1743 992 2011 
C 1210 2458 1510 2687 1760 2687 
C 2182 2687 2266 2164 2266 2113 
C 2266 2107 2246 2024 2240 2011 
L 1926 759 
z
" transform="scale(0.015625)"/>
      </defs>
      <use xlink:href="#CMMI12-74" transform="scale(0.996264)"/>
      <use xlink:href="#CMMI12-3d" transform="translate(35.22633 0)scale(0.996264)"/>
      <use xlink:href="#CMMI12-1c" transform="translate(84.001249 0)scale(0.996264)"/>
      <use xlink:href="#CMMI12-64" transform="translate(126.36509 -14.943915)scale(0.697382)"/>
     </g>
    </g>
   </g>
   <g id="matplotlib.axis_4">
    <g id="ytick_7">
     <g id="line2d_41">
      <g>
       <use xlink:href="#mbd8eb56dbd" x="320.171707" y="208.022727" style="stroke: #000000; stroke-width: 0.8"/>
      </g>
     </g>
     <g id="line2d_42">
      <g>
       <use xlink:href="#mbb9dee1b3a" x="570.24" y="208.022727" style="stroke: #000000; stroke-width: 0.8"/>
      </g>
     </g>
    </g>
    <g id="ytick_8">
     <g id="line2d_43">
      <g>
       <use xlink:href="#mbd8eb56dbd" x="320.171707" y="176.429498" style="stroke: #000000; stroke-width: 0.8"/>
      </g>
     </g>
     <g id="line2d_44">
      <g>
       <use xlink:href="#mbb9dee1b3a" x="570.24" y="176.429498" style="stroke: #000000; stroke-width: 0.8"/>
      </g>
     </g>
    </g>
    <g id="ytick_9">
     <g id="line2d_45">
      <g>
       <use xlink:href="#mbd8eb56dbd" x="320.171707" y="144.836268" style="stroke: #000000; stroke-width: 0.8"/>
      </g>
     </g>
     <g id="line2d_46">
      <g>
       <use xlink:href="#mbb9dee1b3a" x="570.24" y="144.836268" style="stroke: #000000; stroke-width: 0.8"/>
      </g>
     </g>
    </g>
    <g id="ytick_10">
     <g id="line2d_47">
      <g>
       <use xlink:href="#mbd8eb56dbd" x="320.171707" y="113.243038" style="stroke: #000000; stroke-width: 0.8"/>
      </g>
     </g>
     <g id="line2d_48">
      <g>
       <use xlink:href="#mbb9dee1b3a" x="570.24" y="113.243038" style="stroke: #000000; stroke-width: 0.8"/>
      </g>
     </g>
    </g>
    <g id="ytick_11">
     <g id="line2d_49">
      <g>
       <use xlink:href="#mbd8eb56dbd" x="320.171707" y="81.649808" style="stroke: #000000; stroke-width: 0.8"/>
      </g>
     </g>
     <g id="line2d_50">
      <g>
       <use xlink:href="#mbb9dee1b3a" x="570.24" y="81.649808" style="stroke: #000000; stroke-width: 0.8"/>
      </g>
     </g>
    </g>
    <g id="ytick_12">
     <g id="line2d_51">
      <g>
       <use xlink:href="#mbd8eb56dbd" x="320.171707" y="50.056579" style="stroke: #000000; stroke-width: 0.8"/>
      </g>
     </g>
     <g id="line2d_52">
      <g>
       <use xlink:href="#mbb9dee1b3a" x="570.24" y="50.056579" style="stroke: #000000; stroke-width: 0.8"/>
      </g>
     </g>
    </g>
   </g>
   <g id="line2d_53">
    <g clip-path="url(#pc53f8a7b26)">
     <use xlink:href="#m6acf49cb18" x="331.538448" y="208.022727" style="fill-opacity: 0; stroke: #1f77b4"/>
     <use xlink:href="#m6acf49cb18" x="340.637527" y="72.081157" style="fill-opacity: 0; stroke: #1f77b4"/>
     <use xlink:href="#m6acf49cb18" x="349.736607" y="113.985404" style="fill-opacity: 0; stroke: #1f77b4"/>
     <use xlink:href="#m6acf49cb18" x="358.835686" y="143.940493" style="fill-opacity: 0; stroke: #1f77b4"/>
     <use xlink:href="#m6acf49cb18" x="367.934765" y="164.38284" style="fill-opacity: 0; stroke: #1f77b4"/>
     <use xlink:href="#m6acf49cb18" x="377.033845" y="178.304947" style="fill-opacity: 0; stroke: #1f77b4"/>
     <use xlink:href="#m6acf49cb18" x="386.132924" y="187.785605" style="fill-opacity: 0; stroke: #1f77b4"/>
     <use xlink:href="#m6acf49cb18" x="395.232004" y="194.241711" style="fill-opacity: 0; stroke: #1f77b4"/>
     <use xlink:href="#m6acf49cb18" x="404.331083" y="198.63817" style="fill-opacity: 0; stroke: #1f77b4"/>
     <use xlink:href="#m6acf49cb18" x="413.430162" y="201.632058" style="fill-opacity: 0; stroke: #1f77b4"/>
     <use xlink:href="#m6acf49cb18" x="422.529242" y="203.670827" style="fill-opacity: 0; stroke: #1f77b4"/>
     <use xlink:href="#m6acf49cb18" x="431.628321" y="205.059182" style="fill-opacity: 0; stroke: #1f77b4"/>
     <use xlink:href="#m6acf49cb18" x="440.727401" y="206.004621" style="fill-opacity: 0; stroke: #1f77b4"/>
     <use xlink:href="#m6acf49cb18" x="449.82648" y="206.648443" style="fill-opacity: 0; stroke: #1f77b4"/>
     <use xlink:href="#m6acf49cb18" x="458.925559" y="207.086871" style="fill-opacity: 0; stroke: #1f77b4"/>
     <use xlink:href="#m6acf49cb18" x="468.024639" y="207.38543" style="fill-opacity: 0; stroke: #1f77b4"/>
     <use xlink:href="#m6acf49cb18" x="477.123718" y="207.588743" style="fill-opacity: 0; stroke: #1f77b4"/>
     <use xlink:href="#m6acf49cb18" x="486.222797" y="207.727194" style="fill-opacity: 0; stroke: #1f77b4"/>
     <use xlink:href="#m6acf49cb18" x="495.321877" y="207.821476" style="fill-opacity: 0; stroke: #1f77b4"/>
     <use xlink:href="#m6acf49cb18" x="504.420956" y="207.885679" style="fill-opacity: 0; stroke: #1f77b4"/>
     <use xlink:href="#m6acf49cb18" x="513.520036" y="207.929401" style="fill-opacity: 0; stroke: #1f77b4"/>
     <use xlink:href="#m6acf49cb18" x="522.619115" y="207.959174" style="fill-opacity: 0; stroke: #1f77b4"/>
     <use xlink:href="#m6acf49cb18" x="531.718194" y="207.979449" style="fill-opacity: 0; stroke: #1f77b4"/>
     <use xlink:href="#m6acf49cb18" x="540.817274" y="207.993256" style="fill-opacity: 0; stroke: #1f77b4"/>
     <use xlink:href="#m6acf49cb18" x="549.916353" y="208.002658" style="fill-opacity: 0; stroke: #1f77b4"/>
    </g>
   </g>
   <g id="line2d_54">
    <g clip-path="url(#pc53f8a7b26)">
     <use xlink:href="#mda4ed67d1e" x="331.538448" y="208.022727" style="fill-opacity: 0; stroke: #ff7f0e"/>
     <use xlink:href="#mda4ed67d1e" x="333.813218" y="48.706346" style="fill-opacity: 0; stroke: #ff7f0e"/>
     <use xlink:href="#mda4ed67d1e" x="336.087988" y="52.127659" style="fill-opacity: 0; stroke: #ff7f0e"/>
     <use xlink:href="#mda4ed67d1e" x="338.362757" y="60.843199" style="fill-opacity: 0; stroke: #ff7f0e"/>
     <use xlink:href="#mda4ed67d1e" x="340.637527" y="71.892258" style="fill-opacity: 0; stroke: #ff7f0e"/>
     <use xlink:href="#mda4ed67d1e" x="342.912297" y="83.331347" style="fill-opacity: 0; stroke: #ff7f0e"/>
     <use xlink:href="#mda4ed67d1e" x="345.187067" y="94.321049" style="fill-opacity: 0; stroke: #ff7f0e"/>
     <use xlink:href="#mda4ed67d1e" x="347.461837" y="104.556799" style="fill-opacity: 0; stroke: #ff7f0e"/>
     <use xlink:href="#mda4ed67d1e" x="349.736607" y="113.961282" style="fill-opacity: 0; stroke: #ff7f0e"/>
     <use xlink:href="#mda4ed67d1e" x="352.011377" y="122.548902" style="fill-opacity: 0; stroke: #ff7f0e"/>
     <use xlink:href="#mda4ed67d1e" x="354.286146" y="130.368464" style="fill-opacity: 0; stroke: #ff7f0e"/>
     <use xlink:href="#mda4ed67d1e" x="356.560916" y="137.479381" style="fill-opacity: 0; stroke: #ff7f0e"/>
     <use xlink:href="#mda4ed67d1e" x="358.835686" y="143.94197" style="fill-opacity: 0; stroke: #ff7f0e"/>
     <use xlink:href="#mda4ed67d1e" x="361.110456" y="149.813699" style="fill-opacity: 0; stroke: #ff7f0e"/>
     <use xlink:href="#mda4ed67d1e" x="363.385226" y="155.147896" style="fill-opacity: 0; stroke: #ff7f0e"/>
     <use xlink:href="#mda4ed67d1e" x="365.659996" y="159.993482" style="fill-opacity: 0; stroke: #ff7f0e"/>
     <use xlink:href="#mda4ed67d1e" x="367.934765" y="164.395091" style="fill-opacity: 0; stroke: #ff7f0e"/>
     <use xlink:href="#mda4ed67d1e" x="370.209535" y="168.393352" style="fill-opacity: 0; stroke: #ff7f0e"/>
     <use xlink:href="#mda4ed67d1e" x="372.484305" y="172.025204" style="fill-opacity: 0; stroke: #ff7f0e"/>
     <use xlink:href="#mda4ed67d1e" x="374.759075" y="175.32422" style="fill-opacity: 0; stroke: #ff7f0e"/>
     <use xlink:href="#mda4ed67d1e" x="377.033845" y="178.320896" style="fill-opacity: 0; stroke: #ff7f0e"/>
     <use xlink:href="#mda4ed67d1e" x="379.308615" y="181.04294" style="fill-opacity: 0; stroke: #ff7f0e"/>
     <use xlink:href="#mda4ed67d1e" x="381.583385" y="183.515519" style="fill-opacity: 0; stroke: #ff7f0e"/>
     <use xlink:href="#mda4ed67d1e" x="383.858154" y="185.761498" style="fill-opacity: 0; stroke: #ff7f0e"/>
     <use xlink:href="#mda4ed67d1e" x="386.132924" y="187.801642" style="fill-opacity: 0; stroke: #ff7f0e"/>
    </g>
   </g>
   <g id="line2d_55">
    <g clip-path="url(#pc53f8a7b26)">
     <use xlink:href="#maded3ffeda" x="331.538448" y="208.022727" style="fill-opacity: 0; stroke: #2ca02c; stroke-linejoin: miter"/>
     <use xlink:href="#maded3ffeda" x="332.10714" y="48.587641" style="fill-opacity: 0; stroke: #2ca02c; stroke-linejoin: miter"/>
     <use xlink:href="#maded3ffeda" x="332.675833" y="48.477273" style="fill-opacity: 0; stroke: #2ca02c; stroke-linejoin: miter"/>
     <use xlink:href="#maded3ffeda" x="333.244525" y="48.488852" style="fill-opacity: 0; stroke: #2ca02c; stroke-linejoin: miter"/>
     <use xlink:href="#maded3ffeda" x="333.813218" y="48.58822" style="fill-opacity: 0; stroke: #2ca02c; stroke-linejoin: miter"/>
     <use xlink:href="#maded3ffeda" x="334.38191" y="48.914607" style="fill-opacity: 0; stroke: #2ca02c; stroke-linejoin: miter"/>
     <use xlink:href="#maded3ffeda" x="334.950603" y="49.58429" style="fill-opacity: 0; stroke: #2ca02c; stroke-linejoin: miter"/>
     <use xlink:href="#maded3ffeda" x="335.519295" y="50.647162" style="fill-opacity: 0; stroke: #2ca02c; stroke-linejoin: miter"/>
     <use xlink:href="#maded3ffeda" x="336.087988" y="52.096344" style="fill-opacity: 0; stroke: #2ca02c; stroke-linejoin: miter"/>
     <use xlink:href="#maded3ffeda" x="336.65668" y="53.891856" style="fill-opacity: 0; stroke: #2ca02c; stroke-linejoin: miter"/>
     <use xlink:href="#maded3ffeda" x="337.225373" y="55.979789" style="fill-opacity: 0; stroke: #2ca02c; stroke-linejoin: miter"/>
     <use xlink:href="#maded3ffeda" x="337.794065" y="58.304031" style="fill-opacity: 0; stroke: #2ca02c; stroke-linejoin: miter"/>
     <use xlink:href="#maded3ffeda" x="338.362757" y="60.812282" style="fill-opacity: 0; stroke: #2ca02c; stroke-linejoin: miter"/>
     <use xlink:href="#maded3ffeda" x="338.93145" y="63.458583" style="fill-opacity: 0; stroke: #2ca02c; stroke-linejoin: miter"/>
     <use xlink:href="#maded3ffeda" x="339.500142" y="66.203945" style="fill-opacity: 0; stroke: #2ca02c; stroke-linejoin: miter"/>
     <use xlink:href="#maded3ffeda" x="340.068835" y="69.01603" style="fill-opacity: 0; stroke: #2ca02c; stroke-linejoin: miter"/>
     <use xlink:href="#maded3ffeda" x="340.637527" y="71.868419" style="fill-opacity: 0; stroke: #2ca02c; stroke-linejoin: miter"/>
     <use xlink:href="#maded3ffeda" x="341.20622" y="74.739786" style="fill-opacity: 0; stroke: #2ca02c; stroke-linejoin: miter"/>
     <use xlink:href="#maded3ffeda" x="341.774912" y="77.613066" style="fill-opacity: 0; stroke: #2ca02c; stroke-linejoin: miter"/>
     <use xlink:href="#maded3ffeda" x="342.343605" y="80.474716" style="fill-opacity: 0; stroke: #2ca02c; stroke-linejoin: miter"/>
     <use xlink:href="#maded3ffeda" x="342.912297" y="83.314079" style="fill-opacity: 0; stroke: #2ca02c; stroke-linejoin: miter"/>
     <use xlink:href="#maded3ffeda" x="343.48099" y="86.122845" style="fill-opacity: 0; stroke: #2ca02c; stroke-linejoin: miter"/>
     <use xlink:href="#maded3ffeda" x="344.049682" y="88.894603" style="fill-opacity: 0; stroke: #2ca02c; stroke-linejoin: miter"/>
     <use xlink:href="#maded3ffeda" x="344.618375" y="91.624465" style="fill-opacity: 0; stroke: #2ca02c; stroke-linejoin: miter"/>
     <use xlink:href="#maded3ffeda" x="345.187067" y="94.308782" style="fill-opacity: 0; stroke: #2ca02c; stroke-linejoin: miter"/>
    </g>
   </g>
   <g id="line2d_56">
    <path d="M 331.538448 208.022727 
L 331.680621 76.062223 
L 331.822794 54.253392 
L 331.964967 50.734943 
L 332.10714 50.16645 
L 332.391487 50.059471 
L 333.671045 50.126037 
L 334.239737 50.380918 
L 334.80843 50.955382 
L 335.377122 51.915838 
L 336.087988 53.66201 
L 336.941026 56.456918 
L 338.078411 61.068982 
L 339.784489 69.085238 
L 346.324452 100.764971 
L 348.883568 111.662519 
L 351.300511 120.996615 
L 353.717454 129.44948 
L 356.134397 137.090435 
L 358.55134 143.991964 
L 360.968283 150.223435 
L 363.385226 155.849033 
L 365.802169 160.927321 
L 368.219112 165.511409 
L 370.778228 169.879797 
L 373.337344 173.799313 
L 375.89646 177.316071 
L 378.455576 180.471453 
L 381.156865 183.451057 
L 383.858154 186.108424 
L 386.701617 188.595783 
L 389.687252 190.904249 
L 392.815061 193.028998 
L 396.085042 194.968896 
L 399.497197 196.726064 
L 403.051525 198.305414 
L 406.890199 199.764061 
L 411.013219 201.087809 
L 415.420586 202.269118 
L 420.254472 203.334691 
L 425.65705 204.29386 
L 431.770494 205.144785 
L 438.736977 205.880378 
L 446.840844 206.502987 
L 456.508616 207.013775 
L 468.593331 207.418087 
L 484.51672 207.714772 
L 507.833111 207.908061 
L 550.485046 208.003909 
L 558.873259 208.009538 
L 558.873259 208.009538 
" clip-path="url(#pc53f8a7b26)" style="fill: none; stroke-dasharray: 1.5,2.475; stroke-dashoffset: 0; stroke: #000000; stroke-width: 1.5"/>
   </g>
   <g id="patch_8">
    <path d="M 320.171707 216 
L 320.171707 40.5 
" style="fill: none; stroke: #000000; stroke-width: 0.8; stroke-linejoin: miter; stroke-linecap: square"/>
   </g>
   <g id="patch_9">
    <path d="M 570.24 216 
L 570.24 40.5 
" style="fill: none; stroke: #000000; stroke-width: 0.8; stroke-linejoin: miter; stroke-linecap: square"/>
   </g>
   <g id="patch_10">
    <path d="M 320.171707 216 
L 570.24 216 
" style="fill: none; stroke: #000000; stroke-width: 0.8; stroke-linejoin: miter; stroke-linecap: square"/>
   </g>
   <g id="patch_11">
    <path d="M 320.171707 40.5 
L 570.24 40.5 
" style="fill: none; stroke: #000000; stroke-width: 0.8; stroke-linejoin: miter; stroke-linecap: square"/>
   </g>
   <g id="text_22">
    <!-- Long time -->
    <g transform="translate(320.171707 34.5)scale(0.16 -0.16)">
     <defs>
      <path id="CMSS17-4c" d="M 1670 416 
C 1594 416 1517 409 1440 409 
L 1101 409 
L 1101 4416 
L 563 4416 
L 563 0 
L 3002 0 
L 3002 416 
L 1670 416 
z
" transform="scale(0.015625)"/>
      <path id="CMSS17-6e" d="M 2618 1878 
C 2618 2283 2522 2816 1798 2816 
C 1389 2816 1120 2604 941 2386 
L 941 2783 
L 474 2783 
L 474 0 
L 960 0 
L 960 1556 
C 960 1962 1114 2425 1549 2425 
C 2112 2425 2131 2045 2131 1826 
L 2131 0 
L 2618 0 
L 2618 1878 
z
" transform="scale(0.015625)"/>
      <path id="CMSS17-67" d="M 2848 2816 
C 2483 2809 2170 2739 1914 2617 
C 1702 2783 1485 2816 1338 2816 
C 781 2816 358 2356 358 1824 
C 358 1481 550 1222 563 1209 
C 448 1049 384 876 384 684 
C 384 460 474 300 544 211 
C 211 6 166 -308 166 -429 
C 166 -896 749 -1280 1498 -1280 
C 2253 -1280 2835 -896 2835 -423 
C 2835 460 1856 467 1587 467 
L 1069 467 
C 973 467 717 467 717 793 
C 717 921 774 1004 781 1011 
C 877 940 1075 832 1338 832 
C 1869 832 2310 1279 2310 1824 
C 2310 2128 2170 2349 2112 2425 
L 2131 2425 
C 2150 2425 2419 2444 2515 2444 
C 2720 2444 2739 2438 2918 2419 
L 2848 2816 
z
M 1338 1184 
C 1120 1184 813 1317 813 1824 
C 813 2375 1165 2463 1331 2463 
C 1549 2463 1856 2330 1856 1824 
C 1856 1272 1504 1184 1338 1184 
z
M 1581 0 
C 1734 0 2381 0 2381 -436 
C 2381 -711 1984 -928 1504 -928 
C 1018 -928 621 -717 621 -429 
C 621 -397 621 0 1062 0 
L 1581 0 
z
" transform="scale(0.015625)"/>
     </defs>
     <use xlink:href="#CMSS17-4c" transform="scale(0.996264)"/>
     <use xlink:href="#CMSS17-6f" transform="translate(50.687105 0)scale(0.996264)"/>
     <use xlink:href="#CMSS17-6e" transform="translate(97.530729 0)scale(0.996264)"/>
     <use xlink:href="#CMSS17-67" transform="translate(145.735672 0)scale(0.996264)"/>
     <use xlink:href="#CMSS17-74" transform="translate(223.808408 0)scale(0.996264)"/>
     <use xlink:href="#CMSS17-69" transform="translate(257.639975 0)scale(0.996264)"/>
     <use xlink:href="#CMSS17-6d" transform="translate(279.820698 0)scale(0.996264)"/>
     <use xlink:href="#CMSS17-65" transform="translate(354.049952 0)scale(0.996264)"/>
    </g>
   </g>
   <g id="legend_1">
    <g id="patch_12">
     <path d="M 461.306002 129.748114 
L 560.44 129.748114 
Q 563.24 129.748114 563.24 126.948114 
L 563.24 50.3 
Q 563.24 47.5 560.44 47.5 
L 461.306002 47.5 
Q 458.506002 47.5 458.506002 50.3 
L 458.506002 126.948114 
Q 458.506002 129.748114 461.306002 129.748114 
z
" style="fill: #ffffff; opacity: 0.8; stroke: #cccccc; stroke-linejoin: miter"/>
    </g>
    <g id="line2d_57">
     <g>
      <use xlink:href="#m6acf49cb18" x="478.106002" y="58" style="fill-opacity: 0; stroke: #1f77b4"/>
     </g>
    </g>
    <g id="text_23">
     <!-- $L_x = 64$ -->
     <g transform="translate(503.306002 62.9)scale(0.14 -0.14)">
      <defs>
       <path id="CMMI12-4c" d="M 2349 3860 
C 2406 4102 2426 4166 2989 4166 
C 3162 4166 3206 4166 3206 4287 
C 3206 4352 3136 4352 3110 4352 
C 2982 4352 2835 4339 2707 4339 
L 1850 4339 
C 1728 4339 1587 4352 1466 4352 
C 1414 4352 1344 4352 1344 4230 
C 1344 4166 1402 4166 1498 4166 
C 1888 4166 1888 4115 1888 4045 
C 1888 4032 1888 3994 1862 3898 
L 998 472 
C 941 249 928 185 480 185 
C 358 185 294 185 294 70 
C 294 0 333 0 461 0 
L 3328 0 
C 3469 0 3475 6 3520 121 
L 4013 1478 
C 4026 1510 4038 1548 4038 1567 
C 4038 1605 4006 1631 3974 1631 
C 3968 1631 3936 1631 3923 1605 
C 3910 1599 3910 1586 3859 1465 
C 3654 905 3366 185 2285 185 
L 1670 185 
C 1581 185 1568 185 1530 191 
C 1459 198 1453 211 1453 262 
C 1453 306 1466 344 1478 402 
L 2349 3860 
z
" transform="scale(0.015625)"/>
       <path id="CMMI12-78" d="M 3034 2624 
C 2829 2585 2752 2431 2752 2310 
C 2752 2156 2874 2105 2963 2105 
C 3155 2105 3290 2271 3290 2444 
C 3290 2694 2982 2816 2714 2816 
C 2323 2816 2106 2451 2048 2329 
C 1901 2790 1504 2816 1389 2816 
C 736 2816 390 1993 390 1849 
C 390 1823 416 1790 461 1790 
C 512 1790 525 1829 538 1855 
C 755 2572 1184 2687 1370 2687 
C 1658 2687 1715 2438 1715 2284 
C 1715 2143 1677 1993 1600 1678 
L 1382 778 
C 1286 390 1101 64 762 64 
C 730 64 570 64 435 126 
C 666 166 717 358 717 435 
C 717 563 621 640 499 640 
C 346 640 179 505 179 300 
C 179 57 480 -64 755 -64 
C 1062 -64 1280 153 1414 415 
C 1517 64 1837 -64 2074 -64 
C 2726 -64 3072 751 3072 896 
C 3072 929 3046 955 3008 955 
C 2950 955 2944 922 2925 870 
C 2752 300 2381 64 2093 64 
C 1869 64 1747 204 1747 467 
C 1747 607 1773 712 1875 1146 
L 2099 2039 
C 2195 2425 2413 2687 2707 2687 
C 2720 2687 2899 2687 3034 2624 
z
" transform="scale(0.015625)"/>
       <path id="CMR17-3d" d="M 4115 2048 
C 4211 2048 4307 2048 4307 2156 
C 4307 2272 4198 2272 4090 2272 
L 512 2272 
C 403 2272 294 2272 294 2156 
C 294 2048 390 2048 486 2048 
L 4115 2048 
z
M 4090 927 
C 4198 927 4307 927 4307 1043 
C 4307 1152 4211 1152 4115 1152 
L 486 1152 
C 390 1152 294 1152 294 1043 
C 294 927 403 927 512 927 
L 4090 927 
z
" transform="scale(0.015625)"/>
      </defs>
      <use xlink:href="#CMMI12-4c" transform="scale(0.996264)"/>
      <use xlink:href="#CMMI12-78" transform="translate(66.370875 -14.943915)scale(0.697382)"/>
      <use xlink:href="#CMR17-3d" transform="translate(133.346675 0)scale(0.996264)"/>
      <use xlink:href="#CMR17-36" transform="translate(232.735473 0)scale(0.996264)"/>
      <use xlink:href="#CMR17-34" transform="translate(278.42595 0)scale(0.996264)"/>
     </g>
    </g>
    <g id="line2d_58">
     <g>
      <use xlink:href="#mda4ed67d1e" x="478.106002" y="77.512028" style="fill-opacity: 0; stroke: #ff7f0e"/>
     </g>
    </g>
    <g id="text_24">
     <!-- $L_x = 128$ -->
     <g transform="translate(503.306002 82.412028)scale(0.14 -0.14)">
      <use xlink:href="#CMMI12-4c" transform="scale(0.996264)"/>
      <use xlink:href="#CMMI12-78" transform="translate(66.370875 -14.943915)scale(0.697382)"/>
      <use xlink:href="#CMR17-3d" transform="translate(133.346675 0)scale(0.996264)"/>
      <use xlink:href="#CMR17-31" transform="translate(232.735473 0)scale(0.996264)"/>
      <use xlink:href="#CMR17-32" transform="translate(278.42595 0)scale(0.996264)"/>
      <use xlink:href="#CMR17-38" transform="translate(324.116427 0)scale(0.996264)"/>
     </g>
    </g>
    <g id="line2d_59">
     <g>
      <use xlink:href="#maded3ffeda" x="478.106002" y="97.024057" style="fill-opacity: 0; stroke: #2ca02c; stroke-linejoin: miter"/>
     </g>
    </g>
    <g id="text_25">
     <!-- $L_x = 256$ -->
     <g transform="translate(503.306002 101.924057)scale(0.14 -0.14)">
      <defs>
       <path id="CMR17-35" d="M 730 3750 
C 794 3724 1056 3641 1325 3641 
C 1920 3641 2246 3961 2432 4140 
C 2432 4191 2432 4224 2394 4224 
C 2387 4224 2374 4224 2323 4198 
C 2099 4102 1837 4032 1517 4032 
C 1325 4032 1037 4055 723 4191 
C 653 4224 640 4224 634 4224 
C 602 4224 595 4217 595 4090 
L 595 2231 
C 595 2113 595 2080 659 2080 
C 691 2080 704 2093 736 2139 
C 941 2435 1222 2560 1542 2560 
C 1766 2560 2246 2415 2246 1293 
C 2246 1087 2246 716 2054 422 
C 1894 159 1645 25 1370 25 
C 947 25 518 319 403 812 
C 429 806 480 793 506 793 
C 589 793 749 838 749 1036 
C 749 1209 627 1280 506 1280 
C 358 1280 262 1190 262 1011 
C 262 454 704 -128 1382 -128 
C 2042 -128 2669 441 2669 1267 
C 2669 2054 2170 2662 1549 2662 
C 1222 2662 947 2540 730 2304 
L 730 3750 
z
" transform="scale(0.015625)"/>
      </defs>
      <use xlink:href="#CMMI12-4c" transform="scale(0.996264)"/>
      <use xlink:href="#CMMI12-78" transform="translate(66.370875 -14.943915)scale(0.697382)"/>
      <use xlink:href="#CMR17-3d" transform="translate(133.346675 0)scale(0.996264)"/>
      <use xlink:href="#CMR17-32" transform="translate(232.735473 0)scale(0.996264)"/>
      <use xlink:href="#CMR17-35" transform="translate(278.42595 0)scale(0.996264)"/>
      <use xlink:href="#CMR17-36" transform="translate(324.116427 0)scale(0.996264)"/>
     </g>
    </g>
    <g id="line2d_60">
     <path d="M 464.106002 116.536085 
L 478.106002 116.536085 
L 492.106002 116.536085 
" style="fill: none; stroke-dasharray: 1.5,2.475; stroke-dashoffset: 0; stroke: #000000; stroke-width: 1.5"/>
    </g>
    <g id="text_26">
     <!-- theory -->
     <g transform="translate(503.306002 121.436085)scale(0.14 -0.14)">
      <defs>
       <path id="CMSS17-79" d="M 2675 2752 
L 2176 2752 
C 1632 1293 1446 701 1434 383 
L 1427 383 
C 1408 695 1126 1459 902 2006 
L 602 2752 
L 83 2752 
L 1216 14 
C 1146 -177 1043 -464 1011 -527 
C 870 -884 774 -884 672 -884 
C 646 -884 442 -877 211 -807 
L 250 -1229 
C 410 -1261 570 -1280 685 -1280 
C 845 -1280 1165 -1280 1459 -495 
L 2675 2752 
z
" transform="scale(0.015625)"/>
      </defs>
      <use xlink:href="#CMSS17-74" transform="scale(0.996264)"/>
      <use xlink:href="#CMSS17-68" transform="translate(33.831567 0)scale(0.996264)"/>
      <use xlink:href="#CMSS17-65" transform="translate(82.03651 0)scale(0.996264)"/>
      <use xlink:href="#CMSS17-6f" transform="translate(123.675332 0)scale(0.996264)"/>
      <use xlink:href="#CMSS17-72" transform="translate(167.916501 0)scale(0.996264)"/>
      <use xlink:href="#CMSS17-79" transform="translate(199.826274 0)scale(0.996264)"/>
     </g>
    </g>
   </g>
  </g>
 </g>
 <defs>
  <clipPath id="pb18fcf54f1">
   <rect x="57.6" y="40.5" width="250.068293" height="175.5"/>
  </clipPath>
  <clipPath id="pc53f8a7b26">
   <rect x="320.171707" y="40.5" width="250.068293" height="175.5"/>
  </clipPath>
 </defs>
</svg>
