<?xml version="1.0" encoding="UTF-8" standalone="no"?>
<!-- Created with Inkscape (http://www.inkscape.org/) -->

<svg
   inkscape:version="1.1 (c4e8f9e, 2021-05-24)"
   sodipodi:docname="walls_wet_ternary.svg"
   id="svg5"
   version="1.1"
   viewBox="0 0 66.410416 42.597916"
   height="42.597916mm"
   width="66.410416mm"
   xmlns:inkscape="http://www.inkscape.org/namespaces/inkscape"
   xmlns:sodipodi="http://sodipodi.sourceforge.net/DTD/sodipodi-0.dtd"
   xmlns="http://www.w3.org/2000/svg"
   xmlns:svg="http://www.w3.org/2000/svg"
   xmlns:ns0="http://www.iki.fi/pav/software/textext/">
  <sodipodi:namedview
     id="namedview7"
     pagecolor="#ffffff"
     bordercolor="#666666"
     borderopacity="1.0"
     inkscape:pageshadow="2"
     inkscape:pageopacity="0.0"
     inkscape:pagecheckerboard="0"
     inkscape:document-units="mm"
     showgrid="true"
     inkscape:zoom="1.7074504"
     inkscape:cx="108.34868"
     inkscape:cy="129.72558"
     inkscape:window-width="1312"
     inkscape:window-height="1003"
     inkscape:window-x="536"
     inkscape:window-y="113"
     inkscape:window-maximized="0"
     inkscape:current-layer="layer1"
     inkscape:snap-bbox="true"
     fit-margin-top="0"
     fit-margin-left="0"
     fit-margin-right="0"
     fit-margin-bottom="0"
     inkscape:object-paths="false"
     inkscape:object-nodes="false">
    <inkscape:grid
       type="xygrid"
       id="grid1255"
       units="px"
       empspacing="10"
       originx="-15.742706"
       originy="-89.826033" />
  </sodipodi:namedview>
  <defs
     id="defs2" />
  <g
     inkscape:label="Layer 1"
     inkscape:groupmode="layer"
     id="layer1"
     transform="translate(-15.742709,-89.826037)">
    <rect
       style="fill:none;fill-rule:evenodd;stroke-width:0.264583"
       id="rect94"
       width="44.933434"
       height="33.894424"
       x="52.240948"
       y="110.07914" />
    <rect
       style="fill:none;stroke:#000000;stroke-width:0.261905;stroke-opacity:1"
       id="rect1448"
       width="65.738098"
       height="41.738094"
       x="15.873661"
       y="89.956985" />
    <g
       transform="matrix(0.705556,0,0,0.705556,19.309258,103.56986)"
       ns0:version="1.4.0"
       ns0:texconverter="pdflatex"
       ns0:pdfconverter="inkscape"
       ns0:text="$C_1$\n"
       ns0:preamble="default_packages.tex"
       ns0:scale="2.0"
       ns0:alignment="middle center"
       ns0:inkscapeversion="1.1"
       ns0:jacobian_sqrt="0.705556"
       id="g8816">
      <defs
         id="id-cca8fd2e-cd16-4e8e-8c68-914e03e61dce" />
      <g
         id="id-709f6109-884c-4e14-8100-eb499303bc8b"
         transform="translate(-149.212,-127.734)">
        <g
           style="fill:#000000"
           id="id-7d3d0f1f-94cf-4804-a83b-c1a929824f80">
          <g
             id="id-ea63a483-6beb-4d4a-8ba7-0dcd91d1c6a0"
             transform="translate(148.712,134.765)">
            <path
               style="color:#000000;-inkscape-stroke:none"
               d="m 7.578125,-6.921875 c 0,-0.03125 -0.015625,-0.109375 -0.109375,-0.109375 -0.03125,0 -0.046875,0.015625 -0.15625,0.125 L 6.625,-6.140625 C 6.53125,-6.28125 6.078125,-7.03125 4.96875,-7.03125 2.734375,-7.03125 0.5,-4.828125 0.5,-2.515625 0.5,-0.875 1.671875,0.21875 3.203125,0.21875 c 0.859375,0 1.625,-0.390625 2.15625,-0.859375 0.921875,-0.8125 1.09375,-1.71875 1.09375,-1.75 C 6.453125,-2.5 6.34375,-2.5 6.328125,-2.5 c -0.0625,0 -0.109375,0.03125 -0.125,0.109375 -0.09375,0.28125 -0.328125,1 -1.015625,1.578125 -0.6875,0.546875 -1.3125,0.71875 -1.828125,0.71875 -0.890625,0 -1.953125,-0.515625 -1.953125,-2.0625 0,-0.578125 0.203125,-2.1875 1.203125,-3.359375 0.609375,-0.703125 1.546875,-1.203125 2.4375,-1.203125 1.015625,0 1.609375,0.765625 1.609375,1.921875 0,0.40625 -0.03125,0.40625 -0.03125,0.515625 0,0.09375 0.109375,0.09375 0.140625,0.09375 0.125,0 0.125,-0.015625 0.1875,-0.203125 z m 0,0"
               id="id-277d3e1d-a311-41fb-bc54-d3044b590cb8" />
          </g>
        </g>
        <g
           style="fill:#000000"
           id="id-20c2d03c-8db2-4646-a0eb-12f8e1c9b2b8">
          <g
             id="id-0a72be58-4736-4b0b-8e31-9b085ef80c87"
             transform="translate(155.833,136.259)">
            <path
               style="color:#000000;-inkscape-stroke:none"
               d="m 2.328125,-4.4375 c 0,-0.1875 0,-0.1875 -0.203125,-0.1875 -0.453125,0.4375 -1.078125,0.4375 -1.359375,0.4375 v 0.25 c 0.15625,0 0.625,0 1,-0.1875 v 3.546875 c 0,0.234375 0,0.328125 -0.6875,0.328125 H 0.8125 V 0 c 0.125,0 0.984375,-0.03125 1.234375,-0.03125 0.21875,0 1.09375,0.03125 1.25,0.03125 V -0.25 H 3.03125 c -0.703125,0 -0.703125,-0.09375 -0.703125,-0.328125 z m 0,0"
               id="id-2c600690-1830-417b-a20f-95c01c7b44c2" />
          </g>
        </g>
      </g>
    </g>
    <g
       transform="matrix(0.705556,0,0,0.705556,69.360736,93.597057)"
       ns0:version="1.4.0"
       ns0:texconverter="pdflatex"
       ns0:pdfconverter="inkscape"
       ns0:text="$C_2$\n"
       ns0:preamble="default_packages.tex"
       ns0:scale="2.0"
       ns0:alignment="middle center"
       ns0:inkscapeversion="1.1"
       ns0:jacobian_sqrt="0.705556"
       id="g9106">
      <defs
         id="id-7c7bdff9-ddab-4163-98b7-955e5e2c3e1f" />
      <g
         id="id-a0a8bfa6-14c1-40fb-a493-7b4f973b6204"
         transform="translate(-149.212,-127.734)">
        <g
           style="fill:#000000"
           id="id-3c380f64-ad8d-4578-b1ed-40ab9285a5fd">
          <g
             id="id-faec1114-5946-4621-b2e4-05e80e22e02a"
             transform="translate(148.712,134.765)">
            <path
               style="color:#000000;-inkscape-stroke:none"
               d="m 7.578125,-6.921875 c 0,-0.03125 -0.015625,-0.109375 -0.109375,-0.109375 -0.03125,0 -0.046875,0.015625 -0.15625,0.125 L 6.625,-6.140625 C 6.53125,-6.28125 6.078125,-7.03125 4.96875,-7.03125 2.734375,-7.03125 0.5,-4.828125 0.5,-2.515625 0.5,-0.875 1.671875,0.21875 3.203125,0.21875 c 0.859375,0 1.625,-0.390625 2.15625,-0.859375 0.921875,-0.8125 1.09375,-1.71875 1.09375,-1.75 C 6.453125,-2.5 6.34375,-2.5 6.328125,-2.5 c -0.0625,0 -0.109375,0.03125 -0.125,0.109375 -0.09375,0.28125 -0.328125,1 -1.015625,1.578125 -0.6875,0.546875 -1.3125,0.71875 -1.828125,0.71875 -0.890625,0 -1.953125,-0.515625 -1.953125,-2.0625 0,-0.578125 0.203125,-2.1875 1.203125,-3.359375 0.609375,-0.703125 1.546875,-1.203125 2.4375,-1.203125 1.015625,0 1.609375,0.765625 1.609375,1.921875 0,0.40625 -0.03125,0.40625 -0.03125,0.515625 0,0.09375 0.109375,0.09375 0.140625,0.09375 0.125,0 0.125,-0.015625 0.1875,-0.203125 z m 0,0"
               id="id-db9f3b8a-19d6-4331-a68f-9aa08c13054f" />
          </g>
        </g>
        <g
           style="fill:#000000"
           id="id-922753bd-8256-4d63-a5b8-a1745e1eb5f5">
          <g
             id="id-61b8bca8-26ff-4da1-a8f3-a4657ec7348a"
             transform="translate(155.833,136.259)">
            <path
               style="color:#000000;-inkscape-stroke:none"
               d="M 3.515625,-1.265625 H 3.28125 c -0.015625,0.15625 -0.09375,0.5625 -0.1875,0.625 C 3.046875,-0.59375 2.515625,-0.59375 2.40625,-0.59375 H 1.125 c 0.734375,-0.640625 0.984375,-0.84375 1.390625,-1.171875 0.515625,-0.40625 1,-0.84375 1,-1.5 0,-0.84375 -0.734375,-1.359375 -1.625,-1.359375 -0.859375,0 -1.453125,0.609375 -1.453125,1.25 0,0.34375 0.296875,0.390625 0.375,0.390625 0.15625,0 0.359375,-0.125 0.359375,-0.375 0,-0.125 -0.046875,-0.375 -0.40625,-0.375 C 0.984375,-4.21875 1.453125,-4.375 1.78125,-4.375 c 0.703125,0 1.0625,0.546875 1.0625,1.109375 0,0.609375 -0.4375,1.078125 -0.65625,1.328125 L 0.515625,-0.265625 C 0.4375,-0.203125 0.4375,-0.1875 0.4375,0 h 2.875 z m 0,0"
               id="id-0176d814-a9d4-414f-b4a5-ba9a2542bc6f" />
          </g>
        </g>
      </g>
    </g>
    <path
       style="fill:none;stroke:#000000;stroke-width:0.262385px;stroke-linecap:butt;stroke-linejoin:miter;stroke-opacity:1"
       d="m 15.744854,119.69486 c 14.29153,-0.22901 31.652869,-8.19339 34.879475,-14.81133"
       id="path2062"
       sodipodi:nodetypes="cc" />
    <path
       style="fill:none;stroke:#000000;stroke-width:0.263734px;stroke-linecap:butt;stroke-linejoin:miter;stroke-opacity:1"
       d="m 50.84657,104.90951 c 6.835806,8.36065 15.80345,14.60816 30.894515,14.78593"
       id="path2778"
       sodipodi:nodetypes="cc" />
    <path
       style="fill:none;stroke:#000000;stroke-width:0.262921px;stroke-linecap:butt;stroke-linejoin:miter;stroke-opacity:1"
       d="M 50.613128,104.80433 C 49.782756,99.801364 45.253675,93.940024 40.829641,89.92374"
       id="path2780"
       sodipodi:nodetypes="cc" />
    <text
       xml:space="preserve"
       style="font-style:normal;font-weight:normal;font-size:10.5833px;line-height:1.25;font-family:sans-serif;fill:#000000;fill-opacity:1;stroke:none;stroke-width:0.264583"
       x="34.395836"
       y="156.10417"
       id="text10909"><tspan
         sodipodi:role="line"
         id="tspan10907"
         style="stroke-width:0.264583"
         x="34.395836"
         y="156.10417" /></text>
    <g
       transform="matrix(0.705556 0 0 0.705556 24.5248 31.3157)"
       ns0:version="1.4.0"
       ns0:texconverter="pdflatex"
       ns0:pdfconverter="inkscape"
       ns0:text="$\\theta_{12}$\n"
       ns0:preamble="default_packages.tex"
       ns0:scale="2.0"
       ns0:alignment="middle center"
       ns0:inkscapeversion="1.1"
       ns0:jacobian_sqrt="0.705556"
       id="g11538">
      <defs
         id="id-7c407de6-295b-492e-ab22-db666ecc74a8" />
      <g
         id="id-b6ba4563-5f39-45fa-8a9b-1705e616b61c"
         transform="translate(-149.134, -127.734)">
        <g
           style="fill:#000000"
           id="id-f768ecfd-afad-4e0f-b0eb-a9e77cc70684">
          <g
             id="id-68532c92-167d-4a2f-bb56-aad06f6befcc"
             transform="translate(148.712, 134.765)">
            <path
               style="color:#000000;-inkscape-stroke:none"
               d="m 4.53125,-4.984375 c 0,-0.65625 -0.171875,-2.046875 -1.1875,-2.046875 -1.390625,0 -2.921875,2.8125 -2.921875,5.09375 0,0.9375 0.28125,2.046875 1.1875,2.046875 1.40625,0 2.921875,-2.859375 2.921875,-5.09375 z M 1.46875,-3.625 C 1.640625,-4.25 1.84375,-5.046875 2.25,-5.765625 2.515625,-6.25 2.875,-6.8125 3.328125,-6.8125 c 0.484375,0 0.546875,0.640625 0.546875,1.203125 0,0.5 -0.078125,1 -0.3125,1.984375 z m 2,0.328125 C 3.359375,-2.84375 3.15625,-2 2.765625,-1.28125 c -0.34375,0.6875 -0.71875,1.171875 -1.15625,1.171875 -0.328125,0 -0.53125,-0.296875 -0.53125,-1.21875 0,-0.421875 0.0625,-1 0.3125,-1.96875 z m 0,0"
               id="id-89ef0cf9-451f-4379-8bbd-df6fb566b7e3" />
          </g>
        </g>
        <g
           style="fill:#000000"
           id="id-b02f2353-e205-4877-a501-f56b2f880a30">
          <g
             id="id-c57cb654-2832-4c2a-bfa8-100df67962a5"
             transform="translate(153.389, 136.259)">
            <path
               style="color:#000000;-inkscape-stroke:none"
               d="m 2.328125,-4.4375 c 0,-0.1875 0,-0.1875 -0.203125,-0.1875 -0.453125,0.4375 -1.078125,0.4375 -1.359375,0.4375 v 0.25 c 0.15625,0 0.625,0 1,-0.1875 v 3.546875 c 0,0.234375 0,0.328125 -0.6875,0.328125 H 0.8125 V 0 c 0.125,0 0.984375,-0.03125 1.234375,-0.03125 0.21875,0 1.09375,0.03125 1.25,0.03125 V -0.25 H 3.03125 c -0.703125,0 -0.703125,-0.09375 -0.703125,-0.328125 z m 0,0"
               id="id-dac35b0b-de4e-4e81-a124-68521dcf56ee" />
          </g>
          <g
             id="id-1b4fe165-ef3d-41f4-a24d-69b2aa912713"
             transform="translate(157.361, 136.259)">
            <path
               style="color:#000000;-inkscape-stroke:none"
               d="M 3.515625,-1.265625 H 3.28125 c -0.015625,0.15625 -0.09375,0.5625 -0.1875,0.625 C 3.046875,-0.59375 2.515625,-0.59375 2.40625,-0.59375 H 1.125 c 0.734375,-0.640625 0.984375,-0.84375 1.390625,-1.171875 0.515625,-0.40625 1,-0.84375 1,-1.5 0,-0.84375 -0.734375,-1.359375 -1.625,-1.359375 -0.859375,0 -1.453125,0.609375 -1.453125,1.25 0,0.34375 0.296875,0.390625 0.375,0.390625 0.15625,0 0.359375,-0.125 0.359375,-0.375 0,-0.125 -0.046875,-0.375 -0.40625,-0.375 C 0.984375,-4.21875 1.453125,-4.375 1.78125,-4.375 c 0.703125,0 1.0625,0.546875 1.0625,1.109375 0,0.609375 -0.4375,1.078125 -0.65625,1.328125 L 0.515625,-0.265625 C 0.4375,-0.203125 0.4375,-0.1875 0.4375,0 h 2.875 z m 0,0"
               id="id-f3b63393-ddfb-42d3-a585-71321c80d256" />
          </g>
        </g>
      </g>
    </g>
    <g
       transform="matrix(0.705556 0 0 0.705556 24.5248 31.3157)"
       ns0:version="1.4.0"
       ns0:texconverter="pdflatex"
       ns0:pdfconverter="inkscape"
       ns0:text="$\\theta_{12}$\n"
       ns0:preamble="default_packages.tex"
       ns0:scale="2.0"
       ns0:alignment="middle center"
       ns0:inkscapeversion="1.1"
       ns0:jacobian_sqrt="0.705556"
       id="g14242">
      <defs
         id="id-50bd8a6d-e8d7-44a6-9dd4-4600ba3b7d34" />
      <g
         id="id-dd27bf10-eb58-41d6-8ce7-3e45359612ab"
         transform="translate(-149.134, -127.734)">
        <g
           style="fill:#000000"
           id="id-7cf6f3e8-4483-4eb8-9a37-0c3b94987233">
          <g
             id="id-d6b3dff2-dc7b-491a-af93-3e00632d12ec"
             transform="translate(148.712, 134.765)">
            <path
               style="color:#000000;-inkscape-stroke:none"
               d="m 4.53125,-4.984375 c 0,-0.65625 -0.171875,-2.046875 -1.1875,-2.046875 -1.390625,0 -2.921875,2.8125 -2.921875,5.09375 0,0.9375 0.28125,2.046875 1.1875,2.046875 1.40625,0 2.921875,-2.859375 2.921875,-5.09375 z M 1.46875,-3.625 C 1.640625,-4.25 1.84375,-5.046875 2.25,-5.765625 2.515625,-6.25 2.875,-6.8125 3.328125,-6.8125 c 0.484375,0 0.546875,0.640625 0.546875,1.203125 0,0.5 -0.078125,1 -0.3125,1.984375 z m 2,0.328125 C 3.359375,-2.84375 3.15625,-2 2.765625,-1.28125 c -0.34375,0.6875 -0.71875,1.171875 -1.15625,1.171875 -0.328125,0 -0.53125,-0.296875 -0.53125,-1.21875 0,-0.421875 0.0625,-1 0.3125,-1.96875 z m 0,0"
               id="id-2769a605-9fd9-4f42-89d3-ee81c4bd26a2" />
          </g>
        </g>
        <g
           style="fill:#000000"
           id="id-d1cd7bea-a367-4f91-9a60-8c80751d2968">
          <g
             id="id-5032b830-51b4-4668-ab08-8c1d60b817c3"
             transform="translate(153.389, 136.259)">
            <path
               style="color:#000000;-inkscape-stroke:none"
               d="m 2.328125,-4.4375 c 0,-0.1875 0,-0.1875 -0.203125,-0.1875 -0.453125,0.4375 -1.078125,0.4375 -1.359375,0.4375 v 0.25 c 0.15625,0 0.625,0 1,-0.1875 v 3.546875 c 0,0.234375 0,0.328125 -0.6875,0.328125 H 0.8125 V 0 c 0.125,0 0.984375,-0.03125 1.234375,-0.03125 0.21875,0 1.09375,0.03125 1.25,0.03125 V -0.25 H 3.03125 c -0.703125,0 -0.703125,-0.09375 -0.703125,-0.328125 z m 0,0"
               id="id-48395332-5525-4333-99f6-cb3535c23a35" />
          </g>
          <g
             id="id-a9442904-c902-4f3e-882f-777a6b8dfef3"
             transform="translate(157.361, 136.259)">
            <path
               style="color:#000000;-inkscape-stroke:none"
               d="M 3.515625,-1.265625 H 3.28125 c -0.015625,0.15625 -0.09375,0.5625 -0.1875,0.625 C 3.046875,-0.59375 2.515625,-0.59375 2.40625,-0.59375 H 1.125 c 0.734375,-0.640625 0.984375,-0.84375 1.390625,-1.171875 0.515625,-0.40625 1,-0.84375 1,-1.5 0,-0.84375 -0.734375,-1.359375 -1.625,-1.359375 -0.859375,0 -1.453125,0.609375 -1.453125,1.25 0,0.34375 0.296875,0.390625 0.375,0.390625 0.15625,0 0.359375,-0.125 0.359375,-0.375 0,-0.125 -0.046875,-0.375 -0.40625,-0.375 C 0.984375,-4.21875 1.453125,-4.375 1.78125,-4.375 c 0.703125,0 1.0625,0.546875 1.0625,1.109375 0,0.609375 -0.4375,1.078125 -0.65625,1.328125 L 0.515625,-0.265625 C 0.4375,-0.203125 0.4375,-0.1875 0.4375,0 h 2.875 z m 0,0"
               id="id-f8b946be-b73f-445a-9268-ffde74feeaea" />
          </g>
        </g>
      </g>
    </g>
    <g
       transform="matrix(0.705556 0 0 0.705556 24.5248 31.3157)"
       ns0:version="1.4.0"
       ns0:texconverter="pdflatex"
       ns0:pdfconverter="inkscape"
       ns0:text="$\\theta_{12}$\n"
       ns0:preamble="default_packages.tex"
       ns0:scale="2.0"
       ns0:alignment="middle center"
       ns0:inkscapeversion="1.1"
       ns0:jacobian_sqrt="0.705556"
       id="g22530">
      <defs
         id="id-13b189f9-7a06-41fb-84d7-6b974ff9de8c" />
      <g
         id="id-717cbf6e-e045-401a-bf91-f9c2edced6b0"
         transform="translate(-149.134, -127.734)">
        <g
           style="fill:#000000"
           id="id-04da19af-36f0-4206-80cd-2644da025b8c">
          <g
             id="id-867c31dc-a112-48db-9184-6d59b840ff8a"
             transform="translate(148.712, 134.765)">
            <path
               style="color:#000000;-inkscape-stroke:none"
               d="m 4.53125,-4.984375 c 0,-0.65625 -0.171875,-2.046875 -1.1875,-2.046875 -1.390625,0 -2.921875,2.8125 -2.921875,5.09375 0,0.9375 0.28125,2.046875 1.1875,2.046875 1.40625,0 2.921875,-2.859375 2.921875,-5.09375 z M 1.46875,-3.625 C 1.640625,-4.25 1.84375,-5.046875 2.25,-5.765625 2.515625,-6.25 2.875,-6.8125 3.328125,-6.8125 c 0.484375,0 0.546875,0.640625 0.546875,1.203125 0,0.5 -0.078125,1 -0.3125,1.984375 z m 2,0.328125 C 3.359375,-2.84375 3.15625,-2 2.765625,-1.28125 c -0.34375,0.6875 -0.71875,1.171875 -1.15625,1.171875 -0.328125,0 -0.53125,-0.296875 -0.53125,-1.21875 0,-0.421875 0.0625,-1 0.3125,-1.96875 z m 0,0"
               id="id-c512850c-b66c-48d1-b55d-3e5acc6e0548" />
          </g>
        </g>
        <g
           style="fill:#000000"
           id="id-a57f12c0-7e63-4efb-9ef8-0f641ac6ac0f">
          <g
             id="id-fc8ba145-742d-44fc-9fc2-47cf496d6921"
             transform="translate(153.389, 136.259)">
            <path
               style="color:#000000;-inkscape-stroke:none"
               d="m 2.328125,-4.4375 c 0,-0.1875 0,-0.1875 -0.203125,-0.1875 -0.453125,0.4375 -1.078125,0.4375 -1.359375,0.4375 v 0.25 c 0.15625,0 0.625,0 1,-0.1875 v 3.546875 c 0,0.234375 0,0.328125 -0.6875,0.328125 H 0.8125 V 0 c 0.125,0 0.984375,-0.03125 1.234375,-0.03125 0.21875,0 1.09375,0.03125 1.25,0.03125 V -0.25 H 3.03125 c -0.703125,0 -0.703125,-0.09375 -0.703125,-0.328125 z m 0,0"
               id="id-9c8230b1-2be6-495f-93e0-e87dac789aa2" />
          </g>
          <g
             id="id-d0a1f625-f7d6-4f69-9860-000258686538"
             transform="translate(157.361, 136.259)">
            <path
               style="color:#000000;-inkscape-stroke:none"
               d="M 3.515625,-1.265625 H 3.28125 c -0.015625,0.15625 -0.09375,0.5625 -0.1875,0.625 C 3.046875,-0.59375 2.515625,-0.59375 2.40625,-0.59375 H 1.125 c 0.734375,-0.640625 0.984375,-0.84375 1.390625,-1.171875 0.515625,-0.40625 1,-0.84375 1,-1.5 0,-0.84375 -0.734375,-1.359375 -1.625,-1.359375 -0.859375,0 -1.453125,0.609375 -1.453125,1.25 0,0.34375 0.296875,0.390625 0.375,0.390625 0.15625,0 0.359375,-0.125 0.359375,-0.375 0,-0.125 -0.046875,-0.375 -0.40625,-0.375 C 0.984375,-4.21875 1.453125,-4.375 1.78125,-4.375 c 0.703125,0 1.0625,0.546875 1.0625,1.109375 0,0.609375 -0.4375,1.078125 -0.65625,1.328125 L 0.515625,-0.265625 C 0.4375,-0.203125 0.4375,-0.1875 0.4375,0 h 2.875 z m 0,0"
               id="id-d68debb4-882e-4bc3-8e81-52936451ffd8" />
          </g>
        </g>
      </g>
    </g>
    <g
       transform="matrix(0.705556 0 0 0.705556 24.5248 31.3157)"
       ns0:version="1.4.0"
       ns0:texconverter="pdflatex"
       ns0:pdfconverter="inkscape"
       ns0:text="$\\theta_{12}$\n\n"
       ns0:preamble=""
       ns0:scale="2.0"
       ns0:alignment="middle center"
       ns0:inkscapeversion="1.1"
       ns0:jacobian_sqrt="0.705556"
       id="g35158">
      <defs
         id="id-c556010b-1fc1-4ccc-a337-d4aca320a96d" />
      <g
         id="id-7fac976c-98fb-4e80-b91d-7d82199bdd11"
         transform="translate(-149.134, -127.734)">
        <g
           style="fill:#000000"
           id="id-29262fc8-c267-4d52-9d35-3ae2cb400ebc">
          <g
             id="id-e28454bd-c92e-462a-ad3c-5c150bba3952"
             transform="translate(148.712, 134.765)">
            <path
               style="color:#000000;-inkscape-stroke:none"
               d="m 4.53125,-4.984375 c 0,-0.65625 -0.171875,-2.046875 -1.1875,-2.046875 -1.390625,0 -2.921875,2.8125 -2.921875,5.09375 0,0.9375 0.28125,2.046875 1.1875,2.046875 1.40625,0 2.921875,-2.859375 2.921875,-5.09375 z M 1.46875,-3.625 C 1.640625,-4.25 1.84375,-5.046875 2.25,-5.765625 2.515625,-6.25 2.875,-6.8125 3.328125,-6.8125 c 0.484375,0 0.546875,0.640625 0.546875,1.203125 0,0.5 -0.078125,1 -0.3125,1.984375 z m 2,0.328125 C 3.359375,-2.84375 3.15625,-2 2.765625,-1.28125 c -0.34375,0.6875 -0.71875,1.171875 -1.15625,1.171875 -0.328125,0 -0.53125,-0.296875 -0.53125,-1.21875 0,-0.421875 0.0625,-1 0.3125,-1.96875 z m 0,0"
               id="id-14aeb88e-bfc2-4856-9810-16a64acf926e" />
          </g>
        </g>
        <g
           style="fill:#000000"
           id="id-a6572adc-c580-45d4-a327-10a2f70e69ec">
          <g
             id="id-3d5f42ba-f361-44a4-9b78-c80f3c2f257a"
             transform="translate(153.389, 136.259)">
            <path
               style="color:#000000;-inkscape-stroke:none"
               d="m 2.328125,-4.4375 c 0,-0.1875 0,-0.1875 -0.203125,-0.1875 -0.453125,0.4375 -1.078125,0.4375 -1.359375,0.4375 v 0.25 c 0.15625,0 0.625,0 1,-0.1875 v 3.546875 c 0,0.234375 0,0.328125 -0.6875,0.328125 H 0.8125 V 0 c 0.125,0 0.984375,-0.03125 1.234375,-0.03125 0.21875,0 1.09375,0.03125 1.25,0.03125 V -0.25 H 3.03125 c -0.703125,0 -0.703125,-0.09375 -0.703125,-0.328125 z m 0,0"
               id="id-6625c0d2-a94a-40c4-a129-25e4fad511c3" />
          </g>
          <g
             id="id-2509bd8f-3a82-4513-8846-77df82ea02bc"
             transform="translate(157.361, 136.259)">
            <path
               style="color:#000000;-inkscape-stroke:none"
               d="M 3.515625,-1.265625 H 3.28125 c -0.015625,0.15625 -0.09375,0.5625 -0.1875,0.625 C 3.046875,-0.59375 2.515625,-0.59375 2.40625,-0.59375 H 1.125 c 0.734375,-0.640625 0.984375,-0.84375 1.390625,-1.171875 0.515625,-0.40625 1,-0.84375 1,-1.5 0,-0.84375 -0.734375,-1.359375 -1.625,-1.359375 -0.859375,0 -1.453125,0.609375 -1.453125,1.25 0,0.34375 0.296875,0.390625 0.375,0.390625 0.15625,0 0.359375,-0.125 0.359375,-0.375 0,-0.125 -0.046875,-0.375 -0.40625,-0.375 C 0.984375,-4.21875 1.453125,-4.375 1.78125,-4.375 c 0.703125,0 1.0625,0.546875 1.0625,1.109375 0,0.609375 -0.4375,1.078125 -0.65625,1.328125 L 0.515625,-0.265625 C 0.4375,-0.203125 0.4375,-0.1875 0.4375,0 h 2.875 z m 0,0"
               id="id-5a47ede1-bc75-4369-a3ad-77d80a512439" />
          </g>
        </g>
      </g>
    </g>
    <g
       transform="matrix(0.705556 0 0 0.705556 25.0306 31.3157)"
       ns0:version="1.4.0"
       ns0:texconverter="pdflatex"
       ns0:pdfconverter="inkscape"
       ns0:text="$C_4$\n"
       ns0:preamble=""
       ns0:scale="2.0"
       ns0:alignment="middle center"
       ns0:inkscapeversion="1.1"
       ns0:jacobian_sqrt="0.705556"
       id="g43596">
      <defs
         id="id-e430f6ff-924e-4885-af2a-d119b8ee1830" />
      <g
         id="id-9ea5263c-63fc-4f9c-b7b0-e4174b1d5275"
         transform="translate(-149.212, -127.734)">
        <g
           style="fill:#000000"
           id="id-7d589a2a-3ac0-411a-a627-3f97ac5d4bd5">
          <g
             id="id-4062ce56-b95a-4070-a6f8-cae555edff86"
             transform="translate(148.712, 134.765)">
            <path
               style="color:#000000;-inkscape-stroke:none"
               d="m 7.578125,-6.921875 c 0,-0.03125 -0.015625,-0.109375 -0.109375,-0.109375 -0.03125,0 -0.046875,0.015625 -0.15625,0.125 L 6.625,-6.140625 C 6.53125,-6.28125 6.078125,-7.03125 4.96875,-7.03125 2.734375,-7.03125 0.5,-4.828125 0.5,-2.515625 0.5,-0.875 1.671875,0.21875 3.203125,0.21875 c 0.859375,0 1.625,-0.390625 2.15625,-0.859375 0.921875,-0.8125 1.09375,-1.71875 1.09375,-1.75 C 6.453125,-2.5 6.34375,-2.5 6.328125,-2.5 c -0.0625,0 -0.109375,0.03125 -0.125,0.109375 -0.09375,0.28125 -0.328125,1 -1.015625,1.578125 -0.6875,0.546875 -1.3125,0.71875 -1.828125,0.71875 -0.890625,0 -1.953125,-0.515625 -1.953125,-2.0625 0,-0.578125 0.203125,-2.1875 1.203125,-3.359375 0.609375,-0.703125 1.546875,-1.203125 2.4375,-1.203125 1.015625,0 1.609375,0.765625 1.609375,1.921875 0,0.40625 -0.03125,0.40625 -0.03125,0.515625 0,0.09375 0.109375,0.09375 0.140625,0.09375 0.125,0 0.125,-0.015625 0.1875,-0.203125 z m 0,0"
               id="id-cda3f9ac-9ba7-4334-ae89-17df3229c9a4" />
          </g>
        </g>
        <g
           style="fill:#000000"
           id="id-15beee63-0507-4335-aaf3-c8d69955ff33">
          <g
             id="id-b107ddd4-f1de-4b8e-83e1-fe7882e0066e"
             transform="translate(155.833, 136.259)">
            <path
               style="color:#000000;-inkscape-stroke:none"
               d="m 3.6875,-1.140625 v -0.25 H 2.90625 V -4.5 c 0,-0.140625 0,-0.203125 -0.140625,-0.203125 -0.09375,0 -0.125,0 -0.1875,0.109375 l -2.3125,3.203125 v 0.25 h 2.0625 v 0.5625 c 0,0.25 0,0.328125 -0.578125,0.328125 H 1.5625 V 0 C 1.921875,-0.015625 2.359375,-0.03125 2.609375,-0.03125 2.875,-0.03125 3.3125,-0.015625 3.671875,0 v -0.25 h -0.1875 C 2.90625,-0.25 2.90625,-0.328125 2.90625,-0.578125 v -0.5625 z M 2.375,-3.9375 v 2.546875 H 0.53125 Z m 0,0"
               id="id-5970a5de-6312-45ac-b248-6f4cbd771460" />
          </g>
        </g>
      </g>
    </g>
    <g
       transform="matrix(0.705556,0,0,0.705556,60.801482,121.17736)"
       ns0:version="1.4.0"
       ns0:texconverter="pdflatex"
       ns0:pdfconverter="inkscape"
       ns0:text="$C_3$\n"
       ns0:preamble="default_packages.tex"
       ns0:scale="2.0"
       ns0:alignment="middle center"
       ns0:inkscapeversion="1.1"
       ns0:jacobian_sqrt="0.705556"
       id="g1035">
      <defs
         id="defs1019" />
      <g
         id="g1033"
         transform="translate(-149.212,-127.734)">
        <g
           style="fill:#000000"
           id="g1025">
          <g
             id="g1023"
             transform="translate(148.712,134.765)">
            <path
               style="color:#000000;-inkscape-stroke:none"
               d="m 7.578125,-6.921875 c 0,-0.03125 -0.015625,-0.109375 -0.109375,-0.109375 -0.03125,0 -0.046875,0.015625 -0.15625,0.125 L 6.625,-6.140625 C 6.53125,-6.28125 6.078125,-7.03125 4.96875,-7.03125 2.734375,-7.03125 0.5,-4.828125 0.5,-2.515625 0.5,-0.875 1.671875,0.21875 3.203125,0.21875 c 0.859375,0 1.625,-0.390625 2.15625,-0.859375 0.921875,-0.8125 1.09375,-1.71875 1.09375,-1.75 C 6.453125,-2.5 6.34375,-2.5 6.328125,-2.5 c -0.0625,0 -0.109375,0.03125 -0.125,0.109375 -0.09375,0.28125 -0.328125,1 -1.015625,1.578125 -0.6875,0.546875 -1.3125,0.71875 -1.828125,0.71875 -0.890625,0 -1.953125,-0.515625 -1.953125,-2.0625 0,-0.578125 0.203125,-2.1875 1.203125,-3.359375 0.609375,-0.703125 1.546875,-1.203125 2.4375,-1.203125 1.015625,0 1.609375,0.765625 1.609375,1.921875 0,0.40625 -0.03125,0.40625 -0.03125,0.515625 0,0.09375 0.109375,0.09375 0.140625,0.09375 0.125,0 0.125,-0.015625 0.1875,-0.203125 z m 0,0"
               id="path1021" />
          </g>
        </g>
        <g
           style="fill:#000000"
           id="g1031">
          <g
             id="g1029"
             transform="translate(155.833,136.259)">
            <path
               style="color:#000000;-inkscape-stroke:none"
               d="m 1.90625,-2.328125 c 0.546875,0 0.9375,0.375 0.9375,1.125 0,0.859375 -0.515625,1.125 -0.90625,1.125 -0.28125,0 -0.90625,-0.078125 -1.1875,-0.5 0.328125,0 0.40625,-0.234375 0.40625,-0.390625 0,-0.21875 -0.171875,-0.375 -0.390625,-0.375 -0.1875,0 -0.390625,0.125 -0.390625,0.40625 0,0.65625 0.71875,1.078125 1.5625,1.078125 0.96875,0 1.640625,-0.65625 1.640625,-1.34375 0,-0.546875 -0.4375,-1.09375 -1.203125,-1.25 0.71875,-0.265625 0.984375,-0.78125 0.984375,-1.21875 0,-0.546875 -0.625,-0.953125 -1.40625,-0.953125 -0.765625,0 -1.359375,0.375 -1.359375,0.9375 0,0.234375 0.15625,0.359375 0.359375,0.359375 0.21875,0 0.359375,-0.15625 0.359375,-0.34375 0,-0.203125 -0.140625,-0.359375 -0.359375,-0.375 0.25,-0.296875 0.71875,-0.375 0.984375,-0.375 0.3125,0 0.75,0.15625 0.75,0.75 0,0.296875 -0.09375,0.625 -0.28125,0.828125 -0.21875,0.265625 -0.421875,0.28125 -0.765625,0.3125 -0.171875,0.015625 -0.1875,0.015625 -0.21875,0.015625 -0.015625,0 -0.078125,0.015625 -0.078125,0.09375 0,0.09375 0.0625,0.09375 0.1875,0.09375 z m 0,0"
               id="path1027" />
          </g>
        </g>
      </g>
    </g>
    <g
       transform="matrix(0.529167,0,0,0.529167,34.484791,91.762081)"
       ns0:version="1.4.0"
       ns0:texconverter="pdflatex"
       ns0:pdfconverter="inkscape"
       ns0:text="$\\theta_{12}$\n\n\n"
       ns0:preamble="default_packages.tex"
       ns0:scale="1.5"
       ns0:alignment="middle center"
       ns0:inkscapeversion="1.1"
       ns0:jacobian_sqrt="0.529167"
       id="g1684">
      <defs
         id="defs1664">
        <g
           id="g1662">
          <symbol
             overflow="visible"
             id="symbol1644">
            <path
               style="stroke:none"
               d=""
               id="path1642" />
          </symbol>
          <symbol
             overflow="visible"
             id="symbol1648">
            <path
               style="stroke:none"
               d="m 4.53125,-4.984375 c 0,-0.65625 -0.171875,-2.046875 -1.1875,-2.046875 -1.390625,0 -2.921875,2.8125 -2.921875,5.09375 0,0.9375 0.28125,2.046875 1.1875,2.046875 1.40625,0 2.921875,-2.859375 2.921875,-5.09375 z M 1.46875,-3.625 C 1.640625,-4.25 1.84375,-5.046875 2.25,-5.765625 2.515625,-6.25 2.875,-6.8125 3.328125,-6.8125 c 0.484375,0 0.546875,0.640625 0.546875,1.203125 0,0.5 -0.078125,1 -0.3125,1.984375 z m 2,0.328125 C 3.359375,-2.84375 3.15625,-2 2.765625,-1.28125 c -0.34375,0.6875 -0.71875,1.171875 -1.15625,1.171875 -0.328125,0 -0.53125,-0.296875 -0.53125,-1.21875 0,-0.421875 0.0625,-1 0.3125,-1.96875 z m 0,0"
               id="path1646" />
          </symbol>
          <symbol
             overflow="visible"
             id="symbol1652">
            <path
               style="stroke:none"
               d=""
               id="path1650" />
          </symbol>
          <symbol
             overflow="visible"
             id="symbol1656">
            <path
               style="stroke:none"
               d="m 2.328125,-4.4375 c 0,-0.1875 0,-0.1875 -0.203125,-0.1875 -0.453125,0.4375 -1.078125,0.4375 -1.359375,0.4375 v 0.25 c 0.15625,0 0.625,0 1,-0.1875 v 3.546875 c 0,0.234375 0,0.328125 -0.6875,0.328125 H 0.8125 V 0 c 0.125,0 0.984375,-0.03125 1.234375,-0.03125 0.21875,0 1.09375,0.03125 1.25,0.03125 V -0.25 H 3.03125 c -0.703125,0 -0.703125,-0.09375 -0.703125,-0.328125 z m 0,0"
               id="path1654" />
          </symbol>
          <symbol
             overflow="visible"
             id="symbol1660">
            <path
               style="stroke:none"
               d="M 3.515625,-1.265625 H 3.28125 c -0.015625,0.15625 -0.09375,0.5625 -0.1875,0.625 C 3.046875,-0.59375 2.515625,-0.59375 2.40625,-0.59375 H 1.125 c 0.734375,-0.640625 0.984375,-0.84375 1.390625,-1.171875 0.515625,-0.40625 1,-0.84375 1,-1.5 0,-0.84375 -0.734375,-1.359375 -1.625,-1.359375 -0.859375,0 -1.453125,0.609375 -1.453125,1.25 0,0.34375 0.296875,0.390625 0.375,0.390625 0.15625,0 0.359375,-0.125 0.359375,-0.375 0,-0.125 -0.046875,-0.375 -0.40625,-0.375 C 0.984375,-4.21875 1.453125,-4.375 1.78125,-4.375 c 0.703125,0 1.0625,0.546875 1.0625,1.109375 0,0.609375 -0.4375,1.078125 -0.65625,1.328125 L 0.515625,-0.265625 C 0.4375,-0.203125 0.4375,-0.1875 0.4375,0 h 2.875 z m 0,0"
               id="path1658" />
          </symbol>
        </g>
      </defs>
      <g
         id="g1682"
         transform="translate(-149.134,-127.734)">
        <g
           style="fill:#000000"
           id="g1670">
          <g
             id="g1668"
             transform="translate(148.712,134.765)">
            <path
               style="color:#000000;-inkscape-stroke:none"
               d="m 4.53125,-4.984375 c 0,-0.65625 -0.171875,-2.046875 -1.1875,-2.046875 -1.390625,0 -2.921875,2.8125 -2.921875,5.09375 0,0.9375 0.28125,2.046875 1.1875,2.046875 1.40625,0 2.921875,-2.859375 2.921875,-5.09375 z M 1.46875,-3.625 C 1.640625,-4.25 1.84375,-5.046875 2.25,-5.765625 2.515625,-6.25 2.875,-6.8125 3.328125,-6.8125 c 0.484375,0 0.546875,0.640625 0.546875,1.203125 0,0.5 -0.078125,1 -0.3125,1.984375 z m 2,0.328125 C 3.359375,-2.84375 3.15625,-2 2.765625,-1.28125 c -0.34375,0.6875 -0.71875,1.171875 -1.15625,1.171875 -0.328125,0 -0.53125,-0.296875 -0.53125,-1.21875 0,-0.421875 0.0625,-1 0.3125,-1.96875 z m 0,0"
               id="path1666" />
          </g>
        </g>
        <g
           style="fill:#000000"
           id="g1680">
          <g
             id="g1674"
             transform="translate(153.389,136.259)">
            <path
               style="color:#000000;-inkscape-stroke:none"
               d="m 2.328125,-4.4375 c 0,-0.1875 0,-0.1875 -0.203125,-0.1875 -0.453125,0.4375 -1.078125,0.4375 -1.359375,0.4375 v 0.25 c 0.15625,0 0.625,0 1,-0.1875 v 3.546875 c 0,0.234375 0,0.328125 -0.6875,0.328125 H 0.8125 V 0 c 0.125,0 0.984375,-0.03125 1.234375,-0.03125 0.21875,0 1.09375,0.03125 1.25,0.03125 V -0.25 H 3.03125 c -0.703125,0 -0.703125,-0.09375 -0.703125,-0.328125 z m 0,0"
               id="path1672" />
          </g>
          <g
             id="g1678"
             transform="translate(157.361,136.259)">
            <path
               style="color:#000000;-inkscape-stroke:none"
               d="M 3.515625,-1.265625 H 3.28125 c -0.015625,0.15625 -0.09375,0.5625 -0.1875,0.625 C 3.046875,-0.59375 2.515625,-0.59375 2.40625,-0.59375 H 1.125 c 0.734375,-0.640625 0.984375,-0.84375 1.390625,-1.171875 0.515625,-0.40625 1,-0.84375 1,-1.5 0,-0.84375 -0.734375,-1.359375 -1.625,-1.359375 -0.859375,0 -1.453125,0.609375 -1.453125,1.25 0,0.34375 0.296875,0.390625 0.375,0.390625 0.15625,0 0.359375,-0.125 0.359375,-0.375 0,-0.125 -0.046875,-0.375 -0.40625,-0.375 C 0.984375,-4.21875 1.453125,-4.375 1.78125,-4.375 c 0.703125,0 1.0625,0.546875 1.0625,1.109375 0,0.609375 -0.4375,1.078125 -0.65625,1.328125 L 0.515625,-0.265625 C 0.4375,-0.203125 0.4375,-0.1875 0.4375,0 h 2.875 z m 0,0"
               id="path1676" />
          </g>
        </g>
      </g>
    </g>
    <g
       transform="matrix(0.529167 0 0 0.529167 74.1376 112.025)"
       ns0:version="1.4.0"
       ns0:texconverter="pdflatex"
       ns0:pdfconverter="inkscape"
       ns0:text="$\\theta_{23}$\n\n\n\n"
       ns0:preamble="default_packages.tex"
       ns0:scale="1.5"
       ns0:alignment="middle center"
       ns0:inkscapeversion="1.1"
       ns0:jacobian_sqrt="0.529167"
       id="g1882">
      <defs
         id="id-53fea2be-83b9-4e66-b14c-802610e7bad0">
        <g
           id="id-e3bd2b64-45d2-4373-b95e-1333c3b8fe26">
          <symbol
             overflow="visible"
             id="id-2775629c-7b11-46ba-ac1b-317b3e917ffb">
            <path
               style="stroke:none"
               d=""
               id="id-e73f616a-2b20-412b-a632-4a2571c5e4ae" />
          </symbol>
          <symbol
             overflow="visible"
             id="id-8922ca40-61b4-474c-bbc8-79f9278d40a5">
            <path
               style="stroke:none"
               d="m 4.53125,-4.984375 c 0,-0.65625 -0.171875,-2.046875 -1.1875,-2.046875 -1.390625,0 -2.921875,2.8125 -2.921875,5.09375 0,0.9375 0.28125,2.046875 1.1875,2.046875 1.40625,0 2.921875,-2.859375 2.921875,-5.09375 z M 1.46875,-3.625 C 1.640625,-4.25 1.84375,-5.046875 2.25,-5.765625 2.515625,-6.25 2.875,-6.8125 3.328125,-6.8125 c 0.484375,0 0.546875,0.640625 0.546875,1.203125 0,0.5 -0.078125,1 -0.3125,1.984375 z m 2,0.328125 C 3.359375,-2.84375 3.15625,-2 2.765625,-1.28125 c -0.34375,0.6875 -0.71875,1.171875 -1.15625,1.171875 -0.328125,0 -0.53125,-0.296875 -0.53125,-1.21875 0,-0.421875 0.0625,-1 0.3125,-1.96875 z m 0,0"
               id="id-9fb6498c-6716-476e-8003-22cbfd2922ac" />
          </symbol>
          <symbol
             overflow="visible"
             id="id-378fa129-3db7-4641-9b65-4c8f8edee79f">
            <path
               style="stroke:none"
               d=""
               id="id-d47a3497-d699-44a2-b178-215a5a7fae68" />
          </symbol>
          <symbol
             overflow="visible"
             id="id-b03eb19f-0cfc-4d1d-8848-298c1d40f9e2">
            <path
               style="stroke:none"
               d="M 3.515625,-1.265625 H 3.28125 c -0.015625,0.15625 -0.09375,0.5625 -0.1875,0.625 C 3.046875,-0.59375 2.515625,-0.59375 2.40625,-0.59375 H 1.125 c 0.734375,-0.640625 0.984375,-0.84375 1.390625,-1.171875 0.515625,-0.40625 1,-0.84375 1,-1.5 0,-0.84375 -0.734375,-1.359375 -1.625,-1.359375 -0.859375,0 -1.453125,0.609375 -1.453125,1.25 0,0.34375 0.296875,0.390625 0.375,0.390625 0.15625,0 0.359375,-0.125 0.359375,-0.375 0,-0.125 -0.046875,-0.375 -0.40625,-0.375 C 0.984375,-4.21875 1.453125,-4.375 1.78125,-4.375 c 0.703125,0 1.0625,0.546875 1.0625,1.109375 0,0.609375 -0.4375,1.078125 -0.65625,1.328125 L 0.515625,-0.265625 C 0.4375,-0.203125 0.4375,-0.1875 0.4375,0 h 2.875 z m 0,0"
               id="id-8837537e-aa83-4bb5-b54d-322c9439c76e" />
          </symbol>
          <symbol
             overflow="visible"
             id="id-69431af0-7fdc-404c-aa09-63ac3de1198a">
            <path
               style="stroke:none"
               d="m 1.90625,-2.328125 c 0.546875,0 0.9375,0.375 0.9375,1.125 0,0.859375 -0.515625,1.125 -0.90625,1.125 -0.28125,0 -0.90625,-0.078125 -1.1875,-0.5 0.328125,0 0.40625,-0.234375 0.40625,-0.390625 0,-0.21875 -0.171875,-0.375 -0.390625,-0.375 -0.1875,0 -0.390625,0.125 -0.390625,0.40625 0,0.65625 0.71875,1.078125 1.5625,1.078125 0.96875,0 1.640625,-0.65625 1.640625,-1.34375 0,-0.546875 -0.4375,-1.09375 -1.203125,-1.25 0.71875,-0.265625 0.984375,-0.78125 0.984375,-1.21875 0,-0.546875 -0.625,-0.953125 -1.40625,-0.953125 -0.765625,0 -1.359375,0.375 -1.359375,0.9375 0,0.234375 0.15625,0.359375 0.359375,0.359375 0.21875,0 0.359375,-0.15625 0.359375,-0.34375 0,-0.203125 -0.140625,-0.359375 -0.359375,-0.375 0.25,-0.296875 0.71875,-0.375 0.984375,-0.375 0.3125,0 0.75,0.15625 0.75,0.75 0,0.296875 -0.09375,0.625 -0.28125,0.828125 -0.21875,0.265625 -0.421875,0.28125 -0.765625,0.3125 -0.171875,0.015625 -0.1875,0.015625 -0.21875,0.015625 -0.015625,0 -0.078125,0.015625 -0.078125,0.09375 0,0.09375 0.0625,0.09375 0.1875,0.09375 z m 0,0"
               id="id-d8a5024e-3021-4cdc-88fa-065b6bffb0ab" />
          </symbol>
        </g>
      </defs>
      <g
         id="id-321635b8-4181-410e-b1cc-890b4a4ee500"
         transform="translate(-149.134, -127.734)">
        <g
           style="fill:#000000"
           id="id-18114fe5-a754-4ff8-86f7-afd099d39127">
          <g
             id="id-fb7c0d57-5545-4c9f-906d-4e0ffb34098f"
             transform="translate(148.712, 134.765)">
            <path
               style="color:#000000;-inkscape-stroke:none"
               d="m 4.53125,-4.984375 c 0,-0.65625 -0.171875,-2.046875 -1.1875,-2.046875 -1.390625,0 -2.921875,2.8125 -2.921875,5.09375 0,0.9375 0.28125,2.046875 1.1875,2.046875 1.40625,0 2.921875,-2.859375 2.921875,-5.09375 z M 1.46875,-3.625 C 1.640625,-4.25 1.84375,-5.046875 2.25,-5.765625 2.515625,-6.25 2.875,-6.8125 3.328125,-6.8125 c 0.484375,0 0.546875,0.640625 0.546875,1.203125 0,0.5 -0.078125,1 -0.3125,1.984375 z m 2,0.328125 C 3.359375,-2.84375 3.15625,-2 2.765625,-1.28125 c -0.34375,0.6875 -0.71875,1.171875 -1.15625,1.171875 -0.328125,0 -0.53125,-0.296875 -0.53125,-1.21875 0,-0.421875 0.0625,-1 0.3125,-1.96875 z m 0,0"
               id="id-bfe1c0ac-4eff-4410-93cb-af2bbbddc41e" />
          </g>
        </g>
        <g
           style="fill:#000000"
           id="id-53417022-1e59-4a80-8206-85b46ea2cea1">
          <g
             id="id-45980c28-358e-4269-bc7b-1a68259182ce"
             transform="translate(153.389, 136.259)">
            <path
               style="color:#000000;-inkscape-stroke:none"
               d="M 3.515625,-1.265625 H 3.28125 c -0.015625,0.15625 -0.09375,0.5625 -0.1875,0.625 C 3.046875,-0.59375 2.515625,-0.59375 2.40625,-0.59375 H 1.125 c 0.734375,-0.640625 0.984375,-0.84375 1.390625,-1.171875 0.515625,-0.40625 1,-0.84375 1,-1.5 0,-0.84375 -0.734375,-1.359375 -1.625,-1.359375 -0.859375,0 -1.453125,0.609375 -1.453125,1.25 0,0.34375 0.296875,0.390625 0.375,0.390625 0.15625,0 0.359375,-0.125 0.359375,-0.375 0,-0.125 -0.046875,-0.375 -0.40625,-0.375 C 0.984375,-4.21875 1.453125,-4.375 1.78125,-4.375 c 0.703125,0 1.0625,0.546875 1.0625,1.109375 0,0.609375 -0.4375,1.078125 -0.65625,1.328125 L 0.515625,-0.265625 C 0.4375,-0.203125 0.4375,-0.1875 0.4375,0 h 2.875 z m 0,0"
               id="id-eb71b9a5-5fbc-4656-981b-1106f58a0cc5" />
          </g>
          <g
             id="id-db451951-c5b9-469a-9999-704ab4cf31df"
             transform="translate(157.361, 136.259)">
            <path
               style="color:#000000;-inkscape-stroke:none"
               d="m 1.90625,-2.328125 c 0.546875,0 0.9375,0.375 0.9375,1.125 0,0.859375 -0.515625,1.125 -0.90625,1.125 -0.28125,0 -0.90625,-0.078125 -1.1875,-0.5 0.328125,0 0.40625,-0.234375 0.40625,-0.390625 0,-0.21875 -0.171875,-0.375 -0.390625,-0.375 -0.1875,0 -0.390625,0.125 -0.390625,0.40625 0,0.65625 0.71875,1.078125 1.5625,1.078125 0.96875,0 1.640625,-0.65625 1.640625,-1.34375 0,-0.546875 -0.4375,-1.09375 -1.203125,-1.25 0.71875,-0.265625 0.984375,-0.78125 0.984375,-1.21875 0,-0.546875 -0.625,-0.953125 -1.40625,-0.953125 -0.765625,0 -1.359375,0.375 -1.359375,0.9375 0,0.234375 0.15625,0.359375 0.359375,0.359375 0.21875,0 0.359375,-0.15625 0.359375,-0.34375 0,-0.203125 -0.140625,-0.359375 -0.359375,-0.375 0.25,-0.296875 0.71875,-0.375 0.984375,-0.375 0.3125,0 0.75,0.15625 0.75,0.75 0,0.296875 -0.09375,0.625 -0.28125,0.828125 -0.21875,0.265625 -0.421875,0.28125 -0.765625,0.3125 -0.171875,0.015625 -0.1875,0.015625 -0.21875,0.015625 -0.015625,0 -0.078125,0.015625 -0.078125,0.09375 0,0.09375 0.0625,0.09375 0.1875,0.09375 z m 0,0"
               id="id-19553099-c56c-4920-a7a5-a327ee98394e" />
          </g>
        </g>
      </g>
    </g>
    <g
       transform="matrix(0.529167 0 0 0.529167 17.8072 121.787)"
       ns0:version="1.4.0"
       ns0:texconverter="pdflatex"
       ns0:pdfconverter="inkscape"
       ns0:text="$\\theta_{31}$\n\n\n\n"
       ns0:preamble="default_packages.tex"
       ns0:scale="1.5"
       ns0:alignment="middle center"
       ns0:inkscapeversion="1.1"
       ns0:jacobian_sqrt="0.529167"
       id="g9432">
      <defs
         id="id-f1e068ec-728c-40be-a8a0-d8d2bf5c020a">
        <g
           id="id-5aaee1dd-7cd6-4a00-86cc-79c128050bf0">
          <symbol
             overflow="visible"
             id="id-3d10e1da-5592-4f5e-a74e-574bf88fa52f">
            <path
               style="stroke:none"
               d=""
               id="id-f101bb6e-e73f-4a83-a8c2-3d9529f7250c" />
          </symbol>
          <symbol
             overflow="visible"
             id="id-15a60b75-b27d-4585-bc92-3529b1487ea2">
            <path
               style="stroke:none"
               d="m 4.53125,-4.984375 c 0,-0.65625 -0.171875,-2.046875 -1.1875,-2.046875 -1.390625,0 -2.921875,2.8125 -2.921875,5.09375 0,0.9375 0.28125,2.046875 1.1875,2.046875 1.40625,0 2.921875,-2.859375 2.921875,-5.09375 z M 1.46875,-3.625 C 1.640625,-4.25 1.84375,-5.046875 2.25,-5.765625 2.515625,-6.25 2.875,-6.8125 3.328125,-6.8125 c 0.484375,0 0.546875,0.640625 0.546875,1.203125 0,0.5 -0.078125,1 -0.3125,1.984375 z m 2,0.328125 C 3.359375,-2.84375 3.15625,-2 2.765625,-1.28125 c -0.34375,0.6875 -0.71875,1.171875 -1.15625,1.171875 -0.328125,0 -0.53125,-0.296875 -0.53125,-1.21875 0,-0.421875 0.0625,-1 0.3125,-1.96875 z m 0,0"
               id="id-26bd7a1e-90bc-47cc-9e11-b2786cd7def5" />
          </symbol>
          <symbol
             overflow="visible"
             id="id-8f2ebb93-bd10-49c7-95a0-ed2100e829e9">
            <path
               style="stroke:none"
               d=""
               id="id-b5c539e1-b692-43bf-9707-0056ade268ab" />
          </symbol>
          <symbol
             overflow="visible"
             id="id-c13621c6-bc69-4888-90d5-4a4a68d24674">
            <path
               style="stroke:none"
               d="m 1.90625,-2.328125 c 0.546875,0 0.9375,0.375 0.9375,1.125 0,0.859375 -0.515625,1.125 -0.90625,1.125 -0.28125,0 -0.90625,-0.078125 -1.1875,-0.5 0.328125,0 0.40625,-0.234375 0.40625,-0.390625 0,-0.21875 -0.171875,-0.375 -0.390625,-0.375 -0.1875,0 -0.390625,0.125 -0.390625,0.40625 0,0.65625 0.71875,1.078125 1.5625,1.078125 0.96875,0 1.640625,-0.65625 1.640625,-1.34375 0,-0.546875 -0.4375,-1.09375 -1.203125,-1.25 0.71875,-0.265625 0.984375,-0.78125 0.984375,-1.21875 0,-0.546875 -0.625,-0.953125 -1.40625,-0.953125 -0.765625,0 -1.359375,0.375 -1.359375,0.9375 0,0.234375 0.15625,0.359375 0.359375,0.359375 0.21875,0 0.359375,-0.15625 0.359375,-0.34375 0,-0.203125 -0.140625,-0.359375 -0.359375,-0.375 0.25,-0.296875 0.71875,-0.375 0.984375,-0.375 0.3125,0 0.75,0.15625 0.75,0.75 0,0.296875 -0.09375,0.625 -0.28125,0.828125 -0.21875,0.265625 -0.421875,0.28125 -0.765625,0.3125 -0.171875,0.015625 -0.1875,0.015625 -0.21875,0.015625 -0.015625,0 -0.078125,0.015625 -0.078125,0.09375 0,0.09375 0.0625,0.09375 0.1875,0.09375 z m 0,0"
               id="id-1e91d567-1285-40af-b7f1-fdd30d036eeb" />
          </symbol>
          <symbol
             overflow="visible"
             id="id-a4b70e55-14bc-4ae2-8bd8-631c000bb0f9">
            <path
               style="stroke:none"
               d="m 2.328125,-4.4375 c 0,-0.1875 0,-0.1875 -0.203125,-0.1875 -0.453125,0.4375 -1.078125,0.4375 -1.359375,0.4375 v 0.25 c 0.15625,0 0.625,0 1,-0.1875 v 3.546875 c 0,0.234375 0,0.328125 -0.6875,0.328125 H 0.8125 V 0 c 0.125,0 0.984375,-0.03125 1.234375,-0.03125 0.21875,0 1.09375,0.03125 1.25,0.03125 V -0.25 H 3.03125 c -0.703125,0 -0.703125,-0.09375 -0.703125,-0.328125 z m 0,0"
               id="id-d76b6009-7b61-452d-a350-5a91c24b6e1d" />
          </symbol>
        </g>
      </defs>
      <g
         id="id-a881be07-335f-48a1-8e45-a55cdf1d54b9"
         transform="translate(-149.134, -127.734)">
        <g
           style="fill:#000000"
           id="id-81a9e898-a1ab-4144-8b9b-d9b92930e3be">
          <g
             id="id-80efade8-0482-4ab4-ac24-2f82ceb5931c"
             transform="translate(148.712, 134.765)">
            <path
               style="color:#000000;-inkscape-stroke:none"
               d="m 4.53125,-4.984375 c 0,-0.65625 -0.171875,-2.046875 -1.1875,-2.046875 -1.390625,0 -2.921875,2.8125 -2.921875,5.09375 0,0.9375 0.28125,2.046875 1.1875,2.046875 1.40625,0 2.921875,-2.859375 2.921875,-5.09375 z M 1.46875,-3.625 C 1.640625,-4.25 1.84375,-5.046875 2.25,-5.765625 2.515625,-6.25 2.875,-6.8125 3.328125,-6.8125 c 0.484375,0 0.546875,0.640625 0.546875,1.203125 0,0.5 -0.078125,1 -0.3125,1.984375 z m 2,0.328125 C 3.359375,-2.84375 3.15625,-2 2.765625,-1.28125 c -0.34375,0.6875 -0.71875,1.171875 -1.15625,1.171875 -0.328125,0 -0.53125,-0.296875 -0.53125,-1.21875 0,-0.421875 0.0625,-1 0.3125,-1.96875 z m 0,0"
               id="id-f1c6c3a3-df5f-4669-b993-3c221381f191" />
          </g>
        </g>
        <g
           style="fill:#000000"
           id="id-1012534e-92cc-412a-9262-d4b04ffc555c">
          <g
             id="id-04b18f87-4b39-4c9d-b73c-9c79a99b4228"
             transform="translate(153.389, 136.259)">
            <path
               style="color:#000000;-inkscape-stroke:none"
               d="m 1.90625,-2.328125 c 0.546875,0 0.9375,0.375 0.9375,1.125 0,0.859375 -0.515625,1.125 -0.90625,1.125 -0.28125,0 -0.90625,-0.078125 -1.1875,-0.5 0.328125,0 0.40625,-0.234375 0.40625,-0.390625 0,-0.21875 -0.171875,-0.375 -0.390625,-0.375 -0.1875,0 -0.390625,0.125 -0.390625,0.40625 0,0.65625 0.71875,1.078125 1.5625,1.078125 0.96875,0 1.640625,-0.65625 1.640625,-1.34375 0,-0.546875 -0.4375,-1.09375 -1.203125,-1.25 0.71875,-0.265625 0.984375,-0.78125 0.984375,-1.21875 0,-0.546875 -0.625,-0.953125 -1.40625,-0.953125 -0.765625,0 -1.359375,0.375 -1.359375,0.9375 0,0.234375 0.15625,0.359375 0.359375,0.359375 0.21875,0 0.359375,-0.15625 0.359375,-0.34375 0,-0.203125 -0.140625,-0.359375 -0.359375,-0.375 0.25,-0.296875 0.71875,-0.375 0.984375,-0.375 0.3125,0 0.75,0.15625 0.75,0.75 0,0.296875 -0.09375,0.625 -0.28125,0.828125 -0.21875,0.265625 -0.421875,0.28125 -0.765625,0.3125 -0.171875,0.015625 -0.1875,0.015625 -0.21875,0.015625 -0.015625,0 -0.078125,0.015625 -0.078125,0.09375 0,0.09375 0.0625,0.09375 0.1875,0.09375 z m 0,0"
               id="id-09e149d6-5291-4199-ae2b-b92414090447" />
          </g>
          <g
             id="id-6013b1ee-00e5-48f2-85a4-dee6997b093d"
             transform="translate(157.361, 136.259)">
            <path
               style="color:#000000;-inkscape-stroke:none"
               d="m 2.328125,-4.4375 c 0,-0.1875 0,-0.1875 -0.203125,-0.1875 -0.453125,0.4375 -1.078125,0.4375 -1.359375,0.4375 v 0.25 c 0.15625,0 0.625,0 1,-0.1875 v 3.546875 c 0,0.234375 0,0.328125 -0.6875,0.328125 H 0.8125 V 0 c 0.125,0 0.984375,-0.03125 1.234375,-0.03125 0.21875,0 1.09375,0.03125 1.25,0.03125 V -0.25 H 3.03125 c -0.703125,0 -0.703125,-0.09375 -0.703125,-0.328125 z m 0,0"
               id="id-cca268e8-d289-4555-b8ed-bcebdeee7b75" />
          </g>
        </g>
      </g>
    </g>
  </g>
</svg>
